G75*
G70*
%OFA0B0*%
%FSLAX24Y24*%
%IPPOS*%
%LPD*%
%AMOC8*
5,1,8,0,0,1.08239X$1,22.5*
%
%ADD10C,0.0000*%
D10*
X004530Y004471D02*
X004530Y048093D01*
X004532Y048147D01*
X004537Y048200D01*
X004546Y048253D01*
X004559Y048305D01*
X004575Y048357D01*
X004595Y048407D01*
X004618Y048455D01*
X004645Y048502D01*
X004674Y048547D01*
X004707Y048590D01*
X004742Y048630D01*
X004780Y048668D01*
X004820Y048703D01*
X004863Y048736D01*
X004908Y048765D01*
X004955Y048792D01*
X005003Y048815D01*
X005053Y048835D01*
X005105Y048851D01*
X005157Y048864D01*
X005210Y048873D01*
X005263Y048878D01*
X005317Y048880D01*
X006223Y048880D01*
X006223Y048881D02*
X006311Y048883D01*
X006399Y048889D01*
X006486Y048900D01*
X006573Y048914D01*
X006659Y048933D01*
X006744Y048956D01*
X006828Y048983D01*
X006911Y049014D01*
X006992Y049048D01*
X007071Y049087D01*
X007148Y049129D01*
X007223Y049175D01*
X007296Y049224D01*
X007367Y049277D01*
X007434Y049333D01*
X007500Y049392D01*
X007562Y049454D01*
X007621Y049520D01*
X007677Y049587D01*
X007730Y049658D01*
X007779Y049731D01*
X007825Y049806D01*
X007867Y049883D01*
X007906Y049962D01*
X007940Y050043D01*
X007971Y050126D01*
X007998Y050210D01*
X008021Y050295D01*
X008040Y050381D01*
X008054Y050468D01*
X008065Y050555D01*
X008071Y050643D01*
X008073Y050731D01*
X008073Y051636D01*
X008074Y051636D02*
X008076Y051690D01*
X008081Y051743D01*
X008090Y051796D01*
X008103Y051848D01*
X008119Y051900D01*
X008139Y051950D01*
X008162Y051998D01*
X008189Y052045D01*
X008218Y052090D01*
X008251Y052133D01*
X008286Y052173D01*
X008324Y052211D01*
X008364Y052246D01*
X008407Y052279D01*
X008452Y052308D01*
X008499Y052335D01*
X008547Y052358D01*
X008597Y052378D01*
X008649Y052394D01*
X008701Y052407D01*
X008754Y052416D01*
X008807Y052421D01*
X008861Y052423D01*
X013979Y052423D01*
X014033Y052421D01*
X014086Y052416D01*
X014139Y052407D01*
X014191Y052394D01*
X014243Y052378D01*
X014293Y052358D01*
X014341Y052335D01*
X014388Y052308D01*
X014433Y052279D01*
X014476Y052246D01*
X014516Y052211D01*
X014554Y052173D01*
X014589Y052133D01*
X014622Y052090D01*
X014651Y052045D01*
X014678Y051998D01*
X014701Y051950D01*
X014721Y051900D01*
X014737Y051848D01*
X014750Y051796D01*
X014759Y051743D01*
X014764Y051690D01*
X014766Y051636D01*
X014766Y015101D01*
X014767Y015101D02*
X014769Y015047D01*
X014774Y014994D01*
X014783Y014941D01*
X014796Y014889D01*
X014812Y014837D01*
X014832Y014787D01*
X014855Y014739D01*
X014882Y014692D01*
X014911Y014647D01*
X014944Y014604D01*
X014979Y014564D01*
X015017Y014526D01*
X015057Y014491D01*
X015100Y014458D01*
X015145Y014429D01*
X015192Y014402D01*
X015240Y014379D01*
X015290Y014359D01*
X015342Y014343D01*
X015394Y014330D01*
X015447Y014321D01*
X015500Y014316D01*
X015554Y014314D01*
X015554Y014313D02*
X032286Y014313D01*
X032340Y014311D01*
X032393Y014306D01*
X032446Y014297D01*
X032498Y014284D01*
X032550Y014268D01*
X032600Y014248D01*
X032648Y014225D01*
X032695Y014198D01*
X032740Y014169D01*
X032783Y014136D01*
X032823Y014101D01*
X032861Y014063D01*
X032896Y014023D01*
X032929Y013980D01*
X032958Y013935D01*
X032985Y013888D01*
X033008Y013840D01*
X033028Y013790D01*
X033044Y013738D01*
X033057Y013686D01*
X033066Y013633D01*
X033071Y013580D01*
X033073Y013526D01*
X033073Y004471D01*
X033071Y004417D01*
X033066Y004364D01*
X033057Y004311D01*
X033044Y004259D01*
X033028Y004207D01*
X033008Y004157D01*
X032985Y004109D01*
X032958Y004062D01*
X032929Y004017D01*
X032896Y003974D01*
X032861Y003934D01*
X032823Y003896D01*
X032783Y003861D01*
X032740Y003828D01*
X032695Y003799D01*
X032648Y003772D01*
X032600Y003749D01*
X032550Y003729D01*
X032498Y003713D01*
X032446Y003700D01*
X032393Y003691D01*
X032340Y003686D01*
X032286Y003684D01*
X032286Y003683D02*
X031380Y003683D01*
X031292Y003681D01*
X031204Y003675D01*
X031117Y003664D01*
X031030Y003650D01*
X030944Y003631D01*
X030859Y003608D01*
X030775Y003581D01*
X030692Y003550D01*
X030611Y003516D01*
X030532Y003477D01*
X030455Y003435D01*
X030380Y003389D01*
X030307Y003340D01*
X030236Y003287D01*
X030169Y003231D01*
X030103Y003172D01*
X030041Y003110D01*
X029982Y003044D01*
X029926Y002977D01*
X029873Y002906D01*
X029824Y002833D01*
X029778Y002758D01*
X029736Y002681D01*
X029697Y002602D01*
X029663Y002521D01*
X029632Y002438D01*
X029605Y002354D01*
X029582Y002269D01*
X029563Y002183D01*
X029549Y002096D01*
X029538Y002009D01*
X029532Y001921D01*
X029530Y001833D01*
X029530Y000927D01*
X029528Y000873D01*
X029523Y000820D01*
X029514Y000767D01*
X029501Y000715D01*
X029485Y000663D01*
X029465Y000613D01*
X029442Y000565D01*
X029415Y000518D01*
X029386Y000473D01*
X029353Y000430D01*
X029318Y000390D01*
X029280Y000352D01*
X029240Y000317D01*
X029197Y000284D01*
X029152Y000255D01*
X029105Y000228D01*
X029057Y000205D01*
X029007Y000185D01*
X028955Y000169D01*
X028903Y000156D01*
X028850Y000147D01*
X028797Y000142D01*
X028743Y000140D01*
X008861Y000140D01*
X008807Y000142D01*
X008754Y000147D01*
X008701Y000156D01*
X008649Y000169D01*
X008597Y000185D01*
X008547Y000205D01*
X008499Y000228D01*
X008452Y000255D01*
X008407Y000284D01*
X008364Y000317D01*
X008324Y000352D01*
X008286Y000390D01*
X008251Y000430D01*
X008218Y000473D01*
X008189Y000518D01*
X008162Y000565D01*
X008139Y000613D01*
X008119Y000663D01*
X008103Y000715D01*
X008090Y000767D01*
X008081Y000820D01*
X008076Y000873D01*
X008074Y000927D01*
X008073Y000927D02*
X008073Y001833D01*
X008155Y004408D02*
X008157Y004458D01*
X008163Y004509D01*
X008173Y004558D01*
X008186Y004607D01*
X008204Y004654D01*
X008225Y004700D01*
X008250Y004744D01*
X008278Y004786D01*
X008309Y004826D01*
X008343Y004863D01*
X008380Y004897D01*
X008420Y004928D01*
X008462Y004956D01*
X008506Y004981D01*
X008552Y005002D01*
X008599Y005020D01*
X008648Y005033D01*
X008697Y005043D01*
X008748Y005049D01*
X008798Y005051D01*
X008848Y005049D01*
X008899Y005043D01*
X008948Y005033D01*
X008997Y005020D01*
X009044Y005002D01*
X009090Y004981D01*
X009134Y004956D01*
X009176Y004928D01*
X009216Y004897D01*
X009253Y004863D01*
X009287Y004826D01*
X009318Y004786D01*
X009346Y004744D01*
X009371Y004700D01*
X009392Y004654D01*
X009410Y004607D01*
X009423Y004558D01*
X009433Y004509D01*
X009439Y004458D01*
X009441Y004408D01*
X009439Y004358D01*
X009433Y004307D01*
X009423Y004258D01*
X009410Y004209D01*
X009392Y004162D01*
X009371Y004116D01*
X009346Y004072D01*
X009318Y004030D01*
X009287Y003990D01*
X009253Y003953D01*
X009216Y003919D01*
X009176Y003888D01*
X009134Y003860D01*
X009090Y003835D01*
X009044Y003814D01*
X008997Y003796D01*
X008948Y003783D01*
X008899Y003773D01*
X008848Y003767D01*
X008798Y003765D01*
X008748Y003767D01*
X008697Y003773D01*
X008648Y003783D01*
X008599Y003796D01*
X008552Y003814D01*
X008506Y003835D01*
X008462Y003860D01*
X008420Y003888D01*
X008380Y003919D01*
X008343Y003953D01*
X008309Y003990D01*
X008278Y004030D01*
X008250Y004072D01*
X008225Y004116D01*
X008204Y004162D01*
X008186Y004209D01*
X008173Y004258D01*
X008163Y004307D01*
X008157Y004358D01*
X008155Y004408D01*
X006223Y003683D02*
X005317Y003683D01*
X005317Y003684D02*
X005263Y003686D01*
X005210Y003691D01*
X005157Y003700D01*
X005105Y003713D01*
X005053Y003729D01*
X005003Y003749D01*
X004955Y003772D01*
X004908Y003799D01*
X004863Y003828D01*
X004820Y003861D01*
X004780Y003896D01*
X004742Y003934D01*
X004707Y003974D01*
X004674Y004017D01*
X004645Y004062D01*
X004618Y004109D01*
X004595Y004157D01*
X004575Y004207D01*
X004559Y004259D01*
X004546Y004311D01*
X004537Y004364D01*
X004532Y004417D01*
X004530Y004471D01*
X006223Y003683D02*
X006314Y003681D01*
X006404Y003674D01*
X006494Y003663D01*
X006584Y003647D01*
X006673Y003628D01*
X006760Y003603D01*
X006846Y003575D01*
X006931Y003542D01*
X007014Y003505D01*
X007095Y003465D01*
X007174Y003420D01*
X007251Y003371D01*
X007325Y003319D01*
X007397Y003263D01*
X007465Y003204D01*
X007531Y003141D01*
X007594Y003075D01*
X007653Y003007D01*
X007709Y002935D01*
X007761Y002861D01*
X007810Y002784D01*
X007855Y002705D01*
X007895Y002624D01*
X007932Y002541D01*
X007965Y002456D01*
X007993Y002370D01*
X008018Y002283D01*
X008037Y002194D01*
X008053Y002104D01*
X008064Y002014D01*
X008071Y001924D01*
X008073Y001833D01*
X022794Y016144D02*
X022794Y052679D01*
X022793Y052679D02*
X022791Y052733D01*
X022786Y052786D01*
X022777Y052839D01*
X022764Y052891D01*
X022748Y052943D01*
X022728Y052993D01*
X022705Y053041D01*
X022678Y053088D01*
X022649Y053133D01*
X022616Y053176D01*
X022581Y053216D01*
X022543Y053254D01*
X022503Y053289D01*
X022460Y053322D01*
X022415Y053351D01*
X022368Y053378D01*
X022320Y053401D01*
X022270Y053421D01*
X022218Y053437D01*
X022166Y053450D01*
X022113Y053459D01*
X022060Y053464D01*
X022006Y053466D01*
X022006Y053467D02*
X005274Y053467D01*
X005220Y053469D01*
X005167Y053474D01*
X005114Y053483D01*
X005062Y053496D01*
X005010Y053512D01*
X004960Y053532D01*
X004912Y053555D01*
X004865Y053582D01*
X004820Y053611D01*
X004777Y053644D01*
X004737Y053679D01*
X004699Y053717D01*
X004664Y053757D01*
X004631Y053800D01*
X004602Y053845D01*
X004575Y053892D01*
X004552Y053940D01*
X004532Y053990D01*
X004516Y054042D01*
X004503Y054094D01*
X004494Y054147D01*
X004489Y054200D01*
X004487Y054254D01*
X004487Y063309D01*
X004489Y063363D01*
X004494Y063416D01*
X004503Y063469D01*
X004516Y063521D01*
X004532Y063573D01*
X004552Y063623D01*
X004575Y063671D01*
X004602Y063718D01*
X004631Y063763D01*
X004664Y063806D01*
X004699Y063846D01*
X004737Y063884D01*
X004777Y063919D01*
X004820Y063952D01*
X004865Y063981D01*
X004912Y064008D01*
X004960Y064031D01*
X005010Y064051D01*
X005062Y064067D01*
X005114Y064080D01*
X005167Y064089D01*
X005220Y064094D01*
X005274Y064096D01*
X005274Y064097D02*
X006180Y064097D01*
X006268Y064099D01*
X006356Y064105D01*
X006443Y064116D01*
X006530Y064130D01*
X006616Y064149D01*
X006701Y064172D01*
X006785Y064199D01*
X006868Y064230D01*
X006949Y064264D01*
X007028Y064303D01*
X007105Y064345D01*
X007180Y064391D01*
X007253Y064440D01*
X007324Y064493D01*
X007391Y064549D01*
X007457Y064608D01*
X007519Y064670D01*
X007578Y064736D01*
X007634Y064803D01*
X007687Y064874D01*
X007736Y064947D01*
X007782Y065022D01*
X007824Y065099D01*
X007863Y065178D01*
X007897Y065259D01*
X007928Y065342D01*
X007955Y065426D01*
X007978Y065511D01*
X007997Y065597D01*
X008011Y065684D01*
X008022Y065771D01*
X008028Y065859D01*
X008030Y065947D01*
X008030Y066853D01*
X008032Y066907D01*
X008037Y066960D01*
X008046Y067013D01*
X008059Y067065D01*
X008075Y067117D01*
X008095Y067167D01*
X008118Y067215D01*
X008145Y067262D01*
X008174Y067307D01*
X008207Y067350D01*
X008242Y067390D01*
X008280Y067428D01*
X008320Y067463D01*
X008363Y067496D01*
X008408Y067525D01*
X008455Y067552D01*
X008503Y067575D01*
X008553Y067595D01*
X008605Y067611D01*
X008657Y067624D01*
X008710Y067633D01*
X008763Y067638D01*
X008817Y067640D01*
X028699Y067640D01*
X028753Y067638D01*
X028806Y067633D01*
X028859Y067624D01*
X028911Y067611D01*
X028963Y067595D01*
X029013Y067575D01*
X029061Y067552D01*
X029108Y067525D01*
X029153Y067496D01*
X029196Y067463D01*
X029236Y067428D01*
X029274Y067390D01*
X029309Y067350D01*
X029342Y067307D01*
X029371Y067262D01*
X029398Y067215D01*
X029421Y067167D01*
X029441Y067117D01*
X029457Y067065D01*
X029470Y067013D01*
X029479Y066960D01*
X029484Y066907D01*
X029486Y066853D01*
X029487Y066853D02*
X029487Y065947D01*
X028119Y063372D02*
X028121Y063422D01*
X028127Y063473D01*
X028137Y063522D01*
X028150Y063571D01*
X028168Y063618D01*
X028189Y063664D01*
X028214Y063708D01*
X028242Y063750D01*
X028273Y063790D01*
X028307Y063827D01*
X028344Y063861D01*
X028384Y063892D01*
X028426Y063920D01*
X028470Y063945D01*
X028516Y063966D01*
X028563Y063984D01*
X028612Y063997D01*
X028661Y064007D01*
X028712Y064013D01*
X028762Y064015D01*
X028812Y064013D01*
X028863Y064007D01*
X028912Y063997D01*
X028961Y063984D01*
X029008Y063966D01*
X029054Y063945D01*
X029098Y063920D01*
X029140Y063892D01*
X029180Y063861D01*
X029217Y063827D01*
X029251Y063790D01*
X029282Y063750D01*
X029310Y063708D01*
X029335Y063664D01*
X029356Y063618D01*
X029374Y063571D01*
X029387Y063522D01*
X029397Y063473D01*
X029403Y063422D01*
X029405Y063372D01*
X029403Y063322D01*
X029397Y063271D01*
X029387Y063222D01*
X029374Y063173D01*
X029356Y063126D01*
X029335Y063080D01*
X029310Y063036D01*
X029282Y062994D01*
X029251Y062954D01*
X029217Y062917D01*
X029180Y062883D01*
X029140Y062852D01*
X029098Y062824D01*
X029054Y062799D01*
X029008Y062778D01*
X028961Y062760D01*
X028912Y062747D01*
X028863Y062737D01*
X028812Y062731D01*
X028762Y062729D01*
X028712Y062731D01*
X028661Y062737D01*
X028612Y062747D01*
X028563Y062760D01*
X028516Y062778D01*
X028470Y062799D01*
X028426Y062824D01*
X028384Y062852D01*
X028344Y062883D01*
X028307Y062917D01*
X028273Y062954D01*
X028242Y062994D01*
X028214Y063036D01*
X028189Y063080D01*
X028168Y063126D01*
X028150Y063173D01*
X028137Y063222D01*
X028127Y063271D01*
X028121Y063322D01*
X028119Y063372D01*
X031337Y064097D02*
X032243Y064097D01*
X032243Y064096D02*
X032297Y064094D01*
X032350Y064089D01*
X032403Y064080D01*
X032455Y064067D01*
X032507Y064051D01*
X032557Y064031D01*
X032605Y064008D01*
X032652Y063981D01*
X032697Y063952D01*
X032740Y063919D01*
X032780Y063884D01*
X032818Y063846D01*
X032853Y063806D01*
X032886Y063763D01*
X032915Y063718D01*
X032942Y063671D01*
X032965Y063623D01*
X032985Y063573D01*
X033001Y063521D01*
X033014Y063469D01*
X033023Y063416D01*
X033028Y063363D01*
X033030Y063309D01*
X033030Y019687D01*
X033028Y019633D01*
X033023Y019580D01*
X033014Y019527D01*
X033001Y019475D01*
X032985Y019423D01*
X032965Y019373D01*
X032942Y019325D01*
X032915Y019278D01*
X032886Y019233D01*
X032853Y019190D01*
X032818Y019150D01*
X032780Y019112D01*
X032740Y019077D01*
X032697Y019044D01*
X032652Y019015D01*
X032605Y018988D01*
X032557Y018965D01*
X032507Y018945D01*
X032455Y018929D01*
X032403Y018916D01*
X032350Y018907D01*
X032297Y018902D01*
X032243Y018900D01*
X031337Y018900D01*
X031337Y018899D02*
X031249Y018897D01*
X031161Y018891D01*
X031074Y018880D01*
X030987Y018866D01*
X030901Y018847D01*
X030816Y018824D01*
X030732Y018797D01*
X030649Y018766D01*
X030568Y018732D01*
X030489Y018693D01*
X030412Y018651D01*
X030337Y018605D01*
X030264Y018556D01*
X030193Y018503D01*
X030126Y018447D01*
X030060Y018388D01*
X029998Y018326D01*
X029939Y018260D01*
X029883Y018193D01*
X029830Y018122D01*
X029781Y018049D01*
X029735Y017974D01*
X029693Y017897D01*
X029654Y017818D01*
X029620Y017737D01*
X029589Y017654D01*
X029562Y017570D01*
X029539Y017485D01*
X029520Y017399D01*
X029506Y017312D01*
X029495Y017225D01*
X029489Y017137D01*
X029487Y017049D01*
X029487Y016144D01*
X029486Y016144D02*
X029484Y016090D01*
X029479Y016037D01*
X029470Y015984D01*
X029457Y015932D01*
X029441Y015880D01*
X029421Y015830D01*
X029398Y015782D01*
X029371Y015735D01*
X029342Y015690D01*
X029309Y015647D01*
X029274Y015607D01*
X029236Y015569D01*
X029196Y015534D01*
X029153Y015501D01*
X029108Y015472D01*
X029061Y015445D01*
X029013Y015422D01*
X028963Y015402D01*
X028911Y015386D01*
X028859Y015373D01*
X028806Y015364D01*
X028753Y015359D01*
X028699Y015357D01*
X023581Y015357D01*
X023527Y015359D01*
X023474Y015364D01*
X023421Y015373D01*
X023369Y015386D01*
X023317Y015402D01*
X023267Y015422D01*
X023219Y015445D01*
X023172Y015472D01*
X023127Y015501D01*
X023084Y015534D01*
X023044Y015569D01*
X023006Y015607D01*
X022971Y015647D01*
X022938Y015690D01*
X022909Y015735D01*
X022882Y015782D01*
X022859Y015830D01*
X022839Y015880D01*
X022823Y015932D01*
X022810Y015984D01*
X022801Y016037D01*
X022796Y016090D01*
X022794Y016144D01*
X028119Y019624D02*
X028121Y019674D01*
X028127Y019725D01*
X028137Y019774D01*
X028150Y019823D01*
X028168Y019870D01*
X028189Y019916D01*
X028214Y019960D01*
X028242Y020002D01*
X028273Y020042D01*
X028307Y020079D01*
X028344Y020113D01*
X028384Y020144D01*
X028426Y020172D01*
X028470Y020197D01*
X028516Y020218D01*
X028563Y020236D01*
X028612Y020249D01*
X028661Y020259D01*
X028712Y020265D01*
X028762Y020267D01*
X028812Y020265D01*
X028863Y020259D01*
X028912Y020249D01*
X028961Y020236D01*
X029008Y020218D01*
X029054Y020197D01*
X029098Y020172D01*
X029140Y020144D01*
X029180Y020113D01*
X029217Y020079D01*
X029251Y020042D01*
X029282Y020002D01*
X029310Y019960D01*
X029335Y019916D01*
X029356Y019870D01*
X029374Y019823D01*
X029387Y019774D01*
X029397Y019725D01*
X029403Y019674D01*
X029405Y019624D01*
X029403Y019574D01*
X029397Y019523D01*
X029387Y019474D01*
X029374Y019425D01*
X029356Y019378D01*
X029335Y019332D01*
X029310Y019288D01*
X029282Y019246D01*
X029251Y019206D01*
X029217Y019169D01*
X029180Y019135D01*
X029140Y019104D01*
X029098Y019076D01*
X029054Y019051D01*
X029008Y019030D01*
X028961Y019012D01*
X028912Y018999D01*
X028863Y018989D01*
X028812Y018983D01*
X028762Y018981D01*
X028712Y018983D01*
X028661Y018989D01*
X028612Y018999D01*
X028563Y019012D01*
X028516Y019030D01*
X028470Y019051D01*
X028426Y019076D01*
X028384Y019104D01*
X028344Y019135D01*
X028307Y019169D01*
X028273Y019206D01*
X028242Y019246D01*
X028214Y019288D01*
X028189Y019332D01*
X028168Y019378D01*
X028150Y019425D01*
X028137Y019474D01*
X028127Y019523D01*
X028121Y019574D01*
X028119Y019624D01*
X030746Y022286D02*
X030748Y022313D01*
X030754Y022340D01*
X030763Y022366D01*
X030776Y022390D01*
X030792Y022413D01*
X030811Y022432D01*
X030833Y022449D01*
X030857Y022463D01*
X030882Y022473D01*
X030909Y022480D01*
X030936Y022483D01*
X030964Y022482D01*
X030991Y022477D01*
X031017Y022469D01*
X031041Y022457D01*
X031064Y022441D01*
X031085Y022423D01*
X031102Y022402D01*
X031117Y022378D01*
X031128Y022353D01*
X031136Y022327D01*
X031140Y022300D01*
X031140Y022272D01*
X031136Y022245D01*
X031128Y022219D01*
X031117Y022194D01*
X031102Y022170D01*
X031085Y022149D01*
X031064Y022131D01*
X031042Y022115D01*
X031017Y022103D01*
X030991Y022095D01*
X030964Y022090D01*
X030936Y022089D01*
X030909Y022092D01*
X030882Y022099D01*
X030857Y022109D01*
X030833Y022123D01*
X030811Y022140D01*
X030792Y022159D01*
X030776Y022182D01*
X030763Y022206D01*
X030754Y022232D01*
X030748Y022259D01*
X030746Y022286D01*
X030746Y024018D02*
X030748Y024045D01*
X030754Y024072D01*
X030763Y024098D01*
X030776Y024122D01*
X030792Y024145D01*
X030811Y024164D01*
X030833Y024181D01*
X030857Y024195D01*
X030882Y024205D01*
X030909Y024212D01*
X030936Y024215D01*
X030964Y024214D01*
X030991Y024209D01*
X031017Y024201D01*
X031041Y024189D01*
X031064Y024173D01*
X031085Y024155D01*
X031102Y024134D01*
X031117Y024110D01*
X031128Y024085D01*
X031136Y024059D01*
X031140Y024032D01*
X031140Y024004D01*
X031136Y023977D01*
X031128Y023951D01*
X031117Y023926D01*
X031102Y023902D01*
X031085Y023881D01*
X031064Y023863D01*
X031042Y023847D01*
X031017Y023835D01*
X030991Y023827D01*
X030964Y023822D01*
X030936Y023821D01*
X030909Y023824D01*
X030882Y023831D01*
X030857Y023841D01*
X030833Y023855D01*
X030811Y023872D01*
X030792Y023891D01*
X030776Y023914D01*
X030763Y023938D01*
X030754Y023964D01*
X030748Y023991D01*
X030746Y024018D01*
X028163Y004408D02*
X028165Y004458D01*
X028171Y004509D01*
X028181Y004558D01*
X028194Y004607D01*
X028212Y004654D01*
X028233Y004700D01*
X028258Y004744D01*
X028286Y004786D01*
X028317Y004826D01*
X028351Y004863D01*
X028388Y004897D01*
X028428Y004928D01*
X028470Y004956D01*
X028514Y004981D01*
X028560Y005002D01*
X028607Y005020D01*
X028656Y005033D01*
X028705Y005043D01*
X028756Y005049D01*
X028806Y005051D01*
X028856Y005049D01*
X028907Y005043D01*
X028956Y005033D01*
X029005Y005020D01*
X029052Y005002D01*
X029098Y004981D01*
X029142Y004956D01*
X029184Y004928D01*
X029224Y004897D01*
X029261Y004863D01*
X029295Y004826D01*
X029326Y004786D01*
X029354Y004744D01*
X029379Y004700D01*
X029400Y004654D01*
X029418Y004607D01*
X029431Y004558D01*
X029441Y004509D01*
X029447Y004458D01*
X029449Y004408D01*
X029447Y004358D01*
X029441Y004307D01*
X029431Y004258D01*
X029418Y004209D01*
X029400Y004162D01*
X029379Y004116D01*
X029354Y004072D01*
X029326Y004030D01*
X029295Y003990D01*
X029261Y003953D01*
X029224Y003919D01*
X029184Y003888D01*
X029142Y003860D01*
X029098Y003835D01*
X029052Y003814D01*
X029005Y003796D01*
X028956Y003783D01*
X028907Y003773D01*
X028856Y003767D01*
X028806Y003765D01*
X028756Y003767D01*
X028705Y003773D01*
X028656Y003783D01*
X028607Y003796D01*
X028560Y003814D01*
X028514Y003835D01*
X028470Y003860D01*
X028428Y003888D01*
X028388Y003919D01*
X028351Y003953D01*
X028317Y003990D01*
X028286Y004030D01*
X028258Y004072D01*
X028233Y004116D01*
X028212Y004162D01*
X028194Y004209D01*
X028181Y004258D01*
X028171Y004307D01*
X028165Y004358D01*
X028163Y004408D01*
X006420Y043762D02*
X006422Y043789D01*
X006428Y043816D01*
X006437Y043842D01*
X006450Y043866D01*
X006466Y043889D01*
X006485Y043908D01*
X006507Y043925D01*
X006531Y043939D01*
X006556Y043949D01*
X006583Y043956D01*
X006610Y043959D01*
X006638Y043958D01*
X006665Y043953D01*
X006691Y043945D01*
X006715Y043933D01*
X006738Y043917D01*
X006759Y043899D01*
X006776Y043878D01*
X006791Y043854D01*
X006802Y043829D01*
X006810Y043803D01*
X006814Y043776D01*
X006814Y043748D01*
X006810Y043721D01*
X006802Y043695D01*
X006791Y043670D01*
X006776Y043646D01*
X006759Y043625D01*
X006738Y043607D01*
X006716Y043591D01*
X006691Y043579D01*
X006665Y043571D01*
X006638Y043566D01*
X006610Y043565D01*
X006583Y043568D01*
X006556Y043575D01*
X006531Y043585D01*
X006507Y043599D01*
X006485Y043616D01*
X006466Y043635D01*
X006450Y043658D01*
X006437Y043682D01*
X006428Y043708D01*
X006422Y043735D01*
X006420Y043762D01*
X006420Y045494D02*
X006422Y045521D01*
X006428Y045548D01*
X006437Y045574D01*
X006450Y045598D01*
X006466Y045621D01*
X006485Y045640D01*
X006507Y045657D01*
X006531Y045671D01*
X006556Y045681D01*
X006583Y045688D01*
X006610Y045691D01*
X006638Y045690D01*
X006665Y045685D01*
X006691Y045677D01*
X006715Y045665D01*
X006738Y045649D01*
X006759Y045631D01*
X006776Y045610D01*
X006791Y045586D01*
X006802Y045561D01*
X006810Y045535D01*
X006814Y045508D01*
X006814Y045480D01*
X006810Y045453D01*
X006802Y045427D01*
X006791Y045402D01*
X006776Y045378D01*
X006759Y045357D01*
X006738Y045339D01*
X006716Y045323D01*
X006691Y045311D01*
X006665Y045303D01*
X006638Y045298D01*
X006610Y045297D01*
X006583Y045300D01*
X006556Y045307D01*
X006531Y045317D01*
X006507Y045331D01*
X006485Y045348D01*
X006466Y045367D01*
X006450Y045390D01*
X006437Y045414D01*
X006428Y045440D01*
X006422Y045467D01*
X006420Y045494D01*
X008155Y048156D02*
X008157Y048206D01*
X008163Y048257D01*
X008173Y048306D01*
X008186Y048355D01*
X008204Y048402D01*
X008225Y048448D01*
X008250Y048492D01*
X008278Y048534D01*
X008309Y048574D01*
X008343Y048611D01*
X008380Y048645D01*
X008420Y048676D01*
X008462Y048704D01*
X008506Y048729D01*
X008552Y048750D01*
X008599Y048768D01*
X008648Y048781D01*
X008697Y048791D01*
X008748Y048797D01*
X008798Y048799D01*
X008848Y048797D01*
X008899Y048791D01*
X008948Y048781D01*
X008997Y048768D01*
X009044Y048750D01*
X009090Y048729D01*
X009134Y048704D01*
X009176Y048676D01*
X009216Y048645D01*
X009253Y048611D01*
X009287Y048574D01*
X009318Y048534D01*
X009346Y048492D01*
X009371Y048448D01*
X009392Y048402D01*
X009410Y048355D01*
X009423Y048306D01*
X009433Y048257D01*
X009439Y048206D01*
X009441Y048156D01*
X009439Y048106D01*
X009433Y048055D01*
X009423Y048006D01*
X009410Y047957D01*
X009392Y047910D01*
X009371Y047864D01*
X009346Y047820D01*
X009318Y047778D01*
X009287Y047738D01*
X009253Y047701D01*
X009216Y047667D01*
X009176Y047636D01*
X009134Y047608D01*
X009090Y047583D01*
X009044Y047562D01*
X008997Y047544D01*
X008948Y047531D01*
X008899Y047521D01*
X008848Y047515D01*
X008798Y047513D01*
X008748Y047515D01*
X008697Y047521D01*
X008648Y047531D01*
X008599Y047544D01*
X008552Y047562D01*
X008506Y047583D01*
X008462Y047608D01*
X008420Y047636D01*
X008380Y047667D01*
X008343Y047701D01*
X008309Y047738D01*
X008278Y047778D01*
X008250Y047820D01*
X008225Y047864D01*
X008204Y047910D01*
X008186Y047957D01*
X008173Y048006D01*
X008163Y048055D01*
X008157Y048106D01*
X008155Y048156D01*
X008111Y063372D02*
X008113Y063422D01*
X008119Y063473D01*
X008129Y063522D01*
X008142Y063571D01*
X008160Y063618D01*
X008181Y063664D01*
X008206Y063708D01*
X008234Y063750D01*
X008265Y063790D01*
X008299Y063827D01*
X008336Y063861D01*
X008376Y063892D01*
X008418Y063920D01*
X008462Y063945D01*
X008508Y063966D01*
X008555Y063984D01*
X008604Y063997D01*
X008653Y064007D01*
X008704Y064013D01*
X008754Y064015D01*
X008804Y064013D01*
X008855Y064007D01*
X008904Y063997D01*
X008953Y063984D01*
X009000Y063966D01*
X009046Y063945D01*
X009090Y063920D01*
X009132Y063892D01*
X009172Y063861D01*
X009209Y063827D01*
X009243Y063790D01*
X009274Y063750D01*
X009302Y063708D01*
X009327Y063664D01*
X009348Y063618D01*
X009366Y063571D01*
X009379Y063522D01*
X009389Y063473D01*
X009395Y063422D01*
X009397Y063372D01*
X009395Y063322D01*
X009389Y063271D01*
X009379Y063222D01*
X009366Y063173D01*
X009348Y063126D01*
X009327Y063080D01*
X009302Y063036D01*
X009274Y062994D01*
X009243Y062954D01*
X009209Y062917D01*
X009172Y062883D01*
X009132Y062852D01*
X009090Y062824D01*
X009046Y062799D01*
X009000Y062778D01*
X008953Y062760D01*
X008904Y062747D01*
X008855Y062737D01*
X008804Y062731D01*
X008754Y062729D01*
X008704Y062731D01*
X008653Y062737D01*
X008604Y062747D01*
X008555Y062760D01*
X008508Y062778D01*
X008462Y062799D01*
X008418Y062824D01*
X008376Y062852D01*
X008336Y062883D01*
X008299Y062917D01*
X008265Y062954D01*
X008234Y062994D01*
X008206Y063036D01*
X008181Y063080D01*
X008160Y063126D01*
X008142Y063173D01*
X008129Y063222D01*
X008119Y063271D01*
X008113Y063322D01*
X008111Y063372D01*
X029487Y065947D02*
X029489Y065859D01*
X029495Y065771D01*
X029506Y065684D01*
X029520Y065597D01*
X029539Y065511D01*
X029562Y065426D01*
X029589Y065342D01*
X029620Y065259D01*
X029654Y065178D01*
X029693Y065099D01*
X029735Y065022D01*
X029781Y064947D01*
X029830Y064874D01*
X029883Y064803D01*
X029939Y064736D01*
X029998Y064670D01*
X030060Y064608D01*
X030126Y064549D01*
X030193Y064493D01*
X030264Y064440D01*
X030337Y064391D01*
X030412Y064345D01*
X030489Y064303D01*
X030568Y064264D01*
X030649Y064230D01*
X030732Y064199D01*
X030816Y064172D01*
X030901Y064149D01*
X030987Y064130D01*
X031074Y064116D01*
X031161Y064105D01*
X031249Y064099D01*
X031337Y064097D01*
M02*
