%
M48
M72
T01C0.0130
T02C0.0354
T03C0.0394
T04C0.0400
T05C0.0512
T06C0.1285
%
T01
X4924Y4471
X4924Y6439
X4924Y8408
X4924Y10376
X4924Y12345
X4924Y13920
X6321Y16282
X6400Y17483
X7739Y16203
X8369Y17069
X9274Y16223
X8073Y14707
X7286Y13920
X8861Y11557
X10042Y13920
X11223Y16675
X12404Y17857
X13585Y16675
X13624Y15612
X12935Y15494
X12798Y13920
X12798Y11557
X13585Y8408
X12404Y4077
X14766Y4077
X15002Y2896
X15002Y2128
X14766Y534
X16577Y553
X16577Y1006
X16577Y1400
X16577Y1794
X17601Y2187
X16538Y3762
X16538Y4156
X18014Y5986
X16735Y7620
X16735Y9983
X16735Y12345
X14412Y15612
X12739Y19923
X12404Y19923
X12384Y20770
X12719Y20770
X13467Y20888
X13703Y21124
X14117Y20750
X13880Y20514
X11420Y24215
X10632Y24136
X10239Y23014
X9628Y22423
X9766Y20357
X8467Y19038
X8054Y22246
X7817Y24668
X7817Y25002
X7817Y25337
X7817Y25671
X7030Y25691
X6971Y26538
X7561Y26794
X7975Y28388
X8861Y30160
X9195Y30219
X9353Y29923
X9687Y30022
X9786Y29687
X10121Y29805
X10455Y29727
X10239Y29471
X10632Y31242
X10514Y32227
X9865Y32227
X9924Y31892
X9668Y31656
X9333Y31557
X8998Y31754
X8861Y31439
X8349Y31105
X7857Y31872
X9235Y34983
X9786Y34549
X9569Y32640
X9432Y31990
X11203Y32325
X11203Y32719
X12187Y32679
X12227Y33191
X12128Y31301
X12325Y30494
X12561Y29274
X12306Y28782
X12069Y28546
X11833Y28309
X12424Y27679
X12660Y27916
X12916Y28171
X13073Y27463
X13546Y29471
X13546Y29805
X13880Y29471
X13211Y30475
X13073Y29963
X14392Y30416
X13644Y35219
X11321Y34668
X10278Y36085
X10140Y36912
X9117Y37935
X8900Y38231
X8644Y37935
X8329Y38053
X8605Y37325
X8290Y37187
X8703Y36380
X7817Y37345
X7384Y37601
X8369Y40120
X8802Y40534
X9372Y40297
X9176Y41734
X8841Y42581
X7955Y42266
X7758Y41085
X7325Y40849
X7581Y40396
X8880Y43821
X8880Y44156
X8959Y44490
X8309Y44195
X9491Y44274
X9491Y43939
X9432Y44746
X9550Y45101
X10081Y45770
X10869Y46085
X11065Y45002
X11105Y44392
X10613Y43211
X10278Y43171
X10121Y42699
X10219Y41479
X10180Y41046
X11046Y42069
X10809Y42463
X12109Y43762
X12463Y43900
X12463Y44648
X12109Y44648
X12286Y45534
X12286Y46085
X11735Y46085
X11735Y45534
X12437Y46972
X12857Y46774
X13093Y45514
X13073Y45160
X13644Y45160
X13789Y45459
X13605Y44825
X14148Y46140
X14372Y47679
X12837Y48772
X10239Y49077
X10239Y47109
X13684Y43014
X13979Y39904
X11243Y39313
X6459Y44825
X5849Y44727
X5317Y45022
X5077Y53860
X5077Y55435
X5077Y57404
X5077Y59372
X5077Y61341
X5077Y63309
X6652Y63703
X8621Y65278
X8621Y67246
X10589Y67246
X12558Y67246
X14526Y67246
X16534Y67246
X16534Y66774
X17558Y65593
X17538Y64431
X16534Y64018
X16534Y65199
X18758Y65593
X19959Y65593
X20983Y65986
X20983Y66380
X20983Y66774
X20983Y67227
X22794Y67246
X22558Y65652
X22558Y64884
X22794Y63703
X21022Y63624
X21022Y64018
X19546Y61794
X20825Y60160
X20825Y57797
X20825Y55435
X23148Y52168
X23935Y52168
X23975Y51105
X24624Y52286
X24762Y53860
X24762Y56223
X23975Y59372
X25156Y63703
X24762Y67246
X26731Y67246
X28699Y67246
X29093Y65278
X27518Y63703
X27518Y59372
X28699Y56223
X27518Y53860
X28286Y51557
X29191Y50711
X29821Y51577
X29487Y53073
X30274Y53860
X31239Y51498
X31160Y50297
X32262Y47502
X32026Y45337
X31691Y44392
X31278Y44825
X32321Y42758
X30530Y42089
X29743Y42109
X29743Y42443
X29743Y42778
X29743Y43112
X28857Y43073
X28857Y42719
X28857Y42364
X28857Y42030
X27971Y42994
X26928Y43644
X26140Y43565
X27321Y44766
X27932Y45357
X27794Y47423
X29093Y48742
X29506Y45534
X30589Y41242
X29998Y40986
X29585Y39392
X28699Y37620
X28365Y37561
X28207Y37857
X27872Y37758
X27774Y38093
X27439Y37975
X27105Y38053
X27321Y38309
X26928Y36538
X27046Y35553
X27695Y35553
X27636Y35888
X27892Y36124
X28227Y36223
X28561Y36026
X28699Y36341
X29211Y36675
X29703Y35908
X28325Y32797
X27774Y33231
X27991Y35140
X28128Y35790
X26357Y35455
X26357Y35061
X25372Y35101
X25333Y34589
X25432Y36479
X25235Y37286
X24998Y38506
X25254Y38998
X25491Y39234
X25727Y39471
X25136Y40101
X24900Y39864
X24644Y39609
X24487Y40317
X24014Y38309
X24014Y37975
X23680Y38309
X24349Y37305
X24487Y37817
X23168Y37364
X23916Y32561
X26239Y33112
X27282Y31695
X27420Y30868
X28443Y29845
X28660Y29549
X28916Y29845
X29231Y29727
X28955Y30455
X29270Y30593
X28857Y31400
X29743Y30435
X30176Y30179
X29191Y27660
X28758Y27246
X28187Y27483
X28384Y26046
X28719Y25199
X29605Y25514
X29802Y26695
X30235Y26931
X29979Y27384
X28680Y23959
X28680Y23624
X28601Y23290
X29250Y23585
X28069Y23506
X28069Y23841
X28128Y23034
X28010Y22679
X27479Y22010
X26691Y21695
X26495Y22778
X26455Y23388
X26947Y24569
X27282Y24609
X27439Y25081
X27341Y26301
X27380Y26734
X26514Y25711
X26750Y25317
X25451Y24018
X25097Y23880
X25097Y23132
X25451Y23132
X25274Y22246
X25274Y21695
X25825Y21695
X25825Y22246
X25123Y20808
X24703Y21006
X24467Y22266
X24487Y22620
X23916Y22620
X23771Y22321
X23955Y22955
X23412Y21640
X23187Y20101
X24723Y19008
X27321Y18703
X27321Y20671
X23876Y24766
X23581Y27876
X26317Y28467
X31101Y22955
X31711Y23053
X32243Y22758
X32483Y13920
X32483Y12345
X32483Y10376
X32483Y8408
X32483Y6439
X32483Y4471
X30908Y4077
X28939Y2502
X28939Y534
X26971Y534
X25002Y534
X23034Y534
X21026Y534
X21026Y1006
X20002Y2187
X20022Y3349
X21026Y3762
X21026Y2581
X18802Y2187
X19589Y5986
X19491Y7620
X19491Y9983
X19491Y12345
X20278Y13920
X22640Y13920
X22640Y11557
X24215Y8408
X26577Y11557
X25396Y13920
X27758Y8408
X29333Y11557
X28939Y13920
X30514Y8408
X27758Y4077
X25396Y4077
X23034Y4077
X12798Y534
X10829Y534
X8861Y534
X8467Y2502
X10042Y4077
X10042Y8408
X6892Y8408
X6498Y4077
X5298Y20278
X5534Y22443
X5869Y23388
X6282Y22955
X5239Y25022
X6498Y28486
X8703Y25750
X8703Y25416
X8703Y25061
X8703Y24707
X9589Y24786
X23443Y47030
X23680Y47266
X24093Y46892
X23857Y46656
X24841Y47010
X25176Y47010
X25156Y47857
X24821Y47857
X25156Y49923
X26337Y51105
X30668Y59372
X32636Y59372
X32636Y57404
X32636Y55435
X32636Y53860
X32636Y61341
X32636Y63309
X31061Y63703
X18069Y60160
X17971Y61794
X18069Y57797
X18069Y55435
X17282Y53860
X14920Y53860
X14920Y56223
X13345Y59372
X10983Y56223
X12164Y53860
X9802Y59372
X8227Y56223
X8621Y53860
X7046Y59372
X9802Y63703
X12164Y63703
X14526Y63703
X31061Y39294
T02
X24762Y44018
X24762Y44805
X12798Y50534
X12798Y51321
X12798Y23762
X12798Y22975
X24762Y17246
X24762Y16459
T03
X26455Y16164
X28227Y16164
X30943Y22286
X30943Y24018
X32243Y26597
X32243Y28368
X32243Y30534
X32243Y32305
X32243Y34471
X32243Y36242
X32243Y38408
X32243Y40179
X11105Y51616
X9333Y51616
X6617Y45494
X6617Y43762
X5317Y41183
X5317Y39412
X5317Y37246
X5317Y35475
X5317Y33309
X5317Y31538
X5317Y29372
X5317Y27601
T04
X9042Y27199
X9042Y28199
X10042Y28199
X10042Y27199
X11042Y27199
X11042Y28199
X26518Y39581
X26518Y40581
X27518Y40581
X27518Y39581
X28518Y39581
X28518Y40581
T05
X31262Y40671
X31262Y37916
X31262Y36734
X31262Y33979
X31262Y32797
X31262Y30042
X31262Y28860
X31262Y26105
X28719Y17144
X25963Y17144
X11597Y50636
X8841Y50636
X6298Y41675
X6298Y38920
X6298Y37738
X6298Y34983
X6298Y33801
X6298Y31046
X6298Y29864
X6298Y27109
T06
X8798Y48156
X8754Y63372
X28762Y63372
X28762Y19624
X28806Y4408
X8798Y4408
M30
