G75*
G70*
%OFA0B0*%
%FSLAX24Y24*%
%IPPOS*%
%LPD*%
%AMOC8*
5,1,8,0,0,1.08239X$1,22.5*
%
%ADD10C,0.1365*%
%ADD11C,0.0474*%
%ADD12R,0.0611X0.0611*%
%ADD13C,0.0611*%
%ADD14C,0.0940*%
%ADD15C,0.0740*%
%ADD16R,0.0820X0.0820*%
%ADD17OC8,0.0820*%
D10*
X008798Y004408D03*
X028806Y004408D03*
X028762Y019624D03*
X008798Y048156D03*
X008754Y063372D03*
X028762Y063372D03*
D11*
X030943Y024018D03*
X030943Y022286D03*
X006617Y043762D03*
X006617Y045494D03*
D12*
X012798Y050534D03*
X024762Y044805D03*
X012798Y022975D03*
X024762Y017246D03*
D13*
X024762Y016459D03*
X012798Y023762D03*
X024762Y044018D03*
X012798Y051321D03*
D14*
X011597Y050636D03*
X008841Y050636D03*
X006298Y041675D03*
X006298Y038920D03*
X006298Y037738D03*
X006298Y034983D03*
X006298Y033801D03*
X006298Y031046D03*
X006298Y029864D03*
X006298Y027109D03*
X025963Y017144D03*
X028719Y017144D03*
X031262Y026105D03*
X031262Y028860D03*
X031262Y030042D03*
X031262Y032797D03*
X031262Y033979D03*
X031262Y036734D03*
X031262Y037916D03*
X031262Y040671D03*
D15*
X032243Y040179D03*
X032243Y038408D03*
X032243Y036242D03*
X032243Y034471D03*
X032243Y032305D03*
X032243Y030534D03*
X032243Y028368D03*
X032243Y026597D03*
X028227Y016164D03*
X026455Y016164D03*
X011105Y051616D03*
X009333Y051616D03*
X005317Y041183D03*
X005317Y039412D03*
X005317Y037246D03*
X005317Y035475D03*
X005317Y033309D03*
X005317Y031538D03*
X005317Y029372D03*
X005317Y027601D03*
D16*
X009042Y027199D03*
X028518Y040581D03*
D17*
X028518Y039581D03*
X027518Y039581D03*
X027518Y040581D03*
X026518Y040581D03*
X026518Y039581D03*
X011042Y028199D03*
X011042Y027199D03*
X010042Y027199D03*
X010042Y028199D03*
X009042Y028199D03*
M02*
