G75*
G70*
%OFA0B0*%
%FSLAX24Y24*%
%IPPOS*%
%LPD*%
%AMOC8*
5,1,8,0,0,1.08239X$1,22.5*
%
%ADD10R,0.0787X0.0433*%
%ADD11R,0.0433X0.0787*%
%ADD12R,0.0110X0.0280*%
%ADD13C,0.0110*%
%ADD14R,0.0280X0.0110*%
%ADD15R,0.1063X0.1063*%
%ADD16R,0.0236X0.0079*%
%ADD17R,0.0661X0.0866*%
%ADD18R,0.0512X0.0591*%
%ADD19R,0.0433X0.0394*%
%ADD20R,0.0394X0.0433*%
%ADD21R,0.0591X0.0512*%
%ADD22R,0.0984X0.0787*%
%ADD23R,0.0906X0.0197*%
%ADD24R,0.0157X0.0315*%
%ADD25R,0.0276X0.0197*%
%ADD26R,0.0591X0.0276*%
%ADD27R,0.0591X0.0394*%
%ADD28R,0.0276X0.0591*%
%ADD29R,0.0315X0.0248*%
%ADD30R,0.0354X0.0591*%
%ADD31R,0.0591X0.0354*%
%ADD32R,0.0089X0.0394*%
%ADD33R,0.0488X0.0315*%
%ADD34R,0.0984X0.0374*%
%ADD35R,0.0866X0.0453*%
%ADD36R,0.0453X0.0591*%
%ADD37R,0.0472X0.0457*%
%ADD38R,0.0492X0.0457*%
%ADD39C,0.0118*%
%ADD40C,0.0236*%
%ADD41R,0.0551X0.0118*%
%ADD42R,0.0118X0.0551*%
%ADD43R,0.0500X0.0250*%
%ADD44R,0.0900X0.0960*%
D10*
X013054Y040632D03*
X013054Y042522D03*
X011617Y047227D03*
X011617Y049116D03*
X024506Y027148D03*
X024506Y025258D03*
X025943Y020553D03*
X025943Y018664D03*
D11*
X026888Y019609D03*
X024998Y019609D03*
X025451Y026203D03*
X023561Y026203D03*
X013998Y041577D03*
X012109Y041577D03*
X012561Y048171D03*
X010672Y048171D03*
D12*
X011519Y046614D03*
X011715Y046614D03*
X011912Y046614D03*
X012109Y046614D03*
X012306Y046614D03*
X012503Y046614D03*
X012502Y045005D03*
X012305Y045005D03*
X012108Y045005D03*
X011911Y045005D03*
X011715Y045005D03*
X011518Y045005D03*
X025058Y022775D03*
X025255Y022775D03*
X025452Y022775D03*
X025648Y022775D03*
X025845Y022775D03*
X026042Y022775D03*
X026041Y021166D03*
X025845Y021166D03*
X025648Y021166D03*
X025451Y021166D03*
X025254Y021166D03*
X025057Y021166D03*
D13*
X025057Y021304D01*
X025254Y021304D02*
X025254Y021166D01*
X025451Y021166D02*
X025451Y021304D01*
X025648Y021304D02*
X025648Y021166D01*
X025845Y021166D02*
X025845Y021304D01*
X026041Y021304D02*
X026041Y021166D01*
X026216Y021478D02*
X026354Y021478D01*
X026354Y021675D02*
X026216Y021675D01*
X026216Y021872D02*
X026354Y021872D01*
X026354Y022069D02*
X026216Y022069D01*
X026216Y022266D02*
X026354Y022266D01*
X026354Y022462D02*
X026216Y022462D01*
X026042Y022637D02*
X026042Y022775D01*
X025845Y022775D02*
X025845Y022637D01*
X025648Y022637D02*
X025648Y022775D01*
X025452Y022775D02*
X025452Y022637D01*
X025255Y022637D02*
X025255Y022775D01*
X025058Y022775D02*
X025058Y022637D01*
X024883Y022463D02*
X024745Y022463D01*
X024745Y022266D02*
X024883Y022266D01*
X024883Y022070D02*
X024745Y022070D01*
X024745Y021873D02*
X024883Y021873D01*
X024883Y021676D02*
X024745Y021676D01*
X024745Y021479D02*
X024883Y021479D01*
X012502Y045005D02*
X012502Y045143D01*
X012305Y045143D02*
X012305Y045005D01*
X012108Y045005D02*
X012108Y045143D01*
X011911Y045143D02*
X011911Y045005D01*
X011715Y045005D02*
X011715Y045143D01*
X011518Y045143D02*
X011518Y045005D01*
X011344Y045318D02*
X011206Y045318D01*
X011206Y045514D02*
X011344Y045514D01*
X011344Y045711D02*
X011206Y045711D01*
X011206Y045908D02*
X011344Y045908D01*
X011344Y046105D02*
X011206Y046105D01*
X011206Y046302D02*
X011344Y046302D01*
X011519Y046476D02*
X011519Y046614D01*
X011715Y046614D02*
X011715Y046476D01*
X011912Y046476D02*
X011912Y046614D01*
X012109Y046614D02*
X012109Y046476D01*
X012306Y046476D02*
X012306Y046614D01*
X012503Y046614D02*
X012503Y046476D01*
X012677Y046301D02*
X012815Y046301D01*
X012815Y046104D02*
X012677Y046104D01*
X012677Y045907D02*
X012815Y045907D01*
X012815Y045710D02*
X012677Y045710D01*
X012677Y045514D02*
X012815Y045514D01*
X012815Y045317D02*
X012677Y045317D01*
D14*
X012815Y045317D03*
X012815Y045514D03*
X012815Y045710D03*
X012815Y045907D03*
X012815Y046104D03*
X012815Y046301D03*
X011206Y046302D03*
X011206Y046105D03*
X011206Y045908D03*
X011206Y045711D03*
X011206Y045514D03*
X011206Y045318D03*
X024745Y022463D03*
X024745Y022266D03*
X024745Y022070D03*
X024745Y021873D03*
X024745Y021676D03*
X024745Y021479D03*
X026354Y021478D03*
X026354Y021675D03*
X026354Y021872D03*
X026354Y022069D03*
X026354Y022266D03*
X026354Y022462D03*
D15*
X025550Y021971D03*
X012010Y045809D03*
D16*
X011481Y042660D03*
X011481Y042502D03*
X011481Y042345D03*
X011481Y042187D03*
X011481Y042030D03*
X011481Y041872D03*
X010374Y041872D03*
X010374Y042030D03*
X010374Y042187D03*
X010374Y042345D03*
X010374Y042502D03*
X010374Y042660D03*
X026079Y025908D03*
X026079Y025750D03*
X026079Y025593D03*
X026079Y025435D03*
X026079Y025278D03*
X026079Y025120D03*
X027185Y025120D03*
X027185Y025278D03*
X027185Y025435D03*
X027185Y025593D03*
X027185Y025750D03*
X027185Y025908D03*
D17*
X026632Y025514D03*
X010928Y042266D03*
D18*
X011282Y040632D03*
X010534Y040632D03*
X009747Y037148D03*
X008998Y037148D03*
X013211Y043447D03*
X013959Y043447D03*
X023601Y024333D03*
X024349Y024333D03*
X026278Y027148D03*
X027026Y027148D03*
X027813Y030632D03*
X028561Y030632D03*
D19*
X028483Y031301D03*
X028601Y031892D03*
X028621Y032483D03*
X027951Y032483D03*
X027932Y031892D03*
X027813Y031301D03*
X028739Y028998D03*
X028739Y028329D03*
X030077Y028447D03*
X030077Y027778D03*
X030727Y027089D03*
X030097Y026301D03*
X030097Y025632D03*
X031396Y027089D03*
X030195Y029116D03*
X030195Y029786D03*
X030727Y031026D03*
X031396Y031026D03*
X031396Y034963D03*
X030727Y034963D03*
X030097Y037089D03*
X029428Y037089D03*
X030727Y038900D03*
X031396Y038900D03*
X031199Y041656D03*
X030530Y041656D03*
X029487Y040416D03*
X029487Y039746D03*
X026081Y038585D03*
X025412Y038585D03*
X024172Y039943D03*
X024172Y040612D03*
X025215Y033191D03*
X025884Y033191D03*
X025884Y029057D03*
X025884Y028467D03*
X026081Y027876D03*
X025412Y027876D03*
X025215Y028467D03*
X025215Y029057D03*
X026317Y026518D03*
X026987Y026518D03*
X027715Y025711D03*
X028384Y025711D03*
X027656Y022837D03*
X027656Y022325D03*
X026987Y022325D03*
X026987Y022837D03*
X026593Y024490D03*
X025924Y024490D03*
X024782Y020593D03*
X024113Y020593D03*
X020672Y006971D03*
X020672Y006301D03*
X021459Y005593D03*
X021459Y004923D03*
X016085Y002896D03*
X015416Y002896D03*
X015416Y002109D03*
X016085Y002109D03*
X009195Y017463D03*
X009195Y018053D03*
X008526Y018053D03*
X008526Y017463D03*
X006439Y017857D03*
X006439Y018447D03*
X005770Y018447D03*
X005770Y017857D03*
X006361Y026124D03*
X007030Y026124D03*
X008073Y027364D03*
X008073Y028034D03*
X006833Y028880D03*
X006164Y028880D03*
X007463Y030691D03*
X008132Y030691D03*
X006833Y032817D03*
X006164Y032817D03*
X006164Y036754D03*
X006833Y036754D03*
X007365Y037994D03*
X007365Y038664D03*
X007483Y039333D03*
X007483Y040002D03*
X006833Y040691D03*
X007463Y041479D03*
X007463Y042148D03*
X006164Y040691D03*
X008821Y039451D03*
X008821Y038782D03*
X009077Y036479D03*
X008959Y035888D03*
X008939Y035297D03*
X009609Y035297D03*
X009628Y035888D03*
X009747Y036479D03*
X011479Y039904D03*
X011676Y039313D03*
X011676Y038723D03*
X012345Y038723D03*
X012345Y039313D03*
X012148Y039904D03*
X011243Y041262D03*
X010573Y041262D03*
X009845Y042069D03*
X009176Y042069D03*
X009904Y044943D03*
X009904Y045455D03*
X010573Y045455D03*
X010573Y044943D03*
X010967Y043290D03*
X011636Y043290D03*
X012778Y047187D03*
X013447Y047187D03*
X012345Y034589D03*
X011676Y034589D03*
X011479Y029195D03*
X012148Y029195D03*
X013388Y027837D03*
X013388Y027168D03*
X028365Y049727D03*
X028365Y050317D03*
X029034Y050317D03*
X029034Y049727D03*
X031121Y049923D03*
X031121Y049333D03*
X031790Y049333D03*
X031790Y049923D03*
X022144Y064884D03*
X021475Y064884D03*
X021475Y065671D03*
X022144Y065671D03*
X016888Y061479D03*
X016888Y060809D03*
X016101Y062187D03*
X016101Y062857D03*
D20*
X017735Y061341D03*
X018404Y061341D03*
X024428Y051105D03*
X025097Y051105D03*
X025097Y048939D03*
X025097Y048349D03*
X024428Y048349D03*
X024428Y048939D03*
X026928Y044746D03*
X026928Y044077D03*
X027518Y049589D03*
X027518Y050258D03*
X027912Y051164D03*
X027912Y051833D03*
X029487Y051833D03*
X029487Y051164D03*
X031908Y041656D03*
X032577Y041656D03*
X031396Y039687D03*
X030727Y039687D03*
X030117Y036459D03*
X030117Y035790D03*
X030727Y035750D03*
X031396Y035750D03*
X031396Y031813D03*
X030727Y031813D03*
X030727Y027876D03*
X031396Y027876D03*
X028463Y027660D03*
X028463Y027069D03*
X028463Y026479D03*
X027794Y026479D03*
X027794Y027069D03*
X027794Y027660D03*
X027912Y028329D03*
X027912Y028998D03*
X027321Y028998D03*
X026731Y028998D03*
X026731Y028329D03*
X027321Y028329D03*
X026731Y030337D03*
X026731Y031006D03*
X026534Y031833D03*
X025943Y031833D03*
X025943Y032502D03*
X026534Y032502D03*
X027282Y032778D03*
X027282Y032109D03*
X026140Y031006D03*
X025550Y031006D03*
X025550Y030337D03*
X026140Y030337D03*
X025353Y031833D03*
X025353Y032502D03*
X025727Y036892D03*
X025727Y037561D03*
X024093Y039294D03*
X023424Y039294D03*
X014136Y028486D03*
X013467Y028486D03*
X011833Y030219D03*
X011833Y030888D03*
X010278Y035002D03*
X010278Y035671D03*
X011026Y035947D03*
X011617Y035947D03*
X011617Y035278D03*
X011026Y035278D03*
X010829Y036774D03*
X010829Y037443D03*
X011420Y037443D03*
X012010Y037443D03*
X012010Y036774D03*
X011420Y036774D03*
X012207Y035947D03*
X012207Y035278D03*
X010829Y038782D03*
X010239Y038782D03*
X010239Y039451D03*
X010829Y039451D03*
X009766Y040120D03*
X009766Y040711D03*
X009766Y041301D03*
X009097Y041301D03*
X009097Y040711D03*
X009097Y040120D03*
X009648Y039451D03*
X009648Y038782D03*
X006833Y039904D03*
X006164Y039904D03*
X006164Y035967D03*
X006833Y035967D03*
X006833Y032030D03*
X007443Y031990D03*
X007443Y031321D03*
X006164Y032030D03*
X006164Y028093D03*
X006833Y028093D03*
X005652Y026124D03*
X004983Y026124D03*
X010042Y018191D03*
X010042Y017522D03*
X009648Y016616D03*
X009648Y015947D03*
X008073Y015947D03*
X008073Y016616D03*
X010632Y023034D03*
X010632Y023703D03*
X012463Y019431D03*
X012463Y018841D03*
X013132Y018841D03*
X013132Y019431D03*
X013132Y016675D03*
X012463Y016675D03*
X019156Y006439D03*
X019825Y006439D03*
X027636Y020888D03*
X027085Y021124D03*
X027085Y021794D03*
X027636Y021557D03*
X030727Y020199D03*
X030727Y019609D03*
X031396Y019609D03*
X031396Y020199D03*
X023935Y021321D03*
X023935Y021990D03*
X013624Y045790D03*
X013624Y046459D03*
X010475Y046656D03*
X009924Y046892D03*
X009924Y046223D03*
X010475Y045986D03*
X006833Y047581D03*
X006833Y048171D03*
X006164Y048171D03*
X006164Y047581D03*
D21*
X013270Y047797D03*
X013270Y048546D03*
X026140Y044786D03*
X026140Y044038D03*
X024290Y019983D03*
X024290Y019234D03*
X011420Y022994D03*
X011420Y023742D03*
D22*
X007601Y042876D03*
X007601Y046380D03*
X005435Y046380D03*
X005435Y042876D03*
X029959Y024904D03*
X029959Y021400D03*
X032124Y021400D03*
X032124Y024904D03*
D23*
X029920Y023782D03*
X029920Y023467D03*
X029920Y023152D03*
X029920Y022837D03*
X029920Y022522D03*
X007640Y043998D03*
X007640Y044313D03*
X007640Y044628D03*
X007640Y044943D03*
X007640Y045258D03*
D24*
X005487Y047453D03*
X005148Y047453D03*
X005148Y048103D03*
X005487Y048103D03*
X032073Y020327D03*
X032412Y020327D03*
X032412Y019677D03*
X032073Y019677D03*
D25*
X028187Y024766D03*
X028286Y025219D03*
X027774Y025219D03*
X027676Y024766D03*
X009786Y042561D03*
X009884Y043014D03*
X009372Y043014D03*
X009274Y042561D03*
D26*
X017026Y062443D03*
X017026Y062837D03*
X017026Y063231D03*
X017026Y063624D03*
X017026Y064018D03*
X017026Y064412D03*
X017026Y064805D03*
X017026Y065199D03*
X017026Y065593D03*
X017026Y065986D03*
X017026Y066380D03*
X017026Y066774D03*
X020491Y066774D03*
X020491Y066380D03*
X020491Y065986D03*
X020491Y065593D03*
X020491Y065199D03*
X020491Y064805D03*
X020491Y064412D03*
X020491Y064018D03*
X020491Y063624D03*
X020491Y063231D03*
X020491Y062837D03*
X020491Y062443D03*
X020534Y005337D03*
X020534Y004943D03*
X020534Y004549D03*
X020534Y004156D03*
X020534Y003762D03*
X020534Y003368D03*
X020534Y002975D03*
X020534Y002581D03*
X020534Y002187D03*
X020534Y001794D03*
X020534Y001400D03*
X020534Y001006D03*
X017069Y001006D03*
X017069Y001400D03*
X017069Y001794D03*
X017069Y002187D03*
X017069Y002581D03*
X017069Y002975D03*
X017069Y003368D03*
X017069Y003762D03*
X017069Y004156D03*
X017069Y004549D03*
X017069Y004943D03*
X017069Y005337D03*
D27*
X017069Y000553D03*
X020534Y000553D03*
X020491Y067227D03*
X017026Y067227D03*
D28*
X017971Y062286D03*
X018365Y062286D03*
X018758Y062286D03*
X019152Y062286D03*
X019546Y062286D03*
X019589Y005494D03*
X019195Y005494D03*
X018802Y005494D03*
X018408Y005494D03*
X018014Y005494D03*
D29*
X013270Y015120D03*
X013270Y015494D03*
X013270Y015868D03*
X012325Y015868D03*
X012325Y015494D03*
X012325Y015120D03*
X024290Y051912D03*
X024290Y052286D03*
X024290Y052660D03*
X025235Y052660D03*
X025235Y052286D03*
X025235Y051912D03*
D30*
X005514Y015573D03*
X006105Y015573D03*
X006695Y015573D03*
X006695Y016990D03*
X006105Y016990D03*
X005514Y016990D03*
X030865Y050790D03*
X031455Y050790D03*
X032046Y050790D03*
X032046Y052207D03*
X031455Y052207D03*
X030865Y052207D03*
D31*
X030747Y051498D03*
X006813Y016282D03*
D32*
X008546Y016715D03*
X008703Y016715D03*
X008861Y016715D03*
X009018Y016715D03*
X009176Y016715D03*
X009176Y015849D03*
X009018Y015849D03*
X008861Y015849D03*
X008703Y015849D03*
X008546Y015849D03*
X028384Y051065D03*
X028542Y051065D03*
X028699Y051065D03*
X028857Y051065D03*
X029014Y051065D03*
X029014Y051931D03*
X028857Y051931D03*
X028699Y051931D03*
X028542Y051931D03*
X028384Y051931D03*
D33*
X032491Y046244D03*
X032491Y045811D03*
X032491Y045378D03*
X032491Y044945D03*
X032491Y044512D03*
X032491Y044079D03*
X032491Y043646D03*
X032491Y043213D03*
X005069Y024567D03*
X005069Y024134D03*
X005069Y023701D03*
X005069Y023268D03*
X005069Y022835D03*
X005069Y022402D03*
X005069Y021969D03*
X005069Y021536D03*
D34*
X005317Y019825D03*
X032243Y047955D03*
D35*
X032302Y042290D03*
X027782Y047916D03*
X009778Y019864D03*
X005258Y025490D03*
D36*
X010091Y024622D03*
X010091Y021559D03*
X027469Y043158D03*
X027469Y046221D03*
D37*
X027912Y042449D03*
X009648Y025331D03*
D38*
X006105Y025331D03*
X031455Y042449D03*
D39*
X024556Y036046D02*
X024182Y036046D01*
X024182Y035849D02*
X024556Y035849D01*
X024556Y035652D02*
X024182Y035652D01*
X024182Y035455D02*
X024556Y035455D01*
X024556Y035258D02*
X024182Y035258D01*
X024182Y035061D02*
X024556Y035061D01*
X024556Y034864D02*
X024182Y034864D01*
X024182Y034668D02*
X024556Y034668D01*
X024556Y034471D02*
X024182Y034471D01*
X024182Y034274D02*
X024556Y034274D01*
X024556Y034077D02*
X024182Y034077D01*
X024182Y033880D02*
X024556Y033880D01*
X024556Y033683D02*
X024182Y033683D01*
X024182Y033486D02*
X024556Y033486D01*
X024556Y033290D02*
X024182Y033290D01*
X024182Y033093D02*
X024556Y033093D01*
X024556Y032896D02*
X024182Y032896D01*
X024182Y032699D02*
X024556Y032699D01*
X024556Y032502D02*
X024182Y032502D01*
X024182Y032305D02*
X024556Y032305D01*
X024556Y032109D02*
X024182Y032109D01*
X024182Y031912D02*
X024556Y031912D01*
X024556Y031715D02*
X024182Y031715D01*
X024182Y031518D02*
X024556Y031518D01*
X024556Y031321D02*
X024182Y031321D01*
X024182Y031124D02*
X024556Y031124D01*
X024556Y030927D02*
X024182Y030927D01*
X024182Y030731D02*
X024556Y030731D01*
X024556Y030534D02*
X024182Y030534D01*
X024182Y030337D02*
X024556Y030337D01*
X024556Y030140D02*
X024182Y030140D01*
X024182Y029943D02*
X024556Y029943D01*
X024556Y029746D02*
X024182Y029746D01*
X024182Y029549D02*
X024556Y029549D01*
X024556Y029353D02*
X024182Y029353D01*
X024182Y029156D02*
X024556Y029156D01*
X013378Y031734D02*
X013004Y031734D01*
X013004Y031931D02*
X013378Y031931D01*
X013378Y032128D02*
X013004Y032128D01*
X013004Y032325D02*
X013378Y032325D01*
X013378Y032522D02*
X013004Y032522D01*
X013004Y032719D02*
X013378Y032719D01*
X013378Y032916D02*
X013004Y032916D01*
X013004Y033112D02*
X013378Y033112D01*
X013378Y033309D02*
X013004Y033309D01*
X013004Y033506D02*
X013378Y033506D01*
X013378Y033703D02*
X013004Y033703D01*
X013004Y033900D02*
X013378Y033900D01*
X013378Y034097D02*
X013004Y034097D01*
X013004Y034294D02*
X013378Y034294D01*
X013378Y034490D02*
X013004Y034490D01*
X013004Y034687D02*
X013378Y034687D01*
X013378Y034884D02*
X013004Y034884D01*
X013004Y035081D02*
X013378Y035081D01*
X013378Y035278D02*
X013004Y035278D01*
X013004Y035475D02*
X013378Y035475D01*
X013378Y035671D02*
X013004Y035671D01*
X013004Y035868D02*
X013378Y035868D01*
X013378Y036065D02*
X013004Y036065D01*
X013004Y036262D02*
X013378Y036262D01*
X013378Y036459D02*
X013004Y036459D01*
X013004Y036656D02*
X013378Y036656D01*
X013378Y036853D02*
X013004Y036853D01*
X013004Y037049D02*
X013378Y037049D01*
X013378Y037246D02*
X013004Y037246D01*
X013004Y037443D02*
X013378Y037443D01*
X013378Y037640D02*
X013004Y037640D01*
X013004Y037837D02*
X013378Y037837D01*
X013378Y038034D02*
X013004Y038034D01*
X013004Y038231D02*
X013378Y038231D01*
X013378Y038427D02*
X013004Y038427D01*
X013004Y038624D02*
X013378Y038624D01*
D40*
X014303Y039117D02*
X014303Y039589D01*
X014303Y039117D02*
X013949Y039117D01*
X013949Y039589D01*
X014303Y039589D01*
X014303Y039352D02*
X013949Y039352D01*
X013949Y039587D02*
X014303Y039587D01*
X014303Y031242D02*
X014303Y030770D01*
X013949Y030770D01*
X013949Y031242D01*
X014303Y031242D01*
X014303Y031005D02*
X013949Y031005D01*
X013949Y031240D02*
X014303Y031240D01*
X023257Y028663D02*
X023257Y028191D01*
X023257Y028663D02*
X023611Y028663D01*
X023611Y028191D01*
X023257Y028191D01*
X023257Y028426D02*
X023611Y028426D01*
X023611Y028661D02*
X023257Y028661D01*
X023257Y036538D02*
X023257Y037010D01*
X023611Y037010D01*
X023611Y036538D01*
X023257Y036538D01*
X023257Y036773D02*
X023611Y036773D01*
X023611Y037008D02*
X023257Y037008D01*
D41*
X025868Y036457D03*
X025868Y036257D03*
X025868Y036057D03*
X025868Y035857D03*
X025868Y035657D03*
X025868Y035457D03*
X025868Y035257D03*
X025868Y035057D03*
X025868Y034857D03*
X025868Y034657D03*
X025868Y034457D03*
X025868Y034257D03*
X029168Y034257D03*
X029168Y034457D03*
X029168Y034657D03*
X029168Y034857D03*
X029168Y035057D03*
X029168Y035257D03*
X029168Y035457D03*
X029168Y035657D03*
X029168Y035857D03*
X029168Y036057D03*
X029168Y036257D03*
X029168Y036457D03*
X011692Y033523D03*
X011692Y033323D03*
X011692Y033123D03*
X011692Y032923D03*
X011692Y032723D03*
X011692Y032523D03*
X011692Y032323D03*
X011692Y032123D03*
X011692Y031923D03*
X011692Y031723D03*
X011692Y031523D03*
X011692Y031323D03*
X008392Y031323D03*
X008392Y031523D03*
X008392Y031723D03*
X008392Y031923D03*
X008392Y032123D03*
X008392Y032323D03*
X008392Y032523D03*
X008392Y032723D03*
X008392Y032923D03*
X008392Y033123D03*
X008392Y033323D03*
X008392Y033523D03*
D42*
X008942Y034073D03*
X009142Y034073D03*
X009342Y034073D03*
X009542Y034073D03*
X009742Y034073D03*
X009942Y034073D03*
X010142Y034073D03*
X010342Y034073D03*
X010542Y034073D03*
X010742Y034073D03*
X010942Y034073D03*
X011142Y034073D03*
X011142Y030773D03*
X010942Y030773D03*
X010742Y030773D03*
X010542Y030773D03*
X010342Y030773D03*
X010142Y030773D03*
X009942Y030773D03*
X009742Y030773D03*
X009542Y030773D03*
X009342Y030773D03*
X009142Y030773D03*
X008942Y030773D03*
X026418Y033707D03*
X026618Y033707D03*
X026818Y033707D03*
X027018Y033707D03*
X027218Y033707D03*
X027418Y033707D03*
X027618Y033707D03*
X027818Y033707D03*
X028018Y033707D03*
X028218Y033707D03*
X028418Y033707D03*
X028618Y033707D03*
X028618Y037007D03*
X028418Y037007D03*
X028218Y037007D03*
X028018Y037007D03*
X027818Y037007D03*
X027618Y037007D03*
X027418Y037007D03*
X027218Y037007D03*
X027018Y037007D03*
X026818Y037007D03*
X026618Y037007D03*
X026418Y037007D03*
D43*
X027459Y029849D03*
X027459Y029525D03*
X010101Y037931D03*
X010101Y038255D03*
D44*
X010101Y038093D03*
X027459Y029687D03*
M02*
