 0
SECTION
 2
ENTITIES
  0
LINE
 8
Layer0
10
-55562.5
20
-26543.0
30
0.0
11
-55562.5
21
-25400.0
31
0.0
  0
LINE
 8
Layer0
10
-55562.5
20
24257.0
30
0.0
11
-55562.5
21
25400.0
31
0.0
  0
LINE
 8
Layer0
10
55562.5
20
24257.0
30
0.0
11
55562.5
21
25400.0
31
0.0
  0
LINE
 8
Layer0
10
55562.5
20
-26543.0
30
0.0
11
55562.5
21
-25400.0
31
0.0
  0
LINE
 8
Layer0
10
54990.9999999999
20
-24410.1
30
0.0
11
54754.2999999999
21
-24591.8
31
0.0
  0
LINE
 8
Layer0
10
54754.2999999999
20
-24591.8
30
0.0
11
54572.6
21
-24828.5
31
0.0
  0
LINE
 8
Layer0
10
54572.6
20
-24828.5
30
0.0
11
54458.4
21
-25104.2
31
0.0
  0
LINE
 8
Layer0
10
54438.949999991
20
-25252.1000000683
30
0.0
11
54419.4866891894
21
-25399.9982495068
31
0.0
  0
LINE
 8
Layer0
10
54458.4
20
-25695.8
30
0.0
11
54572.6
21
-25971.5
31
0.0
  0
LINE
 8
Layer0
10
54572.6
20
-25971.5
30
0.0
11
54754.3
21
-26208.2
31
0.0
  0
LINE
 8
Layer0
10
54754.3
20
-26208.2
30
0.0
11
54990.9999999999
21
-26389.9000000001
31
0.0
  0
LINE
 8
Layer0
10
54990.9999999999
20
-26389.9000000001
30
0.0
11
55266.7
21
-26504.1
31
0.0
  0
LINE
 8
Layer0
10
55414.5999998613
20
-26523.5499999818
30
0.0
11
55562.5
21
-26543.0
31
0.0
  0
LINE
 8
Layer0
10
55266.6999999999
20
-24295.9
30
0.0
11
54990.9999999999
21
-24410.1
31
0.0
  0
LINE
 8
Layer0
10
54991.0
20
26389.9
30
0.0
11
54754.3
21
26208.2
31
0.0
  0
LINE
 8
Layer0
10
54754.3
20
26208.2
30
0.0
11
54572.6
21
25971.5
31
1.44382283906452e-012
  0
LINE
 8
Layer0
10
54572.6
20
25971.5
30
1.44382283906452e-012
11
54458.4
21
25695.8
31
0.0
  0
LINE
 8
Layer0
10
54438.9500000159
20
25547.9000001214
30
0.0
11
54419.4866891893
21
25400.0017504932
31
0.0
  0
LINE
 8
Layer0
10
54458.3999999999
20
25104.2
30
0.0
11
54572.6
21
24828.5
31
0.0
  0
LINE
 8
Layer0
10
54572.6
20
24828.5
30
0.0
11
54754.3
21
24591.8
31
0.0
  0
LINE
 8
Layer0
10
54754.3
20
24591.8
30
0.0
11
54990.9999999999
21
24410.1
31
0.0
  0
LINE
 8
Layer0
10
54990.9999999999
20
24410.1
30
0.0
11
55266.7
21
24295.9
31
0.0
  0
LINE
 8
Layer0
10
55414.6000000751
20
24276.4499999901
30
0.0
11
55562.5
21
24257.0
31
0.0
  0
LINE
 8
Layer0
10
55266.7
20
26504.1
30
0.0
11
54991.0
21
26389.9
31
0.0
  0
LINE
 8
Layer0
10
-56134.0
20
26389.9
30
-1.44382283906452e-012
11
-56370.7
21
26208.2
31
-1.44382283906452e-012
  0
LINE
 8
Layer0
10
-56370.7
20
26208.2
30
-1.44382283906452e-012
11
-56552.4
21
25971.5
31
1.44382283906452e-012
  0
LINE
 8
Layer0
10
-56552.4
20
25971.5
30
1.44382283906452e-012
11
-56666.6
21
25695.8
31
0.0
  0
LINE
 8
Layer0
10
-56686.0499999876
20
25547.9000000947
30
0.0
11
-56705.5133108106
21
25400.0017504932
31
0.0
  0
LINE
 8
Layer0
10
-56666.6
20
25104.2
30
0.0
11
-56552.4
21
24828.5
31
0.0
  0
LINE
 8
Layer0
10
-56552.4
20
24828.5
30
0.0
11
-56370.7
21
24591.8
31
0.0
  0
LINE
 8
Layer0
10
-56370.7
20
24591.8
30
0.0
11
-56134.0
21
24410.1
31
0.0
  0
LINE
 8
Layer0
10
-56134.0
20
24410.1
30
0.0
11
-55858.3
21
24295.9
31
0.0
  0
LINE
 8
Layer0
10
-55710.4000003428
20
24276.4500000451
30
0.0
11
-55562.5
21
24257.0
31
0.0
  0
LINE
 8
Layer0
10
-55858.3
20
26504.1
30
0.0
11
-56134.0
21
26389.9
31
-1.44382283906452e-012
  0
LINE
 8
Layer0
10
-56134.0000000001
20
-24410.1000000001
30
1.44382283906452e-012
11
-56370.7
21
-24591.8
31
1.44382283906452e-012
  0
LINE
 8
Layer0
10
-56370.7
20
-24591.8
30
1.44382283906452e-012
11
-56552.4000000001
21
-24828.5
31
0.0
  0
LINE
 8
Layer0
10
-56552.4000000001
20
-24828.5
30
0.0
11
-56666.6
21
-25104.2
31
0.0
  0
LINE
 8
Layer0
10
-56686.0500000041
20
-25252.1000000313
30
0.0
11
-56705.5133108106
21
-25399.9982495069
31
0.0
  0
LINE
 8
Layer0
10
-56666.6
20
-25695.8
30
0.0
11
-56552.4
21
-25971.5
31
0.0
  0
LINE
 8
Layer0
10
-56552.4
20
-25971.5
30
0.0
11
-56370.7
21
-26208.2000000001
31
1.44382283906452e-012
  0
LINE
 8
Layer0
10
-56370.7
20
-26208.2000000001
30
1.44382283906452e-012
11
-56134.0000000001
21
-26389.9000000001
31
0.0
  0
LINE
 8
Layer0
10
-56134.0000000001
20
-26389.9000000001
30
0.0
11
-55858.3
21
-26504.1
31
0.0
  0
LINE
 8
Layer0
10
-55710.4000001829
20
-26523.549999976
30
1.44382283906452e-012
11
-55562.5
21
-26543.0
31
0.0
  0
LINE
 8
Layer0
10
-55858.3
20
-24295.9000000001
30
0.0
11
-56134.0000000001
21
-24410.1000000001
31
1.44382283906452e-012
  0
LINE
 8
Layer0
10
-54991.0
20
-26389.9
30
0.0
11
-54754.3
21
-26208.2
31
0.0
  0
LINE
 8
Layer0
10
-54754.3
20
-26208.2
30
0.0
11
-54572.6
21
-25971.5
31
1.44382283906452e-012
  0
LINE
 8
Layer0
10
-54572.6
20
-25971.5
30
1.44382283906452e-012
11
-54458.4
21
-25695.8
31
0.0
  0
LINE
 8
Layer0
10
-54438.9500000118
20
-25547.9000000896
30
0.0
11
-54419.4866891894
21
-25400.0017504932
31
0.0
  0
LINE
 8
Layer0
10
-54458.4
20
-25104.2
30
0.0
11
-54572.6
21
-24828.5000000001
31
0.0
  0
LINE
 8
Layer0
10
-54572.6
20
-24828.5000000001
30
0.0
11
-54754.3
21
-24591.8
31
0.0
  0
LINE
 8
Layer0
10
-54754.3
20
-24591.8
30
0.0
11
-54991.0
21
-24410.1000000001
31
0.0
  0
LINE
 8
Layer0
10
-54991.0
20
-24410.1000000001
30
0.0
11
-55266.7
21
-24295.9
31
0.0
  0
LINE
 8
Layer0
10
-55414.5999992242
20
-24276.4500001021
30
0.0
11
-55562.5
21
-24257.0
31
0.0
  0
LINE
 8
Layer0
10
-55266.7
20
-26504.1000000001
30
0.0
11
-54991.0
21
-26389.9
31
0.0
  0
LINE
 8
Layer0
10
-54991.0
20
24410.1
30
0.0
11
-54754.3
21
24591.8
31
0.0
  0
LINE
 8
Layer0
10
-54754.3
20
24591.8
30
0.0
11
-54572.6000000001
21
24828.5
31
0.0
  0
LINE
 8
Layer0
10
-54572.6000000001
20
24828.5
30
0.0
11
-54458.4
21
25104.2
31
0.0
  0
LINE
 8
Layer0
10
-54438.9500000014
20
25252.0999999895
30
0.0
11
-54419.4866891894
21
25399.9982495068
31
0.0
  0
LINE
 8
Layer0
10
-54458.4
20
25695.7999999999
30
0.0
11
-54572.6
21
25971.5
31
0.0
  0
LINE
 8
Layer0
10
-54572.6
20
25971.5
30
0.0
11
-54754.3
21
26208.2
31
0.0
  0
LINE
 8
Layer0
10
-54754.3
20
26208.2
30
0.0
11
-54991.0
21
26389.9
31
0.0
  0
LINE
 8
Layer0
10
-54991.0
20
26389.9
30
0.0
11
-55266.7
21
26504.1
31
0.0
  0
LINE
 8
Layer0
10
-55414.5999998783
20
26523.549999984
30
0.0
11
-55562.5
21
26543.0
31
0.0
  0
LINE
 8
Layer0
10
-55266.7
20
24295.9
30
0.0
11
-54991.0
21
24410.1
31
0.0
  0
LINE
 8
Layer0
10
56134.0
20
24410.1
30
1.44382283906452e-012
11
56370.7
21
24591.8
31
1.44382283906452e-012
  0
LINE
 8
Layer0
10
56370.7
20
24591.8
30
1.44382283906452e-012
11
56552.4
21
24828.5
31
0.0
  0
LINE
 8
Layer0
10
56552.4
20
24828.5
30
0.0
11
56666.6
21
25104.2
31
0.0
  0
LINE
 8
Layer0
10
56686.0499999895
20
25252.0999999206
30
0.0
11
56705.5133108106
21
25399.9982495068
31
0.0
  0
LINE
 8
Layer0
10
56666.6
20
25695.8
30
0.0
11
56552.4
21
25971.5
31
0.0
  0
LINE
 8
Layer0
10
56552.4
20
25971.5
30
0.0
11
56370.7
21
26208.2
31
1.44382283906452e-012
  0
LINE
 8
Layer0
10
56370.7
20
26208.2
30
1.44382283906452e-012
11
56134.0
21
26389.9
31
0.0
  0
LINE
 8
Layer0
10
56134.0
20
26389.9
30
0.0
11
55858.3
21
26504.1
31
0.0
  0
LINE
 8
Layer0
10
55710.3999999431
20
26523.5500000075
30
1.44382283906452e-012
11
55562.5
21
26543.0
31
0.0
  0
LINE
 8
Layer0
10
55858.3
20
24295.9
30
0.0
11
56134.0
21
24410.1
31
1.44382283906452e-012
  0
LINE
 8
Layer0
10
56134.0
20
-26389.9
30
-1.44382283906452e-012
11
56370.7
21
-26208.2
31
-1.44382283906452e-012
  0
LINE
 8
Layer0
10
56370.7
20
-26208.2
30
-1.44382283906452e-012
11
56552.3999999999
21
-25971.5
31
1.44382283906452e-012
  0
LINE
 8
Layer0
10
56552.3999999999
20
-25971.5
30
1.44382283906452e-012
11
56666.6
21
-25695.8
31
0.0
  0
LINE
 8
Layer0
10
56686.0500000084
20
-25547.8999999357
30
0.0
11
56705.5133108106
21
-25400.0017504932
31
0.0
  0
LINE
 8
Layer0
10
56666.6
20
-25104.2
30
0.0
11
56552.4
21
-24828.5000000001
31
0.0
  0
LINE
 8
Layer0
10
56552.4
20
-24828.5000000001
30
0.0
11
56370.7
21
-24591.8000000001
31
0.0
  0
LINE
 8
Layer0
10
56370.7
20
-24591.8000000001
30
0.0
11
56134.0
21
-24410.1
31
0.0
  0
LINE
 8
Layer0
10
56134.0
20
-24410.1
30
0.0
11
55858.3
21
-24295.9
31
0.0
  0
LINE
 8
Layer0
10
55710.4000002155
20
-24276.4500000284
30
0.0
11
55562.5
21
-24257.0
31
0.0
  0
LINE
 8
Layer0
10
55858.3
20
-26504.1000000001
30
0.0
11
56134.0
21
-26389.9
31
-1.44382283906452e-012
  0
LINE
 8
Layer0
10
-62045.8860569552
20
-27152.0093100996
30
0.0
11
-60726.9868866846
21
-27325.6646729136
31
0.0
  0
LINE
 8
Layer0
10
-60726.9868866846
20
-27325.6646729136
30
0.0
11
-59622.2535279559
21
-27783.2240531849
31
-1.44382283906452e-012
  0
LINE
 8
Layer0
10
-59622.2535279559
20
-27783.2240531849
30
-1.44382283906452e-012
11
-59073.9086289621
21
-28204.03767195
31
1.44382283906452e-012
  0
LINE
 8
Layer0
10
-59073.9086289621
20
-28204.03767195
30
1.44382283906452e-012
11
-58673.7339910996
21
-28511.0675154385
31
2.88764567812905e-012
  0
LINE
 8
Layer0
10
-58673.7339910996
20
-28511.0675154385
30
2.88764567812905e-012
11
-58252.8379815452
21
-29059.5197744759
31
0.0
  0
LINE
 8
Layer0
10
-58252.8379815452
20
-29059.5197744759
30
0.0
11
-57945.6814789571
21
-29459.8594964839
31
0.0
  0
LINE
 8
Layer0
10
-57945.6814789571
20
-29459.8594964839
30
0.0
11
-57488.1603679057
21
-30564.4860294829
31
0.0
  0
LINE
 8
Layer0
10
-57488.1603679057
20
-30564.4860294829
30
0.0
11
-57332.0725191703
21
-31750.0043064221
31
0.0
  0
LINE
 8
Layer0
10
57332.0725191703
20
-31749.995693578
30
0.0
11
57488.164784023
21
-30564.4857990745
31
0.0
  0
LINE
 8
Layer0
10
57488.164784023
20
-30564.4857990745
30
0.0
11
57945.7248267986
21
-29459.7545622712
31
-1.44382283906452e-012
  0
LINE
 8
Layer0
10
57945.7248267986
20
-29459.7545622712
30
-1.44382283906452e-012
11
58366.5365729284
21
-28911.4100613979
31
1.44382283906452e-012
  0
LINE
 8
Layer0
10
58366.5365729284
20
-28911.4100613979
30
1.44382283906452e-012
11
58673.5675154383
21
-28511.2339910998
31
2.88764567812905e-012
  0
LINE
 8
Layer0
10
58673.5675154383
20
-28511.2339910998
30
2.88764567812905e-012
11
59222.0197692197
21
-28090.3379855779
31
0.0
  0
LINE
 8
Layer0
10
59222.0197692197
20
-28090.3379855779
30
0.0
11
59622.359496484
21
-27783.181478957
31
0.0
  0
LINE
 8
Layer0
10
59622.359496484
20
-27783.181478957
30
0.0
11
60726.9860294828
21
-27325.6603679057
31
0.0
  0
LINE
 8
Layer0
10
60726.9860294828
20
-27325.6603679057
30
0.0
11
62045.9028932028
21
-27152.0089785317
31
0.0
  0
LINE
 8
Layer0
10
62045.8935663585
20
27152.0133045504
30
0.0
11
60726.991238622
21
27325.6628704244
31
0.0
  0
LINE
 8
Layer0
10
60726.991238622
20
27325.6628704244
30
0.0
11
59622.2535279558
21
27783.2240531848
31
0.0
  0
LINE
 8
Layer0
10
59622.2535279558
20
27783.2240531848
30
0.0
11
59073.9086237043
21
28204.0376759839
31
0.0
  0
LINE
 8
Layer0
10
59073.9086237043
20
28204.0376759839
30
0.0
11
58673.7339910995
21
28511.0675154385
31
-2.88764567812905e-012
  0
LINE
 8
Layer0
10
58673.7339910995
20
28511.0675154385
30
-2.88764567812905e-012
11
58252.8379694503
21
29059.5197902399
31
0.0
  0
LINE
 8
Layer0
10
58252.8379694503
20
29059.5197902399
30
0.0
11
57945.681478957
21
29459.8594964839
31
0.0
  0
LINE
 8
Layer0
10
57945.681478957
20
29459.8594964839
30
0.0
11
57488.1603679056
21
30564.4860294829
31
0.0
  0
LINE
 8
Layer0
10
57488.1603679056
20
30564.4860294829
30
0.0
11
57332.0725191702
21
31750.0043064221
31
0.0
  0
LINE
 8
Layer0
10
-57332.0725191703
20
31749.9956935779
30
0.0
11
-57488.164784023
21
30564.4857990744
31
0.0
  0
LINE
 8
Layer0
10
-57488.164784023
20
30564.4857990744
30
0.0
11
-57945.7248267987
21
29459.7545622713
31
-1.44382283906452e-012
  0
LINE
 8
Layer0
10
-57945.7248267987
20
29459.7545622713
30
-1.44382283906452e-012
11
-58366.5365729286
21
28911.4100613976
31
1.44382283906452e-012
  0
LINE
 8
Layer0
10
-58366.5365729286
20
28911.4100613976
30
1.44382283906452e-012
11
-58673.5675154385
21
28511.2339910995
31
2.88764567812905e-012
  0
LINE
 8
Layer0
10
-58673.5675154385
20
28511.2339910995
30
2.88764567812905e-012
11
-59222.0197797291
21
28090.3379775147
31
0.0
  0
LINE
 8
Layer0
10
-59222.0197797291
20
28090.3379775147
30
0.0
11
-59622.359496484
21
27783.181478957
31
0.0
  0
LINE
 8
Layer0
10
-59622.359496484
20
27783.181478957
30
0.0
11
-60726.9906027945
21
27325.6584737028
31
0.0
  0
LINE
 8
Layer0
10
-60726.9906027945
20
27325.6584737028
30
0.0
11
-62045.9053963844
21
27152.0138856441
31
0.0
  0
LINE
 8
Layer0
10
-62045.9053963844
20
27152.0138856441
30
0.0
11
-64414.0722393857
21
27152.0138856441
31
0.0
  0
LINE
 8
Layer0
10
-57332.0725191703
20
31749.9956935779
30
0.0
11
-57332.0725191703
21
34251.5722393856
31
0.0
  0
LINE
 8
Layer0
10
-62045.8860569552
20
-27152.0093100996
30
0.0
11
-64414.0722393857
21
-27152.0093100996
31
0.0
  0
LINE
 8
Layer0
10
-57332.0725191703
20
-31750.0043064221
30
0.0
11
-57332.0725191703
21
-34251.5722393857
31
0.0
  0
LINE
 8
Layer0
10
57332.0725191703
20
-31749.995693578
30
0.0
11
57332.0725191703
21
-34251.5722393854
31
0.0
  0
LINE
 8
Layer0
10
62045.9028932028
20
-27152.0089785317
30
0.0
11
64414.0722393856
21
-27152.0089785317
31
0.0
  0
LINE
 8
Layer0
10
62045.8935663585
20
27152.0133045504
30
0.0
11
64414.0722393856
21
27152.0133045504
31
0.0
  0
LINE
 8
Layer0
10
57332.0725191702
20
31750.0043064221
30
0.0
11
57332.0725191702
21
34251.5722393856
31
0.0
  0
LINE
 8
Layer0
10
66414.0722393856
20
-25152.0089785317
30
0.0
11
66414.0722393856
21
25152.0133045504
31
0.0
  0
LINE
 8
Layer0
10
55332.0725191703
20
-36251.5722393854
30
0.0
11
55799.9073807122
21
-36251.5722393854
31
0.0
  0
LINE
 8
Layer0
10
-55332.0725191703
20
-36251.5722393857
30
0.0
11
55332.0725191703
21
-36251.5722393854
31
0.0
  0
LINE
 8
Layer0
10
-66414.0722393857
20
25152.0138856441
30
0.0
11
-66414.0722393857
21
-25152.0093100996
31
0.0
  0
LINE
 8
Layer0
10
55332.0725191703
20
36251.5722393856
30
0.0
11
-55332.0725191703
21
36251.5722393856
31
0.0
  0
LINE
 8
Layer0
10
57332.0725191703
20
-34251.5722393854
30
0.0
11
57332.0725191703
21
-34719.4071009271
31
0.0
  0
LINE
 8
Layer0
10
66414.0722393856
20
-25152.0089785317
30
0.0
11
66396.9619621333
21
-25413.0613629718
31
0.0
  0
LINE
 8
Layer0
10
66396.9619621333
20
-25413.0613629718
30
0.0
11
66345.9238919638
21
-25669.6470687368
31
0.0
  0
LINE
 8
Layer0
10
66345.9238919638
20
-25669.6470687368
30
0.0
11
66261.8313044082
21
-25917.3758432619
31
0.0
  0
LINE
 8
Layer0
10
66261.8313044082
20
-25917.3758432619
30
0.0
11
66146.1230469545
21
-26152.0089785317
31
0.0
  0
LINE
 8
Layer0
10
66146.1230469545
20
-26152.0089785317
30
0.0
11
66000.7789199681
21
-26369.5318365491
31
0.0
  0
LINE
 8
Layer0
10
66000.7789199681
20
-26369.5318365491
30
0.0
11
65828.2858017587
21
-26566.2225409048
31
0.0
  0
LINE
 8
Layer0
10
65828.2858017587
20
-26566.2225409048
30
0.0
11
65631.5950974031
21
-26738.7156591142
31
0.0
  0
LINE
 8
Layer0
10
65631.5950974031
20
-26738.7156591142
30
0.0
11
65414.0722393856
21
-26884.0597861006
31
0.0
  0
LINE
 8
Layer0
10
65414.0722393856
20
-26884.0597861006
30
0.0
11
65179.4391041158
21
-26999.7680435543
31
0.0
  0
LINE
 8
Layer0
10
65179.4391041158
20
-26999.7680435543
30
0.0
11
64931.7103295907
21
-27083.8606311099
31
0.0
  0
LINE
 8
Layer0
10
64931.7103295907
20
-27083.8606311099
30
0.0
11
64675.1246238257
21
-27134.8987012794
31
0.0
  0
LINE
 8
Layer0
10
64675.1246238257
20
-27134.8987012794
30
0.0
11
64414.0722393856
21
-27152.0089785317
31
0.0
  0
LINE
 8
Layer0
10
57332.0725191703
20
-34251.5722393854
30
0.0
11
57349.6979847334
21
-34523.9376924944
31
0.0
  0
LINE
 8
Layer0
10
57349.6979847334
20
-34523.9376924944
30
0.0
11
57332.0725191703
21
-34719.4071009271
31
0.0
  0
LINE
 8
Layer0
10
57325.1868809441
20
-34795.7699990265
30
0.0
11
57259.1235022951
21
-35060.5892337604
31
0.0
  0
LINE
 8
Layer0
10
57259.1235022951
20
-35060.5892337604
30
0.0
11
57153.082664374
21
-35312.0826487369
31
0.0
  0
LINE
 8
Layer0
10
57153.082664374
20
-35312.0826487369
30
0.0
11
57009.5921634861
21
-35544.2551562362
31
0.0
  0
LINE
 8
Layer0
10
57009.5921634861
20
-35544.2551562362
30
0.0
11
56832.0725191703
21
-35751.5722393855
31
0.0
  0
LINE
 8
Layer0
10
56832.0725191703
20
-35751.5722393855
30
0.0
11
56624.755436021
21
-35929.0918837013
31
0.0
  0
LINE
 8
Layer0
10
56624.755436021
20
-35929.0918837013
30
0.0
11
56392.5829285217
21
-36072.5823845892
31
0.0
  0
LINE
 8
Layer0
10
56392.5829285217
20
-36072.5823845892
30
0.0
11
56141.0895135452
21
-36178.6232225103
31
0.0
  0
LINE
 8
Layer0
10
56141.0895135452
20
-36178.6232225103
30
0.0
11
55876.2702788113
21
-36244.6866011593
31
0.0
  0
LINE
 8
Layer0
10
55876.2702788113
20
-36244.6866011593
30
0.0
11
55799.9073807122
21
-36251.5722393854
31
0.0
  0
LINE
 8
Layer0
10
55604.4379722792
20
-36269.1977049486
30
0.0
11
55332.0725191703
21
-36251.5722393854
31
0.0
  0
LINE
 8
Layer0
10
57332.0725191703
20
-34719.4071009271
30
0.0
11
57325.1868809441
21
-34795.7699990265
31
0.0
  0
LINE
 8
Layer0
10
55799.9073807122
20
-36251.5722393854
30
0.0
11
55604.4379722792
21
-36269.1977049486
31
0.0
  0
LINE
 8
Layer0
10
57332.0725191702
20
34251.5722393856
30
0.0
11
57314.9622419179
21
34512.6246238257
31
0.0
  0
LINE
 8
Layer0
10
57314.9622419179
20
34512.6246238257
30
0.0
11
57263.9241717484
21
34769.2103295907
31
0.0
  0
LINE
 8
Layer0
10
57263.9241717484
20
34769.2103295907
30
0.0
11
57179.8315841928
21
35016.9391041158
31
0.0
  0
LINE
 8
Layer0
10
57179.8315841928
20
35016.9391041158
30
0.0
11
57064.1233267391
21
35251.5722393856
31
0.0
  0
LINE
 8
Layer0
10
57064.1233267391
20
35251.5722393856
30
0.0
11
56918.7791997527
21
35469.0950974031
31
0.0
  0
LINE
 8
Layer0
10
56918.7791997527
20
35469.0950974031
30
0.0
11
56746.2860815434
21
35665.7858017587
31
0.0
  0
LINE
 8
Layer0
10
56746.2860815434
20
35665.7858017587
30
0.0
11
56549.5953771877
21
35838.2789199681
31
0.0
  0
LINE
 8
Layer0
10
56549.5953771877
20
35838.2789199681
30
0.0
11
56332.0725191703
21
35983.6230469545
31
0.0
  0
LINE
 8
Layer0
10
56332.0725191703
20
35983.6230469545
30
0.0
11
56097.4393839004
21
36099.3313044082
31
0.0
  0
LINE
 8
Layer0
10
56097.4393839004
20
36099.3313044082
30
0.0
11
55849.7106093753
21
36183.4238919638
31
0.0
  0
LINE
 8
Layer0
10
55849.7106093753
20
36183.4238919638
30
0.0
11
55593.1249036103
21
36234.4619621333
31
0.0
  0
LINE
 8
Layer0
10
55593.1249036103
20
36234.4619621333
30
0.0
11
55332.0725191703
21
36251.5722393856
31
0.0
  0
LINE
 8
Layer0
10
64414.0722393856
20
27152.0133045504
30
0.0
11
64675.1246238257
21
27134.903027298
31
0.0
  0
LINE
 8
Layer0
10
64675.1246238257
20
27134.903027298
30
0.0
11
64931.7103295907
21
27083.8649571286
31
0.0
  0
LINE
 8
Layer0
10
64931.7103295907
20
27083.8649571286
30
0.0
11
65179.4391041158
21
26999.772369573
31
0.0
  0
LINE
 8
Layer0
10
65179.4391041158
20
26999.772369573
30
0.0
11
65414.0722393856
21
26884.0641121193
31
0.0
  0
LINE
 8
Layer0
10
65414.0722393856
20
26884.0641121193
30
0.0
11
65631.5950974031
21
26738.7199851329
31
0.0
  0
LINE
 8
Layer0
10
65631.5950974031
20
26738.7199851329
30
0.0
11
65828.2858017587
21
26566.2268669235
31
0.0
  0
LINE
 8
Layer0
10
65828.2858017587
20
26566.2268669235
30
0.0
11
66000.7789199681
21
26369.5361625679
31
0.0
  0
LINE
 8
Layer0
10
66000.7789199681
20
26369.5361625679
30
0.0
11
66146.1230469545
21
26152.0133045504
31
0.0
  0
LINE
 8
Layer0
10
66146.1230469545
20
26152.0133045504
30
0.0
11
66261.8313044082
21
25917.3801692806
31
0.0
  0
LINE
 8
Layer0
10
66261.8313044082
20
25917.3801692806
30
0.0
11
66345.9238919638
21
25669.6513947555
31
0.0
  0
LINE
 8
Layer0
10
66345.9238919638
20
25669.6513947555
30
0.0
11
66396.9619621333
21
25413.0656889905
31
0.0
  0
LINE
 8
Layer0
10
66396.9619621333
20
25413.0656889905
30
0.0
11
66414.0722393856
21
25152.0133045504
31
0.0
  0
LINE
 8
Layer0
10
-55332.0725191703
20
36251.5722393856
30
0.0
11
-55593.1249036104
21
36234.4619621333
31
0.0
  0
LINE
 8
Layer0
10
-55593.1249036104
20
36234.4619621333
30
0.0
11
-55849.7106093754
21
36183.4238919638
31
0.0
  0
LINE
 8
Layer0
10
-55849.7106093754
20
36183.4238919638
30
0.0
11
-56097.4393839005
21
36099.3313044082
31
0.0
  0
LINE
 8
Layer0
10
-56097.4393839005
20
36099.3313044082
30
0.0
11
-56332.0725191703
21
35983.6230469545
31
0.0
  0
LINE
 8
Layer0
10
-56332.0725191703
20
35983.6230469545
30
0.0
11
-56549.5953771877
21
35838.2789199681
31
0.0
  0
LINE
 8
Layer0
10
-56549.5953771877
20
35838.2789199681
30
0.0
11
-56746.2860815434
21
35665.7858017587
31
0.0
  0
LINE
 8
Layer0
10
-56746.2860815434
20
35665.7858017587
30
0.0
11
-56918.7791997528
21
35469.0950974031
31
0.0
  0
LINE
 8
Layer0
10
-56918.7791997528
20
35469.0950974031
30
0.0
11
-57064.1233267392
21
35251.5722393856
31
0.0
  0
LINE
 8
Layer0
10
-57064.1233267392
20
35251.5722393856
30
0.0
11
-57179.8315841929
21
35016.9391041158
31
0.0
  0
LINE
 8
Layer0
10
-57179.8315841929
20
35016.9391041158
30
0.0
11
-57263.9241717484
21
34769.2103295907
31
0.0
  0
LINE
 8
Layer0
10
-57263.9241717484
20
34769.2103295907
30
0.0
11
-57314.9622419179
21
34512.6246238257
31
0.0
  0
LINE
 8
Layer0
10
-57314.9622419179
20
34512.6246238257
30
0.0
11
-57332.0725191703
21
34251.5722393856
31
0.0
  0
LINE
 8
Layer0
10
-64414.0722393857
20
27152.0138856441
30
0.0
11
-64675.1246238258
21
27134.9036083917
31
0.0
  0
LINE
 8
Layer0
10
-64675.1246238258
20
27134.9036083917
30
0.0
11
-64931.7103295907
21
27083.8655382222
31
0.0
  0
LINE
 8
Layer0
10
-64931.7103295907
20
27083.8655382222
30
0.0
11
-65179.4391041159
21
26999.7729506667
31
0.0
  0
LINE
 8
Layer0
10
-65179.4391041159
20
26999.7729506667
30
0.0
11
-65414.0722393857
21
26884.064693213
31
0.0
  0
LINE
 8
Layer0
10
-65414.0722393857
20
26884.064693213
30
0.0
11
-65631.5950974031
21
26738.7205662265
31
0.0
  0
LINE
 8
Layer0
10
-65631.5950974031
20
26738.7205662265
30
0.0
11
-65828.2858017588
21
26566.2274480172
31
0.0
  0
LINE
 8
Layer0
10
-65828.2858017588
20
26566.2274480172
30
0.0
11
-66000.7789199681
21
26369.5367436615
31
0.0
  0
LINE
 8
Layer0
10
-66000.7789199681
20
26369.5367436615
30
0.0
11
-66146.1230469545
21
26152.0138856441
31
0.0
  0
LINE
 8
Layer0
10
-66146.1230469545
20
26152.0138856441
30
0.0
11
-66261.8313044082
21
25917.3807503743
31
0.0
  0
LINE
 8
Layer0
10
-66261.8313044082
20
25917.3807503743
30
0.0
11
-66345.9238919638
21
25669.6519758491
31
0.0
  0
LINE
 8
Layer0
10
-66345.9238919638
20
25669.6519758491
30
0.0
11
-66396.9619621333
21
25413.0662700842
31
0.0
  0
LINE
 8
Layer0
10
-66396.9619621333
20
25413.0662700842
30
0.0
11
-66414.0722393857
21
25152.0138856441
31
0.0
  0
LINE
 8
Layer0
10
-64414.0722393857
20
-27152.0093100996
30
0.0
11
-64675.1246238258
21
-27134.8990328473
31
0.0
  0
LINE
 8
Layer0
10
-64675.1246238258
20
-27134.8990328473
30
0.0
11
-64931.7103295907
21
-27083.8609626778
31
0.0
  0
LINE
 8
Layer0
10
-64931.7103295907
20
-27083.8609626778
30
0.0
11
-65179.4391041159
21
-26999.7683751223
31
0.0
  0
LINE
 8
Layer0
10
-65179.4391041159
20
-26999.7683751223
30
0.0
11
-65414.0722393857
21
-26884.0601176686
31
0.0
  0
LINE
 8
Layer0
10
-65414.0722393857
20
-26884.0601176686
30
0.0
11
-65631.5950974031
21
-26738.7159906821
31
0.0
  0
LINE
 8
Layer0
10
-65631.5950974031
20
-26738.7159906821
30
0.0
11
-65828.2858017588
21
-26566.2228724728
31
0.0
  0
LINE
 8
Layer0
10
-65828.2858017588
20
-26566.2228724728
30
0.0
11
-66000.7789199681
21
-26369.5321681171
31
0.0
  0
LINE
 8
Layer0
10
-66000.7789199681
20
-26369.5321681171
30
0.0
11
-66146.1230469546
21
-26152.0093100996
31
0.0
  0
LINE
 8
Layer0
10
-66146.1230469546
20
-26152.0093100996
30
0.0
11
-66261.8313044083
21
-25917.3761748298
31
0.0
  0
LINE
 8
Layer0
10
-66261.8313044083
20
-25917.3761748298
30
0.0
11
-66345.9238919638
21
-25669.6474003047
31
0.0
  0
LINE
 8
Layer0
10
-66345.9238919638
20
-25669.6474003047
30
0.0
11
-66396.9619621333
21
-25413.0616945397
31
0.0
  0
LINE
 8
Layer0
10
-66396.9619621333
20
-25413.0616945397
30
0.0
11
-66414.0722393857
21
-25152.0093100996
31
0.0
  0
LINE
 8
Layer0
10
-57332.0725191703
20
-34251.5722393857
30
0.0
11
-57314.9622419179
21
-34512.6246238258
31
0.0
  0
LINE
 8
Layer0
10
-57314.9622419179
20
-34512.6246238258
30
0.0
11
-57263.9241717484
21
-34769.2103295908
31
0.0
  0
LINE
 8
Layer0
10
-57263.9241717484
20
-34769.2103295908
30
0.0
11
-57179.8315841929
21
-35016.9391041159
31
0.0
  0
LINE
 8
Layer0
10
-57179.8315841929
20
-35016.9391041159
30
0.0
11
-57064.1233267392
21
-35251.5722393857
31
0.0
  0
LINE
 8
Layer0
10
-57064.1233267392
20
-35251.5722393857
30
0.0
11
-56918.7791997528
21
-35469.0950974031
31
0.0
  0
LINE
 8
Layer0
10
-56918.7791997528
20
-35469.0950974031
30
0.0
11
-56746.2860815434
21
-35665.7858017588
31
0.0
  0
LINE
 8
Layer0
10
-56746.2860815434
20
-35665.7858017588
30
0.0
11
-56549.5953771877
21
-35838.2789199681
31
0.0
  0
LINE
 8
Layer0
10
-56549.5953771877
20
-35838.2789199681
30
0.0
11
-56332.0725191703
21
-35983.6230469545
31
0.0
  0
LINE
 8
Layer0
10
-56332.0725191703
20
-35983.6230469545
30
0.0
11
-56097.4393839005
21
-36099.3313044082
31
0.0
  0
LINE
 8
Layer0
10
-56097.4393839005
20
-36099.3313044082
30
0.0
11
-55849.7106093754
21
-36183.4238919638
31
0.0
  0
LINE
 8
Layer0
10
-55849.7106093754
20
-36183.4238919638
30
0.0
11
-55593.1249036104
21
-36234.4619621334
31
0.0
  0
LINE
 8
Layer0
10
-55593.1249036104
20
-36234.4619621334
30
0.0
11
-55332.0725191703
21
-36251.5722393857
31
0.0
  0
LINE
 8
Layer0
10
55562.5
20
25400.0
30
0.0
11
55562.5
21
26543.0
31
0.0
  0
LINE
 8
Layer0
10
55122.5
20
25400.0
30
0.0
11
55562.5
21
25400.0
31
0.0
  0
LINE
 8
Layer0
10
55562.5
20
25400.0
30
0.0
11
56013.5
21
25400.0
31
0.0
  0
LINE
 8
Layer0
10
55562.5
20
-25400.0
30
0.0
11
55562.5
21
-24257.0
31
0.0
  0
LINE
 8
Layer0
10
55562.5
20
-25400.0
30
0.0
11
55122.5
21
-25400.0
31
0.0
  0
LINE
 8
Layer0
10
55562.5
20
-25400.0
30
0.0
11
56062.5
21
-25400.0
31
0.0
  0
LINE
 8
Layer0
10
-55562.5
20
-25400.0
30
0.0
11
-55562.5
21
-24257.0
31
0.0
  0
LINE
 8
Layer0
10
-55562.5
20
-25400.0
30
0.0
11
-56062.5
21
-25400.0
31
0.0
  0
LINE
 8
Layer0
10
-55562.5
20
-25400.0
30
0.0
11
-55062.5
21
-25400.0
31
0.0
  0
LINE
 8
Layer0
10
-55562.5
20
25400.0
30
0.0
11
-55562.5
21
26543.0
31
0.0
  0
LINE
 8
Layer0
10
-55562.5
20
25400.0
30
0.0
11
-56062.5
21
25400.0
31
0.0
  0
LINE
 8
Layer0
10
-55562.5
20
25400.0
30
0.0
11
-55062.5
21
25400.0
31
0.0
 0
ENDSEC
 0
EOF
