G75*
G70*
%OFA0B0*%
%FSLAX24Y24*%
%IPPOS*%
%LPD*%
%AMOC8*
5,1,8,0,0,1.08239X$1,22.5*
%
%ADD10R,0.0787X0.0433*%
%ADD11R,0.0433X0.0787*%
%ADD12R,0.0110X0.0280*%
%ADD13C,0.0110*%
%ADD14R,0.0280X0.0110*%
%ADD15R,0.1063X0.1063*%
%ADD16R,0.0236X0.0079*%
%ADD17R,0.0661X0.0866*%
%ADD18R,0.0512X0.0591*%
%ADD19R,0.0433X0.0394*%
%ADD20R,0.0394X0.0433*%
%ADD21R,0.0591X0.0512*%
%ADD22R,0.0984X0.0787*%
%ADD23R,0.0906X0.0197*%
%ADD24R,0.0157X0.0315*%
%ADD25R,0.0276X0.0197*%
%ADD26R,0.0591X0.0276*%
%ADD27R,0.0591X0.0394*%
%ADD28R,0.0276X0.0591*%
%ADD29R,0.0315X0.0248*%
%ADD30R,0.0354X0.0591*%
%ADD31R,0.0591X0.0354*%
%ADD32R,0.0089X0.0394*%
%ADD33R,0.0488X0.0315*%
%ADD34R,0.0984X0.0374*%
%ADD35R,0.0866X0.0453*%
%ADD36R,0.0453X0.0591*%
%ADD37R,0.0472X0.0457*%
%ADD38R,0.0492X0.0457*%
%ADD39C,0.0118*%
%ADD40C,0.0236*%
%ADD41R,0.0551X0.0118*%
%ADD42R,0.0118X0.0551*%
%ADD43R,0.0500X0.0250*%
%ADD44R,0.0900X0.0960*%
D10*
X013054Y040632D03*
X013054Y042522D03*
X011617Y047227D03*
X011617Y049116D03*
D11*
X012561Y048171D03*
X010672Y048171D03*
X012109Y041577D03*
X013998Y041577D03*
D12*
X012502Y045005D03*
X012305Y045005D03*
X012108Y045005D03*
X011911Y045005D03*
X011715Y045005D03*
X011518Y045005D03*
X011519Y046614D03*
X011715Y046614D03*
X011912Y046614D03*
X012109Y046614D03*
X012306Y046614D03*
X012503Y046614D03*
D13*
X012503Y046476D01*
X012306Y046476D02*
X012306Y046614D01*
X012109Y046614D02*
X012109Y046476D01*
X011912Y046476D02*
X011912Y046614D01*
X011715Y046614D02*
X011715Y046476D01*
X011519Y046476D02*
X011519Y046614D01*
X011344Y046302D02*
X011206Y046302D01*
X011206Y046105D02*
X011344Y046105D01*
X011344Y045908D02*
X011206Y045908D01*
X011206Y045711D02*
X011344Y045711D01*
X011344Y045514D02*
X011206Y045514D01*
X011206Y045318D02*
X011344Y045318D01*
X011518Y045143D02*
X011518Y045005D01*
X011715Y045005D02*
X011715Y045143D01*
X011911Y045143D02*
X011911Y045005D01*
X012108Y045005D02*
X012108Y045143D01*
X012305Y045143D02*
X012305Y045005D01*
X012502Y045005D02*
X012502Y045143D01*
X012677Y045317D02*
X012815Y045317D01*
X012815Y045514D02*
X012677Y045514D01*
X012677Y045710D02*
X012815Y045710D01*
X012815Y045907D02*
X012677Y045907D01*
X012677Y046104D02*
X012815Y046104D01*
X012815Y046301D02*
X012677Y046301D01*
D14*
X012815Y046301D03*
X012815Y046104D03*
X012815Y045907D03*
X012815Y045710D03*
X012815Y045514D03*
X012815Y045317D03*
X011206Y045318D03*
X011206Y045514D03*
X011206Y045711D03*
X011206Y045908D03*
X011206Y046105D03*
X011206Y046302D03*
D15*
X012010Y045809D03*
D16*
X011481Y042660D03*
X011481Y042502D03*
X011481Y042345D03*
X011481Y042187D03*
X011481Y042030D03*
X011481Y041872D03*
X010374Y041872D03*
X010374Y042030D03*
X010374Y042187D03*
X010374Y042345D03*
X010374Y042502D03*
X010374Y042660D03*
D17*
X010928Y042266D03*
D18*
X011282Y040632D03*
X010534Y040632D03*
X009747Y037148D03*
X008998Y037148D03*
X013211Y043447D03*
X013959Y043447D03*
D19*
X012148Y039904D03*
X012345Y039313D03*
X012345Y038723D03*
X011676Y038723D03*
X011676Y039313D03*
X011479Y039904D03*
X011243Y041262D03*
X010573Y041262D03*
X009845Y042069D03*
X009176Y042069D03*
X007463Y042148D03*
X007463Y041479D03*
X006833Y040691D03*
X006164Y040691D03*
X007483Y040002D03*
X007483Y039333D03*
X007365Y038664D03*
X007365Y037994D03*
X006833Y036754D03*
X006164Y036754D03*
X008959Y035888D03*
X008939Y035297D03*
X009609Y035297D03*
X009628Y035888D03*
X009747Y036479D03*
X009077Y036479D03*
X008821Y038782D03*
X008821Y039451D03*
X010967Y043290D03*
X011636Y043290D03*
X010573Y044943D03*
X010573Y045455D03*
X009904Y045455D03*
X009904Y044943D03*
X012778Y047187D03*
X013447Y047187D03*
X012345Y034589D03*
X011676Y034589D03*
X008132Y030691D03*
X007463Y030691D03*
X006833Y028880D03*
X006164Y028880D03*
X006361Y026124D03*
X007030Y026124D03*
X008073Y027364D03*
X008073Y028034D03*
X006833Y032817D03*
X006164Y032817D03*
X011479Y029195D03*
X012148Y029195D03*
X013388Y027837D03*
X013388Y027168D03*
X009195Y018053D03*
X009195Y017463D03*
X008526Y017463D03*
X008526Y018053D03*
X006439Y017857D03*
X006439Y018447D03*
X005770Y018447D03*
X005770Y017857D03*
X015416Y002896D03*
X016085Y002896D03*
X016085Y002109D03*
X015416Y002109D03*
X020672Y006301D03*
X020672Y006971D03*
X021459Y005593D03*
X021459Y004923D03*
D20*
X019825Y006439D03*
X019156Y006439D03*
X013132Y016675D03*
X012463Y016675D03*
X012463Y018841D03*
X012463Y019431D03*
X013132Y019431D03*
X013132Y018841D03*
X010632Y023034D03*
X010632Y023703D03*
X013467Y028486D03*
X014136Y028486D03*
X011833Y030219D03*
X011833Y030888D03*
X010278Y035002D03*
X010278Y035671D03*
X010829Y036774D03*
X010829Y037443D03*
X011420Y037443D03*
X012010Y037443D03*
X012010Y036774D03*
X011420Y036774D03*
X011617Y035947D03*
X011026Y035947D03*
X011026Y035278D03*
X011617Y035278D03*
X012207Y035278D03*
X012207Y035947D03*
X010829Y038782D03*
X010239Y038782D03*
X009648Y038782D03*
X009648Y039451D03*
X009766Y040120D03*
X009766Y040711D03*
X009766Y041301D03*
X009097Y041301D03*
X009097Y040711D03*
X009097Y040120D03*
X010239Y039451D03*
X010829Y039451D03*
X006833Y039904D03*
X006164Y039904D03*
X006164Y035967D03*
X006833Y035967D03*
X006833Y032030D03*
X007443Y031990D03*
X007443Y031321D03*
X006164Y032030D03*
X006164Y028093D03*
X006833Y028093D03*
X005652Y026124D03*
X004983Y026124D03*
X010042Y018191D03*
X010042Y017522D03*
X009648Y016616D03*
X009648Y015947D03*
X008073Y015947D03*
X008073Y016616D03*
X010475Y045986D03*
X010475Y046656D03*
X009924Y046892D03*
X009924Y046223D03*
X006833Y047581D03*
X006833Y048171D03*
X006164Y048171D03*
X006164Y047581D03*
X013624Y046459D03*
X013624Y045790D03*
D21*
X013270Y047797D03*
X013270Y048546D03*
X011420Y023742D03*
X011420Y022994D03*
D22*
X007601Y042876D03*
X005435Y042876D03*
X005435Y046380D03*
X007601Y046380D03*
D23*
X007640Y045258D03*
X007640Y044943D03*
X007640Y044628D03*
X007640Y044313D03*
X007640Y043998D03*
D24*
X005487Y047453D03*
X005148Y047453D03*
X005148Y048103D03*
X005487Y048103D03*
D25*
X009274Y042561D03*
X009372Y043014D03*
X009884Y043014D03*
X009786Y042561D03*
D26*
X017069Y005337D03*
X017069Y004943D03*
X017069Y004549D03*
X017069Y004156D03*
X017069Y003762D03*
X017069Y003368D03*
X017069Y002975D03*
X017069Y002581D03*
X017069Y002187D03*
X017069Y001794D03*
X017069Y001400D03*
X017069Y001006D03*
X020534Y001006D03*
X020534Y001400D03*
X020534Y001794D03*
X020534Y002187D03*
X020534Y002581D03*
X020534Y002975D03*
X020534Y003368D03*
X020534Y003762D03*
X020534Y004156D03*
X020534Y004549D03*
X020534Y004943D03*
X020534Y005337D03*
D27*
X020534Y000553D03*
X017069Y000553D03*
D28*
X018014Y005494D03*
X018408Y005494D03*
X018802Y005494D03*
X019195Y005494D03*
X019589Y005494D03*
D29*
X013270Y015120D03*
X013270Y015494D03*
X013270Y015868D03*
X012325Y015868D03*
X012325Y015494D03*
X012325Y015120D03*
D30*
X005514Y015573D03*
X006105Y015573D03*
X006695Y015573D03*
X006695Y016990D03*
X006105Y016990D03*
X005514Y016990D03*
D31*
X006813Y016282D03*
D32*
X008546Y016715D03*
X008703Y016715D03*
X008861Y016715D03*
X009018Y016715D03*
X009176Y016715D03*
X009176Y015849D03*
X009018Y015849D03*
X008861Y015849D03*
X008703Y015849D03*
X008546Y015849D03*
D33*
X005069Y021536D03*
X005069Y021969D03*
X005069Y022402D03*
X005069Y022835D03*
X005069Y023268D03*
X005069Y023701D03*
X005069Y024134D03*
X005069Y024567D03*
D34*
X005317Y019825D03*
D35*
X005258Y025490D03*
X009778Y019864D03*
D36*
X010091Y021559D03*
X010091Y024622D03*
D37*
X009648Y025331D03*
D38*
X006105Y025331D03*
D39*
X013004Y031734D02*
X013378Y031734D01*
X013378Y031931D02*
X013004Y031931D01*
X013004Y032128D02*
X013378Y032128D01*
X013378Y032325D02*
X013004Y032325D01*
X013004Y032522D02*
X013378Y032522D01*
X013378Y032719D02*
X013004Y032719D01*
X013004Y032916D02*
X013378Y032916D01*
X013378Y033112D02*
X013004Y033112D01*
X013004Y033309D02*
X013378Y033309D01*
X013378Y033506D02*
X013004Y033506D01*
X013004Y033703D02*
X013378Y033703D01*
X013378Y033900D02*
X013004Y033900D01*
X013004Y034097D02*
X013378Y034097D01*
X013378Y034294D02*
X013004Y034294D01*
X013004Y034490D02*
X013378Y034490D01*
X013378Y034687D02*
X013004Y034687D01*
X013004Y034884D02*
X013378Y034884D01*
X013378Y035081D02*
X013004Y035081D01*
X013004Y035278D02*
X013378Y035278D01*
X013378Y035475D02*
X013004Y035475D01*
X013004Y035671D02*
X013378Y035671D01*
X013378Y035868D02*
X013004Y035868D01*
X013004Y036065D02*
X013378Y036065D01*
X013378Y036262D02*
X013004Y036262D01*
X013004Y036459D02*
X013378Y036459D01*
X013378Y036656D02*
X013004Y036656D01*
X013004Y036853D02*
X013378Y036853D01*
X013378Y037049D02*
X013004Y037049D01*
X013004Y037246D02*
X013378Y037246D01*
X013378Y037443D02*
X013004Y037443D01*
X013004Y037640D02*
X013378Y037640D01*
X013378Y037837D02*
X013004Y037837D01*
X013004Y038034D02*
X013378Y038034D01*
X013378Y038231D02*
X013004Y038231D01*
X013004Y038427D02*
X013378Y038427D01*
X013378Y038624D02*
X013004Y038624D01*
D40*
X014303Y039117D02*
X014303Y039589D01*
X014303Y039117D02*
X013949Y039117D01*
X013949Y039589D01*
X014303Y039589D01*
X014303Y039352D02*
X013949Y039352D01*
X013949Y039587D02*
X014303Y039587D01*
X014303Y031242D02*
X014303Y030770D01*
X013949Y030770D01*
X013949Y031242D01*
X014303Y031242D01*
X014303Y031005D02*
X013949Y031005D01*
X013949Y031240D02*
X014303Y031240D01*
D41*
X011692Y031323D03*
X011692Y031523D03*
X011692Y031723D03*
X011692Y031923D03*
X011692Y032123D03*
X011692Y032323D03*
X011692Y032523D03*
X011692Y032723D03*
X011692Y032923D03*
X011692Y033123D03*
X011692Y033323D03*
X011692Y033523D03*
X008392Y033523D03*
X008392Y033323D03*
X008392Y033123D03*
X008392Y032923D03*
X008392Y032723D03*
X008392Y032523D03*
X008392Y032323D03*
X008392Y032123D03*
X008392Y031923D03*
X008392Y031723D03*
X008392Y031523D03*
X008392Y031323D03*
D42*
X008942Y030773D03*
X009142Y030773D03*
X009342Y030773D03*
X009542Y030773D03*
X009742Y030773D03*
X009942Y030773D03*
X010142Y030773D03*
X010342Y030773D03*
X010542Y030773D03*
X010742Y030773D03*
X010942Y030773D03*
X011142Y030773D03*
X011142Y034073D03*
X010942Y034073D03*
X010742Y034073D03*
X010542Y034073D03*
X010342Y034073D03*
X010142Y034073D03*
X009942Y034073D03*
X009742Y034073D03*
X009542Y034073D03*
X009342Y034073D03*
X009142Y034073D03*
X008942Y034073D03*
D43*
X010101Y037931D03*
X010101Y038255D03*
D44*
X010101Y038093D03*
M02*
