G75*
G70*
%OFA0B0*%
%FSLAX24Y24*%
%IPPOS*%
%LPD*%
%AMOC8*
5,1,8,0,0,1.08239X$1,22.5*
%
%ADD10C,0.1365*%
%ADD11R,0.0867X0.0513*%
%ADD12R,0.0513X0.0867*%
%ADD13R,0.0165X0.0160*%
%ADD14C,0.0165*%
%ADD15R,0.0160X0.0165*%
%ADD16R,0.1102X0.1102*%
%ADD17R,0.0291X0.0134*%
%ADD18R,0.0717X0.0921*%
%ADD19R,0.0592X0.0671*%
%ADD20R,0.0513X0.0474*%
%ADD21R,0.0474X0.0513*%
%ADD22R,0.0671X0.0592*%
%ADD23R,0.1064X0.0867*%
%ADD24R,0.0986X0.0277*%
%ADD25C,0.0474*%
%ADD26R,0.0237X0.0395*%
%ADD27R,0.0611X0.0611*%
%ADD28C,0.0611*%
%ADD29R,0.0356X0.0277*%
%ADD30R,0.0671X0.0356*%
%ADD31R,0.0671X0.0474*%
%ADD32R,0.0356X0.0671*%
%ADD33R,0.0395X0.0328*%
%ADD34R,0.0434X0.0671*%
%ADD35R,0.0671X0.0434*%
%ADD36R,0.0169X0.0474*%
%ADD37R,0.0568X0.0395*%
%ADD38R,0.1064X0.0454*%
%ADD39R,0.0946X0.0533*%
%ADD40R,0.0533X0.0671*%
%ADD41R,0.0552X0.0537*%
%ADD42R,0.0572X0.0537*%
%ADD43C,0.0198*%
%ADD44C,0.0268*%
%ADD45R,0.0631X0.0198*%
%ADD46R,0.0198X0.0631*%
%ADD47C,0.0940*%
%ADD48C,0.0740*%
%ADD49R,0.0820X0.0820*%
%ADD50OC8,0.0820*%
%ADD51R,0.0580X0.0330*%
D10*
X008798Y004408D03*
X028806Y004408D03*
X008798Y048156D03*
D11*
X011617Y047227D03*
X011617Y049116D03*
X013054Y042522D03*
X013054Y040632D03*
D12*
X013998Y041577D03*
X012109Y041577D03*
X012561Y048171D03*
X010672Y048171D03*
D13*
X011518Y046701D03*
X011715Y046701D03*
X011912Y046701D03*
X012109Y046701D03*
X012306Y046701D03*
X012503Y046701D03*
X012502Y044917D03*
X012305Y044917D03*
X012109Y044917D03*
X011912Y044917D03*
X011715Y044917D03*
X011518Y044917D03*
D14*
X011518Y045005D02*
X011518Y045143D01*
X011715Y045143D02*
X011715Y045005D01*
X011911Y045005D02*
X011911Y045143D01*
X012108Y045143D02*
X012108Y045005D01*
X012305Y045005D02*
X012305Y045143D01*
X012502Y045143D02*
X012502Y045005D01*
X012677Y045317D02*
X012815Y045317D01*
X012815Y045514D02*
X012677Y045514D01*
X012677Y045710D02*
X012815Y045710D01*
X012815Y045907D02*
X012677Y045907D01*
X012677Y046104D02*
X012815Y046104D01*
X012815Y046301D02*
X012677Y046301D01*
X012503Y046476D02*
X012503Y046614D01*
X012306Y046614D02*
X012306Y046476D01*
X012109Y046476D02*
X012109Y046614D01*
X011912Y046614D02*
X011912Y046476D01*
X011715Y046476D02*
X011715Y046614D01*
X011519Y046614D02*
X011519Y046476D01*
X011344Y046302D02*
X011206Y046302D01*
X011206Y046105D02*
X011344Y046105D01*
X011344Y045908D02*
X011206Y045908D01*
X011206Y045711D02*
X011344Y045711D01*
X011344Y045514D02*
X011206Y045514D01*
X011206Y045318D02*
X011344Y045318D01*
D15*
X011118Y045317D03*
X011118Y045514D03*
X011118Y045711D03*
X011118Y045908D03*
X011118Y046105D03*
X011118Y046302D03*
X012902Y046301D03*
X012902Y046104D03*
X012902Y045908D03*
X012902Y045711D03*
X012902Y045514D03*
X012902Y045317D03*
D16*
X012010Y045809D03*
D17*
X011479Y042660D03*
X011479Y042502D03*
X011479Y042345D03*
X011481Y042187D03*
X011481Y042187D03*
X011479Y042030D03*
X011479Y041872D03*
X010372Y041872D03*
X010372Y042030D03*
X010374Y042187D03*
X010374Y042187D03*
X010372Y042345D03*
X010372Y042502D03*
X010372Y042660D03*
D18*
X010928Y042266D03*
D19*
X011282Y040632D03*
X010534Y040632D03*
X009747Y037148D03*
X008998Y037148D03*
X013211Y043447D03*
X013959Y043447D03*
D20*
X012148Y039904D03*
X012345Y039313D03*
X012345Y038723D03*
X011676Y038723D03*
X011676Y039313D03*
X011479Y039904D03*
X011243Y041262D03*
X010573Y041262D03*
X009845Y042069D03*
X009176Y042069D03*
X007463Y042148D03*
X007463Y041479D03*
X006833Y040691D03*
X006164Y040691D03*
X007483Y040002D03*
X007483Y039333D03*
X007365Y038664D03*
X007365Y037994D03*
X006833Y036754D03*
X006164Y036754D03*
X008959Y035888D03*
X008939Y035297D03*
X009609Y035297D03*
X009628Y035888D03*
X009747Y036479D03*
X009077Y036479D03*
X008821Y038782D03*
X008821Y039451D03*
X010967Y043290D03*
X011636Y043290D03*
X010573Y044943D03*
X010573Y045455D03*
X009904Y045455D03*
X009904Y044943D03*
X012778Y047187D03*
X013447Y047187D03*
X012345Y034589D03*
X011676Y034589D03*
X008132Y030691D03*
X007463Y030691D03*
X006833Y028880D03*
X006164Y028880D03*
X006361Y026124D03*
X007030Y026124D03*
X008073Y027364D03*
X008073Y028034D03*
X006833Y032817D03*
X006164Y032817D03*
X011479Y029195D03*
X012148Y029195D03*
X013388Y027837D03*
X013388Y027168D03*
X009195Y018053D03*
X009195Y017463D03*
X008526Y017463D03*
X008526Y018053D03*
X006439Y017857D03*
X006439Y018447D03*
X005770Y018447D03*
X005770Y017857D03*
X015416Y002896D03*
X016085Y002896D03*
X016085Y002109D03*
X015416Y002109D03*
X020672Y006301D03*
X020672Y006971D03*
X021459Y005593D03*
X021459Y004923D03*
D21*
X019825Y006439D03*
X019156Y006439D03*
X013132Y016675D03*
X012463Y016675D03*
X012463Y018841D03*
X012463Y019431D03*
X013132Y019431D03*
X013132Y018841D03*
X010632Y023034D03*
X010632Y023703D03*
X013467Y028486D03*
X014136Y028486D03*
X011833Y030219D03*
X011833Y030888D03*
X010278Y035002D03*
X010278Y035671D03*
X010829Y036774D03*
X010829Y037443D03*
X011420Y037443D03*
X012010Y037443D03*
X012010Y036774D03*
X011420Y036774D03*
X011617Y035947D03*
X011026Y035947D03*
X011026Y035278D03*
X011617Y035278D03*
X012207Y035278D03*
X012207Y035947D03*
X010829Y038782D03*
X010239Y038782D03*
X009648Y038782D03*
X009648Y039451D03*
X009766Y040120D03*
X009766Y040711D03*
X009766Y041301D03*
X009097Y041301D03*
X009097Y040711D03*
X009097Y040120D03*
X010239Y039451D03*
X010829Y039451D03*
X006833Y039904D03*
X006164Y039904D03*
X006164Y035967D03*
X006833Y035967D03*
X006833Y032030D03*
X007443Y031990D03*
X007443Y031321D03*
X006164Y032030D03*
X006164Y028093D03*
X006833Y028093D03*
X005652Y026124D03*
X004983Y026124D03*
X010042Y018191D03*
X010042Y017522D03*
X009648Y016616D03*
X009648Y015947D03*
X008073Y015947D03*
X008073Y016616D03*
X010475Y045986D03*
X010475Y046656D03*
X009924Y046892D03*
X009924Y046223D03*
X006833Y047581D03*
X006833Y048171D03*
X006164Y048171D03*
X006164Y047581D03*
X013624Y046459D03*
X013624Y045790D03*
D22*
X013270Y047797D03*
X013270Y048546D03*
X011420Y023742D03*
X011420Y022994D03*
D23*
X007601Y042876D03*
X005435Y042876D03*
X005435Y046380D03*
X007601Y046380D03*
D24*
X007640Y045258D03*
X007640Y044943D03*
X007640Y044628D03*
X007640Y044313D03*
X007640Y043998D03*
D25*
X006617Y043762D03*
X006617Y045494D03*
D26*
X005487Y047453D03*
X005148Y047453D03*
X005148Y048103D03*
X005487Y048103D03*
D27*
X012798Y050534D03*
X012798Y022975D03*
D28*
X012798Y023762D03*
X012798Y051321D03*
D29*
X009884Y043014D03*
X009786Y042561D03*
X009372Y043014D03*
X009274Y042561D03*
D30*
X017069Y005337D03*
X017069Y004943D03*
X017069Y004549D03*
X017069Y004156D03*
X017069Y003762D03*
X017069Y003368D03*
X017069Y002975D03*
X017069Y002581D03*
X017069Y002187D03*
X017069Y001794D03*
X017069Y001400D03*
X017069Y001006D03*
X020534Y001006D03*
X020534Y001400D03*
X020534Y001794D03*
X020534Y002187D03*
X020534Y002581D03*
X020534Y002975D03*
X020534Y003368D03*
X020534Y003762D03*
X020534Y004156D03*
X020534Y004549D03*
X020534Y004943D03*
X020534Y005337D03*
D31*
X020534Y000553D03*
X017069Y000553D03*
D32*
X018014Y005494D03*
X018408Y005494D03*
X018802Y005494D03*
X019195Y005494D03*
X019589Y005494D03*
D33*
X013270Y015120D03*
X013270Y015494D03*
X013270Y015868D03*
X012325Y015868D03*
X012325Y015494D03*
X012325Y015120D03*
D34*
X006695Y015573D03*
X006105Y015573D03*
X005514Y015573D03*
X005514Y016990D03*
X006105Y016990D03*
X006695Y016990D03*
D35*
X006813Y016282D03*
D36*
X008546Y016715D03*
X008703Y016715D03*
X008861Y016715D03*
X009018Y016715D03*
X009176Y016715D03*
X009176Y015849D03*
X009018Y015849D03*
X008861Y015849D03*
X008703Y015849D03*
X008546Y015849D03*
D37*
X005069Y021536D03*
X005069Y021969D03*
X005069Y022402D03*
X005069Y022835D03*
X005069Y023268D03*
X005069Y023701D03*
X005069Y024134D03*
X005069Y024567D03*
D38*
X005317Y019825D03*
D39*
X005258Y025490D03*
X009778Y019864D03*
D40*
X010091Y021559D03*
X010091Y024622D03*
D41*
X009648Y025331D03*
D42*
X006105Y025331D03*
D43*
X013004Y031734D02*
X013378Y031734D01*
X013378Y031931D02*
X013004Y031931D01*
X013004Y032128D02*
X013378Y032128D01*
X013378Y032325D02*
X013004Y032325D01*
X013004Y032522D02*
X013378Y032522D01*
X013378Y032719D02*
X013004Y032719D01*
X013004Y032916D02*
X013378Y032916D01*
X013378Y033112D02*
X013004Y033112D01*
X013004Y033309D02*
X013378Y033309D01*
X013378Y033506D02*
X013004Y033506D01*
X013004Y033703D02*
X013378Y033703D01*
X013378Y033900D02*
X013004Y033900D01*
X013004Y034097D02*
X013378Y034097D01*
X013378Y034294D02*
X013004Y034294D01*
X013004Y034490D02*
X013378Y034490D01*
X013378Y034687D02*
X013004Y034687D01*
X013004Y034884D02*
X013378Y034884D01*
X013378Y035081D02*
X013004Y035081D01*
X013004Y035278D02*
X013378Y035278D01*
X013378Y035475D02*
X013004Y035475D01*
X013004Y035671D02*
X013378Y035671D01*
X013378Y035868D02*
X013004Y035868D01*
X013004Y036065D02*
X013378Y036065D01*
X013378Y036262D02*
X013004Y036262D01*
X013004Y036459D02*
X013378Y036459D01*
X013378Y036656D02*
X013004Y036656D01*
X013004Y036853D02*
X013378Y036853D01*
X013378Y037049D02*
X013004Y037049D01*
X013004Y037246D02*
X013378Y037246D01*
X013378Y037443D02*
X013004Y037443D01*
X013004Y037640D02*
X013378Y037640D01*
X013378Y037837D02*
X013004Y037837D01*
X013004Y038034D02*
X013378Y038034D01*
X013378Y038231D02*
X013004Y038231D01*
X013004Y038427D02*
X013378Y038427D01*
X013378Y038624D02*
X013004Y038624D01*
D44*
X014327Y039093D02*
X014327Y039613D01*
X014327Y039093D02*
X013925Y039093D01*
X013925Y039613D01*
X014327Y039613D01*
X014327Y039360D02*
X013925Y039360D01*
X014327Y031266D02*
X014327Y030746D01*
X013925Y030746D01*
X013925Y031266D01*
X014327Y031266D01*
X014327Y031013D02*
X013925Y031013D01*
D45*
X011692Y031323D03*
X011692Y031523D03*
X011692Y031723D03*
X011692Y031923D03*
X011692Y032123D03*
X011692Y032323D03*
X011692Y032523D03*
X011692Y032723D03*
X011692Y032923D03*
X011692Y033123D03*
X011692Y033323D03*
X011692Y033523D03*
X008392Y033523D03*
X008392Y033323D03*
X008392Y033123D03*
X008392Y032923D03*
X008392Y032723D03*
X008392Y032523D03*
X008392Y032323D03*
X008392Y032123D03*
X008392Y031923D03*
X008392Y031723D03*
X008392Y031523D03*
X008392Y031323D03*
D46*
X008942Y030773D03*
X009142Y030773D03*
X009342Y030773D03*
X009542Y030773D03*
X009742Y030773D03*
X009942Y030773D03*
X010142Y030773D03*
X010342Y030773D03*
X010542Y030773D03*
X010742Y030773D03*
X010942Y030773D03*
X011142Y030773D03*
X011142Y034073D03*
X010942Y034073D03*
X010742Y034073D03*
X010542Y034073D03*
X010342Y034073D03*
X010142Y034073D03*
X009942Y034073D03*
X009742Y034073D03*
X009542Y034073D03*
X009342Y034073D03*
X009142Y034073D03*
X008942Y034073D03*
D47*
X006298Y033801D03*
X006298Y034983D03*
X006298Y037738D03*
X006298Y038920D03*
X006298Y041675D03*
X008841Y050636D03*
X011597Y050636D03*
X006298Y031046D03*
X006298Y029864D03*
X006298Y027109D03*
D48*
X005317Y027601D03*
X005317Y029372D03*
X005317Y031538D03*
X005317Y033309D03*
X005317Y035475D03*
X005317Y037246D03*
X005317Y039412D03*
X005317Y041183D03*
X009333Y051616D03*
X011105Y051616D03*
D49*
X009042Y027199D03*
D50*
X009042Y028199D03*
X010042Y028199D03*
X010042Y027199D03*
X011042Y027199D03*
X011042Y028199D03*
D51*
X010101Y037931D03*
X010101Y038255D03*
M02*
