%
M48
M72
T01C0.0130
T02C0.0354
T03C0.0394
T04C0.0400
T05C0.0512
T06C0.1285
%
T01
X4924Y4471
X4924Y6439
X4924Y8408
X4924Y10376
X4924Y12345
X4924Y13920
X6321Y16282
X6400Y17483
X7739Y16203
X8369Y17069
X9274Y16223
X8073Y14707
X7286Y13920
X8861Y11557
X10042Y13920
X11223Y16675
X12404Y17857
X13585Y16675
X13624Y15612
X12935Y15494
X12798Y13920
X14412Y15612
X16735Y12345
X16735Y9983
X16735Y7620
X18014Y5986
X16538Y4156
X16538Y3762
X17601Y2187
X16577Y1794
X16577Y1400
X16577Y1006
X16577Y553
X14766Y534
X15002Y2128
X15002Y2896
X14766Y4077
X12798Y534
X10829Y534
X8861Y534
X8467Y2502
X10042Y4077
X12404Y4077
X13585Y8408
X12798Y11557
X10042Y8408
X6892Y8408
X6498Y4077
X8467Y19038
X9766Y20357
X9628Y22423
X10239Y23014
X10632Y24136
X11420Y24215
X9589Y24786
X8703Y24707
X8703Y25061
X8703Y25416
X8703Y25750
X7817Y25671
X7817Y25337
X7817Y25002
X7817Y24668
X7030Y25691
X6971Y26538
X7561Y26794
X7975Y28388
X8861Y30160
X9195Y30219
X9353Y29923
X9687Y30022
X9786Y29687
X10121Y29805
X10455Y29727
X10239Y29471
X10632Y31242
X9924Y31892
X9865Y32227
X9432Y31990
X9668Y31656
X9333Y31557
X8998Y31754
X8861Y31439
X8349Y31105
X7857Y31872
X9569Y32640
X10514Y32227
X11203Y32325
X11203Y32719
X12187Y32679
X12227Y33191
X11321Y34668
X10278Y36085
X10140Y36912
X9117Y37935
X8900Y38231
X8644Y37935
X8329Y38053
X8605Y37325
X8290Y37187
X7817Y37345
X7384Y37601
X8703Y36380
X9235Y34983
X9786Y34549
X12128Y31301
X12325Y30494
X12561Y29274
X12306Y28782
X12069Y28546
X11833Y28309
X12424Y27679
X12660Y27916
X12916Y28171
X13073Y27463
X13546Y29471
X13546Y29805
X13880Y29471
X13073Y29963
X13211Y30475
X14392Y30416
X13644Y35219
X11243Y39313
X10180Y41046
X10219Y41479
X10809Y42463
X11046Y42069
X10613Y43211
X10278Y43171
X10121Y42699
X9491Y43939
X9491Y44274
X9432Y44746
X9550Y45101
X8959Y44490
X8880Y44156
X8880Y43821
X8309Y44195
X8841Y42581
X9176Y41734
X8802Y40534
X8369Y40120
X7758Y41085
X7581Y40396
X7325Y40849
X7955Y42266
X9372Y40297
X12109Y43762
X12463Y43900
X12463Y44648
X12109Y44648
X12286Y45534
X12286Y46085
X11735Y46085
X11735Y45534
X11065Y45002
X11105Y44392
X10869Y46085
X10081Y45770
X10239Y47109
X10239Y49077
X12437Y46972
X12857Y46774
X13093Y45514
X13073Y45160
X13644Y45160
X13789Y45459
X13605Y44825
X14148Y46140
X14372Y47679
X12837Y48772
X13684Y43014
X13979Y39904
X6459Y44825
X5849Y44727
X5317Y45022
X6498Y28486
X5239Y25022
X5869Y23388
X6282Y22955
X5534Y22443
X5298Y20278
X8054Y22246
X12384Y20770
X12719Y20770
X13467Y20888
X13703Y21124
X14117Y20750
X13880Y20514
X12739Y19923
X12404Y19923
X19491Y12345
X20278Y13920
X22640Y13920
X22640Y11557
X24215Y8408
X26577Y11557
X25396Y13920
X28939Y13920
X29333Y11557
X30514Y8408
X32483Y8408
X32483Y6439
X32483Y4471
X30908Y4077
X28939Y2502
X28939Y534
X26971Y534
X25002Y534
X23034Y534
X21026Y534
X21026Y1006
X20002Y2187
X20022Y3349
X21026Y3762
X21026Y2581
X18802Y2187
X19589Y5986
X19491Y7620
X19491Y9983
X23034Y4077
X25396Y4077
X27758Y4077
X27758Y8408
X32483Y10376
X32483Y12345
X32483Y13920
T02
X12798Y22975
X12798Y23762
X12798Y50534
X12798Y51321
T03
X11105Y51616
X9333Y51616
X6617Y45494
X6617Y43762
X5317Y41183
X5317Y39412
X5317Y37246
X5317Y35475
X5317Y33309
X5317Y31538
X5317Y29372
X5317Y27601
T04
X9042Y27199
X9042Y28199
X10042Y28199
X10042Y27199
X11042Y27199
X11042Y28199
T05
X6298Y27109
X6298Y29864
X6298Y31046
X6298Y33801
X6298Y34983
X6298Y37738
X6298Y38920
X6298Y41675
X8841Y50636
X11597Y50636
T06
X8798Y48156
X8798Y4408
X28806Y4408
M30
