G75*
G70*
%OFA0B0*%
%FSLAX24Y24*%
%IPPOS*%
%LPD*%
%AMOC8*
5,1,8,0,0,1.08239X$1,22.5*
%
%ADD10C,0.0150*%
%ADD11C,0.0080*%
%ADD12C,0.0060*%
%ADD13C,0.0100*%
%ADD14C,0.0050*%
%ADD15C,0.0040*%
%ADD16R,0.0050X0.0305*%
%ADD17C,0.0220*%
%ADD18C,0.0200*%
D10*
X007361Y005869D02*
X007503Y005727D01*
X007786Y005727D01*
X007928Y005869D01*
X007928Y006152D01*
X007644Y006152D01*
X007361Y006436D02*
X007361Y005869D01*
X007361Y006436D02*
X007503Y006578D01*
X007786Y006578D01*
X007928Y006436D01*
X008282Y006152D02*
X008282Y005869D01*
X008423Y005727D01*
X008707Y005727D01*
X008849Y005869D01*
X008849Y006152D01*
X008707Y006294D01*
X008423Y006294D01*
X008282Y006152D01*
X009202Y006152D02*
X009344Y006294D01*
X009770Y006294D01*
X009770Y006578D02*
X009770Y005727D01*
X009344Y005727D01*
X009202Y005869D01*
X009202Y006152D01*
X010123Y006294D02*
X010123Y005869D01*
X010265Y005727D01*
X010407Y005869D01*
X010549Y005727D01*
X010690Y005869D01*
X010690Y006294D01*
X011044Y006294D02*
X011186Y006294D01*
X011186Y005727D01*
X011044Y005727D02*
X011328Y005727D01*
X011658Y006294D02*
X011941Y006294D01*
X011800Y006436D02*
X011800Y005869D01*
X011941Y005727D01*
X011186Y006578D02*
X011186Y006719D01*
X013193Y006294D02*
X013476Y005727D01*
X013760Y006294D01*
X014113Y006436D02*
X014255Y006578D01*
X014539Y006578D01*
X014680Y006436D01*
X014113Y005869D01*
X014255Y005727D01*
X014539Y005727D01*
X014680Y005869D01*
X014680Y006436D01*
X014113Y006436D02*
X014113Y005869D01*
X015034Y005727D02*
X015601Y005727D01*
X015318Y005727D02*
X015318Y006578D01*
X015034Y006294D01*
D11*
X016912Y005652D02*
X016912Y005612D01*
X016912Y005652D02*
X017739Y005652D01*
X019865Y005652D02*
X020691Y005652D01*
X020691Y005612D01*
X018299Y010037D02*
X018266Y010026D01*
X018231Y010022D01*
X017601Y010022D01*
X017601Y010297D01*
X018073Y010297D01*
X018073Y011242D01*
X017601Y011242D01*
X017601Y009156D01*
X017286Y009156D01*
X017286Y011518D01*
X018231Y011518D01*
X018266Y011514D01*
X018299Y011502D01*
X018329Y011484D01*
X018354Y011459D01*
X018373Y011429D01*
X018384Y011396D01*
X018388Y011360D01*
X018388Y010179D01*
X018384Y010144D01*
X018373Y010111D01*
X018354Y010081D01*
X018329Y010056D01*
X018299Y010037D01*
X018281Y010031D02*
X017601Y010031D01*
X017286Y010031D01*
X017286Y009953D02*
X017601Y009953D01*
X017601Y009874D02*
X017286Y009874D01*
X017286Y009796D02*
X017601Y009796D01*
X017601Y009717D02*
X017286Y009717D01*
X017286Y009639D02*
X017601Y009639D01*
X017601Y009560D02*
X017286Y009560D01*
X017286Y009482D02*
X017601Y009482D01*
X017601Y009403D02*
X017286Y009403D01*
X017286Y009325D02*
X017601Y009325D01*
X017601Y009246D02*
X017286Y009246D01*
X017286Y009168D02*
X017601Y009168D01*
X017601Y010110D02*
X017286Y010110D01*
X017286Y010188D02*
X017601Y010188D01*
X018388Y010188D01*
X018388Y010267D02*
X017601Y010267D01*
X017286Y010267D01*
X017286Y010345D02*
X017601Y010345D01*
X017601Y010424D02*
X017286Y010424D01*
X017286Y010502D02*
X017601Y010502D01*
X017601Y010581D02*
X017286Y010581D01*
X017286Y010659D02*
X017601Y010659D01*
X017601Y010738D02*
X017286Y010738D01*
X017286Y010816D02*
X017601Y010816D01*
X017601Y010895D02*
X017286Y010895D01*
X017286Y010973D02*
X017601Y010973D01*
X017601Y011052D02*
X017286Y011052D01*
X017286Y011130D02*
X017601Y011130D01*
X017601Y011209D02*
X017286Y011209D01*
X017286Y011287D02*
X018388Y011287D01*
X018388Y011209D02*
X018073Y011209D01*
X018073Y011130D02*
X018388Y011130D01*
X018388Y011052D02*
X018073Y011052D01*
X018073Y010973D02*
X018388Y010973D01*
X018388Y010895D02*
X018073Y010895D01*
X018073Y010816D02*
X018388Y010816D01*
X018388Y010738D02*
X018073Y010738D01*
X018073Y010659D02*
X018388Y010659D01*
X018388Y010581D02*
X018073Y010581D01*
X018073Y010502D02*
X018388Y010502D01*
X018388Y010424D02*
X018073Y010424D01*
X018073Y010345D02*
X018388Y010345D01*
X018372Y010110D02*
X017601Y010110D01*
X017286Y011366D02*
X018388Y011366D01*
X018363Y011444D02*
X017286Y011444D01*
X013034Y014923D02*
X012561Y014923D01*
X012837Y015101D02*
X012839Y015119D01*
X012845Y015135D01*
X012854Y015150D01*
X012867Y015163D01*
X012882Y015172D01*
X012898Y015178D01*
X012916Y015180D01*
X012934Y015178D01*
X012950Y015172D01*
X012965Y015163D01*
X012978Y015150D01*
X012987Y015135D01*
X012993Y015119D01*
X012995Y015101D01*
X012993Y015083D01*
X012987Y015067D01*
X012978Y015052D01*
X012965Y015039D01*
X012950Y015030D01*
X012934Y015024D01*
X012916Y015022D01*
X012898Y015024D01*
X012882Y015030D01*
X012867Y015039D01*
X012854Y015052D01*
X012845Y015067D01*
X012839Y015083D01*
X012837Y015101D01*
X013034Y016065D02*
X012561Y016065D01*
X010239Y020337D02*
X010239Y020927D01*
X010042Y022187D02*
X010042Y023920D01*
X009097Y025337D02*
X007286Y025337D01*
X007286Y025494D01*
X006617Y025494D01*
X005711Y027069D02*
X004294Y027069D01*
X004294Y029904D01*
X005711Y029904D01*
X005711Y028841D02*
X005711Y028132D01*
X004648Y025494D02*
X004333Y025494D01*
X004333Y024746D01*
X004530Y024746D01*
X004491Y024549D02*
X004493Y024561D01*
X004498Y024572D01*
X004507Y024581D01*
X004518Y024586D01*
X004530Y024588D01*
X004542Y024586D01*
X004553Y024581D01*
X004562Y024572D01*
X004567Y024561D01*
X004569Y024549D01*
X004567Y024537D01*
X004562Y024526D01*
X004553Y024517D01*
X004542Y024512D01*
X004530Y024510D01*
X004518Y024512D01*
X004507Y024517D01*
X004498Y024526D01*
X004493Y024537D01*
X004491Y024549D01*
X004530Y021400D02*
X004333Y021400D01*
X004333Y019825D01*
X004530Y019825D01*
X006105Y019825D02*
X009058Y019825D01*
X009373Y016833D02*
X009375Y016845D01*
X009380Y016856D01*
X009389Y016865D01*
X009400Y016870D01*
X009412Y016872D01*
X009424Y016870D01*
X009435Y016865D01*
X009444Y016856D01*
X009449Y016845D01*
X009451Y016833D01*
X009449Y016821D01*
X009444Y016810D01*
X009435Y016801D01*
X009424Y016796D01*
X009412Y016794D01*
X009400Y016796D01*
X009389Y016801D01*
X009380Y016810D01*
X009375Y016821D01*
X009373Y016833D01*
X009254Y016360D02*
X009254Y016203D01*
X008467Y016203D02*
X008467Y016360D01*
X007050Y017069D02*
X007052Y017081D01*
X007057Y017092D01*
X007066Y017101D01*
X007077Y017106D01*
X007089Y017108D01*
X007101Y017106D01*
X007112Y017101D01*
X007121Y017092D01*
X007126Y017081D01*
X007128Y017069D01*
X007126Y017057D01*
X007121Y017046D01*
X007112Y017037D01*
X007101Y017032D01*
X007089Y017030D01*
X007077Y017032D01*
X007066Y017037D01*
X007057Y017046D01*
X007052Y017057D01*
X007050Y017069D01*
X005357Y016557D02*
X005357Y016006D01*
X008191Y011518D02*
X008191Y009156D01*
X008506Y009156D01*
X008506Y010258D01*
X009018Y010258D01*
X009018Y009156D01*
X009333Y009156D01*
X009333Y011518D01*
X009018Y011518D01*
X009018Y010534D01*
X008506Y010534D01*
X008506Y011518D01*
X008191Y011518D01*
X008191Y011444D02*
X008506Y011444D01*
X008506Y011366D02*
X008191Y011366D01*
X008191Y011287D02*
X008506Y011287D01*
X008506Y011209D02*
X008191Y011209D01*
X008191Y011130D02*
X008506Y011130D01*
X008506Y011052D02*
X008191Y011052D01*
X008191Y010973D02*
X008506Y010973D01*
X008506Y010895D02*
X008191Y010895D01*
X008191Y010816D02*
X008506Y010816D01*
X008506Y010738D02*
X008191Y010738D01*
X008191Y010659D02*
X008506Y010659D01*
X008506Y010581D02*
X008191Y010581D01*
X008191Y010502D02*
X009333Y010502D01*
X009333Y010424D02*
X008191Y010424D01*
X008191Y010345D02*
X009333Y010345D01*
X009333Y010267D02*
X008191Y010267D01*
X008191Y010188D02*
X008506Y010188D01*
X008506Y010110D02*
X008191Y010110D01*
X008191Y010031D02*
X008506Y010031D01*
X008506Y009953D02*
X008191Y009953D01*
X008191Y009874D02*
X008506Y009874D01*
X008506Y009796D02*
X008191Y009796D01*
X008191Y009717D02*
X008506Y009717D01*
X008506Y009639D02*
X008191Y009639D01*
X008191Y009560D02*
X008506Y009560D01*
X008506Y009482D02*
X008191Y009482D01*
X008191Y009403D02*
X008506Y009403D01*
X008506Y009325D02*
X008191Y009325D01*
X008191Y009246D02*
X008506Y009246D01*
X008506Y009168D02*
X008191Y009168D01*
X009018Y009168D02*
X009333Y009168D01*
X009333Y009246D02*
X009018Y009246D01*
X009018Y009325D02*
X009333Y009325D01*
X009333Y009403D02*
X009018Y009403D01*
X009018Y009482D02*
X009333Y009482D01*
X009333Y009560D02*
X009018Y009560D01*
X009018Y009639D02*
X009333Y009639D01*
X009333Y009717D02*
X009018Y009717D01*
X009018Y009796D02*
X009333Y009796D01*
X009333Y009874D02*
X009018Y009874D01*
X009018Y009953D02*
X009333Y009953D01*
X009333Y010031D02*
X009018Y010031D01*
X009018Y010110D02*
X009333Y010110D01*
X009333Y010188D02*
X009018Y010188D01*
X009018Y010581D02*
X009333Y010581D01*
X009333Y010659D02*
X009018Y010659D01*
X009018Y010738D02*
X009333Y010738D01*
X009333Y010816D02*
X009018Y010816D01*
X009018Y010895D02*
X009333Y010895D01*
X009333Y010973D02*
X009018Y010973D01*
X009018Y011052D02*
X009333Y011052D01*
X009333Y011130D02*
X009018Y011130D01*
X009018Y011209D02*
X009333Y011209D01*
X009333Y011287D02*
X009018Y011287D01*
X009018Y011366D02*
X009333Y011366D01*
X009333Y011444D02*
X009018Y011444D01*
X016912Y000219D02*
X016912Y000140D01*
X020691Y000140D01*
X020691Y000219D01*
X009294Y026518D02*
X008782Y026518D01*
X005711Y031006D02*
X004294Y031006D01*
X004294Y033841D01*
X005711Y033841D01*
X005711Y032778D02*
X005711Y032069D01*
X005711Y034943D02*
X004294Y034943D01*
X004294Y037778D01*
X005711Y037778D01*
X005711Y036715D02*
X005711Y036006D01*
X005711Y038880D02*
X004294Y038880D01*
X004294Y041715D01*
X005711Y041715D01*
X005711Y040652D02*
X005711Y039943D01*
X006223Y043290D02*
X006853Y043290D01*
X008152Y045612D02*
X008154Y045624D01*
X008159Y045635D01*
X008168Y045644D01*
X008179Y045649D01*
X008191Y045651D01*
X008203Y045649D01*
X008214Y045644D01*
X008223Y045635D01*
X008228Y045624D01*
X008230Y045612D01*
X008228Y045600D01*
X008223Y045589D01*
X008214Y045580D01*
X008203Y045575D01*
X008191Y045573D01*
X008179Y045575D01*
X008168Y045580D01*
X008159Y045589D01*
X008154Y045600D01*
X008152Y045612D01*
X006853Y045967D02*
X006223Y045967D01*
X005563Y047740D02*
X005563Y047815D01*
X005071Y047815D02*
X005071Y047740D01*
X004885Y048093D02*
X004887Y048105D01*
X004892Y048116D01*
X004901Y048125D01*
X004912Y048130D01*
X004924Y048132D01*
X004936Y048130D01*
X004947Y048125D01*
X004956Y048116D01*
X004961Y048105D01*
X004963Y048093D01*
X004961Y048081D01*
X004956Y048070D01*
X004947Y048061D01*
X004936Y048056D01*
X004924Y048054D01*
X004912Y048056D01*
X004901Y048061D01*
X004892Y048070D01*
X004887Y048081D01*
X004885Y048093D01*
X008802Y051223D02*
X008802Y052640D01*
X011636Y052640D01*
X011636Y051223D01*
X010573Y051223D02*
X009865Y051223D01*
X011065Y049077D02*
X010711Y048723D01*
X011617Y048723D02*
X011617Y048565D01*
X011060Y048171D02*
X011062Y048218D01*
X011068Y048264D01*
X011077Y048310D01*
X011091Y048354D01*
X011108Y048398D01*
X011129Y048439D01*
X011153Y048479D01*
X011180Y048517D01*
X011211Y048552D01*
X011244Y048585D01*
X011280Y048615D01*
X011319Y048641D01*
X011359Y048665D01*
X011401Y048684D01*
X011445Y048701D01*
X011490Y048713D01*
X011536Y048722D01*
X011582Y048727D01*
X011629Y048728D01*
X011675Y048725D01*
X011721Y048718D01*
X011767Y048707D01*
X011811Y048693D01*
X011854Y048675D01*
X011895Y048653D01*
X011935Y048628D01*
X011972Y048600D01*
X012007Y048569D01*
X012039Y048535D01*
X012068Y048498D01*
X012093Y048460D01*
X012116Y048419D01*
X012135Y048376D01*
X012150Y048332D01*
X012162Y048287D01*
X012170Y048241D01*
X012174Y048194D01*
X012174Y048148D01*
X012170Y048101D01*
X012162Y048055D01*
X012150Y048010D01*
X012135Y047966D01*
X012116Y047923D01*
X012093Y047882D01*
X012068Y047844D01*
X012039Y047807D01*
X012007Y047773D01*
X011972Y047742D01*
X011935Y047714D01*
X011896Y047689D01*
X011854Y047667D01*
X011811Y047649D01*
X011767Y047635D01*
X011721Y047624D01*
X011675Y047617D01*
X011629Y047614D01*
X011582Y047615D01*
X011536Y047620D01*
X011490Y047629D01*
X011445Y047641D01*
X011401Y047658D01*
X011359Y047677D01*
X011319Y047701D01*
X011280Y047727D01*
X011244Y047757D01*
X011211Y047790D01*
X011180Y047825D01*
X011153Y047863D01*
X011129Y047903D01*
X011108Y047944D01*
X011091Y047988D01*
X011077Y048032D01*
X011068Y048078D01*
X011062Y048124D01*
X011060Y048171D01*
X010711Y047620D02*
X011065Y047266D01*
X011184Y046636D02*
X011341Y046636D01*
X011184Y046636D02*
X011184Y046479D01*
X011617Y047620D02*
X011617Y047778D01*
X012168Y047266D02*
X012522Y047620D01*
X012680Y046636D02*
X012837Y046636D01*
X012837Y046479D01*
X012837Y045140D02*
X012837Y044983D01*
X012680Y044983D01*
X011341Y044983D02*
X011184Y044983D01*
X011184Y045140D01*
X011223Y044786D02*
X011225Y044798D01*
X011230Y044809D01*
X011239Y044818D01*
X011250Y044823D01*
X011262Y044825D01*
X011274Y044823D01*
X011285Y044818D01*
X011294Y044809D01*
X011299Y044798D01*
X011301Y044786D01*
X011299Y044774D01*
X011294Y044763D01*
X011285Y044754D01*
X011274Y044749D01*
X011262Y044747D01*
X011250Y044749D01*
X011239Y044754D01*
X011230Y044763D01*
X011225Y044774D01*
X011223Y044786D01*
X011321Y042857D02*
X010534Y042857D01*
X010534Y041675D02*
X011321Y041675D01*
X011440Y041557D02*
X011442Y041569D01*
X011447Y041580D01*
X011456Y041589D01*
X011467Y041594D01*
X011479Y041596D01*
X011491Y041594D01*
X011502Y041589D01*
X011511Y041580D01*
X011516Y041569D01*
X011518Y041557D01*
X011516Y041545D01*
X011511Y041534D01*
X011502Y041525D01*
X011491Y041520D01*
X011479Y041518D01*
X011467Y041520D01*
X011456Y041525D01*
X011447Y041534D01*
X011442Y041545D01*
X011440Y041557D01*
X012148Y041026D02*
X012502Y040671D01*
X013054Y041026D02*
X013054Y041183D01*
X012497Y041577D02*
X012499Y041624D01*
X012505Y041670D01*
X012514Y041716D01*
X012528Y041760D01*
X012545Y041804D01*
X012566Y041845D01*
X012590Y041885D01*
X012617Y041923D01*
X012648Y041958D01*
X012681Y041991D01*
X012717Y042021D01*
X012756Y042047D01*
X012796Y042071D01*
X012838Y042090D01*
X012882Y042107D01*
X012927Y042119D01*
X012973Y042128D01*
X013019Y042133D01*
X013066Y042134D01*
X013112Y042131D01*
X013158Y042124D01*
X013204Y042113D01*
X013248Y042099D01*
X013291Y042081D01*
X013332Y042059D01*
X013372Y042034D01*
X013409Y042006D01*
X013444Y041975D01*
X013476Y041941D01*
X013505Y041904D01*
X013530Y041866D01*
X013553Y041825D01*
X013572Y041782D01*
X013587Y041738D01*
X013599Y041693D01*
X013607Y041647D01*
X013611Y041600D01*
X013611Y041554D01*
X013607Y041507D01*
X013599Y041461D01*
X013587Y041416D01*
X013572Y041372D01*
X013553Y041329D01*
X013530Y041288D01*
X013505Y041250D01*
X013476Y041213D01*
X013444Y041179D01*
X013409Y041148D01*
X013372Y041120D01*
X013333Y041095D01*
X013291Y041073D01*
X013248Y041055D01*
X013204Y041041D01*
X013158Y041030D01*
X013112Y041023D01*
X013066Y041020D01*
X013019Y041021D01*
X012973Y041026D01*
X012927Y041035D01*
X012882Y041047D01*
X012838Y041064D01*
X012796Y041083D01*
X012756Y041107D01*
X012717Y041133D01*
X012681Y041163D01*
X012648Y041196D01*
X012617Y041231D01*
X012590Y041269D01*
X012566Y041309D01*
X012545Y041350D01*
X012528Y041394D01*
X012514Y041438D01*
X012505Y041484D01*
X012499Y041530D01*
X012497Y041577D01*
X012148Y042128D02*
X012502Y042483D01*
X013054Y042128D02*
X013054Y041971D01*
X013605Y042483D02*
X013959Y042128D01*
X013959Y041026D02*
X013605Y040671D01*
X013703Y039510D02*
X013349Y039510D01*
X013349Y038841D01*
X014609Y039510D02*
X014609Y039786D01*
X015002Y039786D01*
X015002Y030573D01*
X014609Y030573D01*
X014609Y030849D01*
X013703Y030849D02*
X013349Y030849D01*
X013349Y031518D01*
X013074Y031479D02*
X013076Y031491D01*
X013081Y031502D01*
X013090Y031511D01*
X013101Y031516D01*
X013113Y031518D01*
X013125Y031516D01*
X013136Y031511D01*
X013145Y031502D01*
X013150Y031491D01*
X013152Y031479D01*
X013150Y031467D01*
X013145Y031456D01*
X013136Y031447D01*
X013125Y031442D01*
X013113Y031440D01*
X013101Y031442D01*
X013090Y031447D01*
X013081Y031456D01*
X013076Y031467D01*
X013074Y031479D01*
X012522Y048723D02*
X012168Y049077D01*
D12*
X012828Y049186D02*
X012998Y049186D01*
X013055Y049242D01*
X013055Y049299D01*
X012998Y049356D01*
X012828Y049356D01*
X012998Y049356D02*
X013055Y049413D01*
X013055Y049469D01*
X012998Y049526D01*
X012828Y049526D01*
X012828Y049186D01*
X013196Y049186D02*
X013196Y049413D01*
X013309Y049526D01*
X013423Y049413D01*
X013423Y049186D01*
X013423Y049356D02*
X013196Y049356D01*
X013564Y049526D02*
X013791Y049526D01*
X013678Y049526D02*
X013678Y049186D01*
X013933Y049526D02*
X014159Y049526D01*
X014046Y049526D02*
X014046Y049186D01*
X010396Y038526D02*
X009806Y038526D01*
X009805Y038527D02*
X009787Y038523D01*
X009769Y038517D01*
X009752Y038507D01*
X009738Y038495D01*
X009725Y038480D01*
X009716Y038464D01*
X009710Y038446D01*
X009706Y038427D01*
X009706Y038408D01*
X009707Y038408D02*
X009707Y037778D01*
X009706Y037778D02*
X009706Y037759D01*
X009710Y037740D01*
X009716Y037722D01*
X009726Y037706D01*
X009738Y037691D01*
X009752Y037679D01*
X009769Y037669D01*
X009786Y037663D01*
X009805Y037659D01*
X009806Y037660D02*
X010396Y037660D01*
X010396Y037659D02*
X010415Y037663D01*
X010432Y037669D01*
X010449Y037679D01*
X010463Y037691D01*
X010475Y037706D01*
X010485Y037722D01*
X010491Y037740D01*
X010495Y037759D01*
X010495Y037778D01*
X010495Y038408D01*
X010495Y038427D01*
X010491Y038446D01*
X010485Y038464D01*
X010475Y038480D01*
X010463Y038495D01*
X010449Y038507D01*
X010432Y038517D01*
X010415Y038523D01*
X010396Y038527D01*
X011442Y033823D02*
X008642Y033823D01*
X008642Y031023D01*
X011292Y031023D01*
X011442Y031173D01*
X011442Y033823D01*
X012484Y031842D02*
X012427Y031785D01*
X012427Y031615D01*
X012768Y031615D01*
X012768Y031785D01*
X012711Y031842D01*
X012484Y031842D01*
X012484Y031474D02*
X012427Y031417D01*
X012427Y031304D01*
X012484Y031247D01*
X012711Y031247D01*
X012768Y031304D01*
X012768Y031417D01*
X012711Y031474D01*
X012768Y031106D02*
X012768Y030879D01*
X012427Y030879D01*
X011001Y031323D02*
X011003Y031346D01*
X011009Y031369D01*
X011018Y031390D01*
X011031Y031410D01*
X011047Y031427D01*
X011065Y031441D01*
X011085Y031452D01*
X011107Y031460D01*
X011130Y031464D01*
X011154Y031464D01*
X011177Y031460D01*
X011199Y031452D01*
X011219Y031441D01*
X011237Y031427D01*
X011253Y031410D01*
X011266Y031390D01*
X011275Y031369D01*
X011281Y031346D01*
X011283Y031323D01*
X011281Y031300D01*
X011275Y031277D01*
X011266Y031256D01*
X011253Y031236D01*
X011237Y031219D01*
X011219Y031205D01*
X011199Y031194D01*
X011177Y031186D01*
X011154Y031182D01*
X011130Y031182D01*
X011107Y031186D01*
X011085Y031194D01*
X011065Y031205D01*
X011047Y031219D01*
X011031Y031236D01*
X011018Y031256D01*
X011009Y031277D01*
X011003Y031300D01*
X011001Y031323D01*
X012434Y025117D02*
X012604Y025117D01*
X012661Y025060D01*
X012661Y025003D01*
X012604Y024946D01*
X012434Y024946D01*
X012434Y024776D02*
X012604Y024776D01*
X012661Y024833D01*
X012661Y024890D01*
X012604Y024946D01*
X012802Y024833D02*
X012802Y025117D01*
X013029Y025117D02*
X013029Y024833D01*
X012972Y024776D01*
X012859Y024776D01*
X012802Y024833D01*
X013171Y024833D02*
X013171Y024776D01*
X013397Y024776D01*
X013539Y024776D02*
X013766Y024776D01*
X013907Y024776D02*
X014134Y024776D01*
X014276Y024776D02*
X014276Y025117D01*
X014446Y025117D01*
X014502Y025060D01*
X014502Y024946D01*
X014446Y024890D01*
X014276Y024890D01*
X014389Y024890D02*
X014502Y024776D01*
X014134Y025117D02*
X013907Y025117D01*
X013907Y024776D01*
X013907Y024946D02*
X014021Y024946D01*
X013766Y025060D02*
X013539Y024833D01*
X013539Y024776D01*
X013397Y025060D02*
X013171Y024833D01*
X013171Y025117D02*
X013397Y025117D01*
X013397Y025060D01*
X013539Y025117D02*
X013766Y025117D01*
X013766Y025060D01*
X012434Y025117D02*
X012434Y024776D01*
X021332Y012124D02*
X021332Y011784D01*
X021502Y011784D01*
X021558Y011841D01*
X021558Y011954D01*
X021502Y012011D01*
X021332Y012011D01*
X021700Y011841D02*
X021757Y011898D01*
X021927Y011898D01*
X021927Y011954D02*
X021927Y011784D01*
X021757Y011784D01*
X021700Y011841D01*
X021757Y012011D02*
X021870Y012011D01*
X021927Y011954D01*
X022068Y011898D02*
X022182Y012011D01*
X022238Y012011D01*
X022375Y011954D02*
X022602Y011954D01*
X022743Y012011D02*
X022857Y012011D01*
X022800Y012068D02*
X022800Y011841D01*
X022857Y011784D01*
X022989Y011841D02*
X023046Y011898D01*
X023216Y011898D01*
X023216Y011954D02*
X023216Y011784D01*
X023046Y011784D01*
X022989Y011841D01*
X023046Y012011D02*
X023159Y012011D01*
X023216Y011954D01*
X023357Y012011D02*
X023414Y012011D01*
X023414Y011784D01*
X023357Y011784D02*
X023471Y011784D01*
X023603Y011784D02*
X023716Y011784D01*
X023660Y011784D02*
X023660Y012124D01*
X023603Y012124D01*
X023414Y012124D02*
X023414Y012181D01*
X023848Y011954D02*
X023905Y012011D01*
X024019Y012011D01*
X024075Y011954D01*
X024075Y011898D01*
X023848Y011898D01*
X023848Y011954D02*
X023848Y011841D01*
X023905Y011784D01*
X024019Y011784D01*
X024217Y011841D02*
X024217Y011954D01*
X024273Y012011D01*
X024444Y012011D01*
X024444Y012124D02*
X024444Y011784D01*
X024273Y011784D01*
X024217Y011841D01*
X024162Y011224D02*
X023992Y011224D01*
X023935Y011167D01*
X023935Y011053D01*
X023992Y010997D01*
X024162Y010997D01*
X024162Y010940D02*
X024162Y011224D01*
X024304Y011167D02*
X024360Y011224D01*
X024474Y011224D01*
X024530Y011167D01*
X024530Y011110D01*
X024304Y011110D01*
X024304Y011053D02*
X024304Y011167D01*
X024304Y011053D02*
X024360Y010997D01*
X024474Y010997D01*
X024420Y010803D02*
X024420Y010747D01*
X024420Y010633D02*
X024420Y010406D01*
X024364Y010406D02*
X024477Y010406D01*
X024609Y010463D02*
X024666Y010406D01*
X024836Y010406D01*
X024977Y010463D02*
X025034Y010520D01*
X025204Y010520D01*
X025204Y010576D02*
X025204Y010406D01*
X025034Y010406D01*
X024977Y010463D01*
X025034Y010633D02*
X025148Y010633D01*
X025204Y010576D01*
X025403Y010463D02*
X025403Y010406D01*
X025459Y010406D01*
X025459Y010463D01*
X025403Y010463D01*
X025459Y010406D02*
X025346Y010293D01*
X025157Y010213D02*
X025157Y010156D01*
X025157Y010043D02*
X025157Y009816D01*
X025100Y009816D02*
X025214Y009816D01*
X025346Y009872D02*
X025346Y009986D01*
X025403Y010043D01*
X025573Y010043D01*
X025573Y010156D02*
X025573Y009816D01*
X025403Y009816D01*
X025346Y009872D01*
X025157Y010043D02*
X025100Y010043D01*
X024959Y010043D02*
X024789Y010043D01*
X024732Y009986D01*
X024732Y009872D01*
X024789Y009816D01*
X024959Y009816D01*
X024590Y009816D02*
X024420Y009816D01*
X024364Y009872D01*
X024420Y009929D01*
X024590Y009929D01*
X024590Y009986D02*
X024590Y009816D01*
X024590Y009986D02*
X024534Y010043D01*
X024420Y010043D01*
X024222Y009986D02*
X024222Y009872D01*
X024165Y009816D01*
X023995Y009816D01*
X023995Y009702D02*
X023995Y010043D01*
X024165Y010043D01*
X024222Y009986D01*
X024236Y009622D02*
X024236Y009565D01*
X024236Y009452D02*
X024236Y009225D01*
X024179Y009225D02*
X024293Y009225D01*
X024425Y009225D02*
X024425Y009452D01*
X024595Y009452D01*
X024652Y009395D01*
X024652Y009225D01*
X024793Y009282D02*
X024850Y009225D01*
X025020Y009225D01*
X025020Y009168D02*
X025020Y009452D01*
X024850Y009452D01*
X024793Y009395D01*
X024793Y009282D01*
X024907Y009112D02*
X024963Y009112D01*
X025020Y009168D01*
X025346Y008861D02*
X025403Y008861D01*
X025459Y008805D01*
X025516Y008861D01*
X025573Y008805D01*
X025573Y008635D01*
X025459Y008635D02*
X025459Y008805D01*
X025346Y008861D02*
X025346Y008635D01*
X025464Y008441D02*
X025464Y008384D01*
X025464Y008271D02*
X025464Y008044D01*
X025407Y008044D02*
X025521Y008044D01*
X025709Y008101D02*
X025766Y008044D01*
X025709Y008101D02*
X025709Y008328D01*
X025653Y008271D02*
X025766Y008271D01*
X025898Y008214D02*
X025955Y008271D01*
X026068Y008271D01*
X026125Y008214D01*
X026125Y008044D01*
X026267Y008101D02*
X026323Y008044D01*
X026437Y008044D01*
X026493Y008101D01*
X026493Y008214D01*
X026437Y008271D01*
X026323Y008271D01*
X026267Y008214D01*
X026267Y008101D01*
X026635Y008101D02*
X026692Y008044D01*
X026862Y008044D01*
X026862Y008271D01*
X027003Y008271D02*
X027117Y008271D01*
X027060Y008328D02*
X027060Y008101D01*
X027117Y008044D01*
X027183Y007680D02*
X027296Y007680D01*
X027353Y007624D01*
X027353Y007453D01*
X027183Y007453D01*
X027126Y007510D01*
X027183Y007567D01*
X027353Y007567D01*
X027494Y007680D02*
X027664Y007680D01*
X027721Y007624D01*
X027721Y007453D01*
X027863Y007510D02*
X027919Y007453D01*
X028089Y007453D01*
X028089Y007397D02*
X028089Y007680D01*
X027863Y007680D02*
X027863Y007510D01*
X027976Y007340D02*
X028033Y007340D01*
X028089Y007397D01*
X028599Y007510D02*
X028656Y007567D01*
X028826Y007567D01*
X028826Y007624D02*
X028826Y007453D01*
X028656Y007453D01*
X028599Y007510D01*
X028656Y007680D02*
X028769Y007680D01*
X028826Y007624D01*
X028968Y007680D02*
X029138Y007680D01*
X029194Y007624D01*
X029194Y007453D01*
X029336Y007453D02*
X029449Y007453D01*
X029393Y007453D02*
X029393Y007680D01*
X029336Y007680D01*
X029393Y007794D02*
X029393Y007850D01*
X029393Y008044D02*
X029393Y008271D01*
X029336Y008271D01*
X029393Y008384D02*
X029393Y008441D01*
X029459Y008635D02*
X029459Y008861D01*
X029629Y008861D01*
X029685Y008805D01*
X029685Y008635D01*
X029827Y008691D02*
X029884Y008635D01*
X030054Y008635D01*
X030054Y008578D02*
X030054Y008861D01*
X029884Y008861D01*
X029827Y008805D01*
X029827Y008691D01*
X029940Y008521D02*
X029997Y008521D01*
X030054Y008578D01*
X030195Y008691D02*
X030195Y008805D01*
X030252Y008861D01*
X030365Y008861D01*
X030422Y008805D01*
X030422Y008748D01*
X030195Y008748D01*
X030195Y008691D02*
X030252Y008635D01*
X030365Y008635D01*
X030564Y008635D02*
X030734Y008635D01*
X030790Y008691D01*
X030734Y008748D01*
X030620Y008748D01*
X030564Y008805D01*
X030620Y008861D01*
X030790Y008861D01*
X030932Y008861D02*
X031045Y008861D01*
X030989Y008918D02*
X030989Y008691D01*
X031045Y008635D01*
X030800Y008384D02*
X030743Y008328D01*
X030743Y008044D01*
X030686Y008214D02*
X030800Y008214D01*
X030932Y008214D02*
X030932Y008101D01*
X030989Y008044D01*
X031102Y008044D01*
X031159Y008101D01*
X031159Y008214D01*
X031102Y008271D01*
X030989Y008271D01*
X030932Y008214D01*
X031300Y008157D02*
X031414Y008271D01*
X031470Y008271D01*
X031300Y008271D02*
X031300Y008044D01*
X030431Y007453D02*
X030318Y007453D01*
X030375Y007453D02*
X030375Y007794D01*
X030318Y007794D01*
X030177Y007624D02*
X030177Y007453D01*
X030006Y007453D01*
X029950Y007510D01*
X030006Y007567D01*
X030177Y007567D01*
X030177Y007624D02*
X030120Y007680D01*
X030006Y007680D01*
X029808Y007624D02*
X029808Y007453D01*
X029695Y007453D02*
X029695Y007624D01*
X029752Y007680D01*
X029808Y007624D01*
X029695Y007624D02*
X029638Y007680D01*
X029581Y007680D01*
X029581Y007453D01*
X029581Y008044D02*
X029581Y008271D01*
X029752Y008271D01*
X029808Y008214D01*
X029808Y008044D01*
X029950Y008101D02*
X030006Y008044D01*
X030177Y008044D01*
X030177Y007987D02*
X030177Y008271D01*
X030006Y008271D01*
X029950Y008214D01*
X029950Y008101D01*
X030063Y007931D02*
X030120Y007931D01*
X030177Y007987D01*
X029449Y008044D02*
X029336Y008044D01*
X029194Y008101D02*
X029138Y008044D01*
X028968Y008044D01*
X028968Y007931D02*
X028968Y008271D01*
X029138Y008271D01*
X029194Y008214D01*
X029194Y008101D01*
X028826Y008101D02*
X028769Y008044D01*
X028599Y008044D01*
X028599Y007931D02*
X028599Y008271D01*
X028769Y008271D01*
X028826Y008214D01*
X028826Y008101D01*
X028458Y008101D02*
X028458Y008214D01*
X028401Y008271D01*
X028288Y008271D01*
X028231Y008214D01*
X028231Y008101D01*
X028288Y008044D01*
X028401Y008044D01*
X028458Y008101D01*
X028099Y008044D02*
X028042Y008101D01*
X028042Y008328D01*
X027985Y008271D02*
X028099Y008271D01*
X027844Y008271D02*
X027674Y008271D01*
X027617Y008214D01*
X027674Y008157D01*
X027787Y008157D01*
X027844Y008101D01*
X027787Y008044D01*
X027617Y008044D01*
X027494Y007680D02*
X027494Y007453D01*
X027608Y008635D02*
X027551Y008691D01*
X027551Y008918D01*
X027494Y008861D02*
X027608Y008861D01*
X027740Y008805D02*
X027797Y008861D01*
X027910Y008861D01*
X027967Y008805D01*
X027967Y008635D01*
X028108Y008691D02*
X028108Y008805D01*
X028165Y008861D01*
X028278Y008861D01*
X028335Y008805D01*
X028335Y008748D01*
X028108Y008748D01*
X028108Y008691D02*
X028165Y008635D01*
X028278Y008635D01*
X027740Y008635D02*
X027740Y008975D01*
X027669Y009225D02*
X027556Y009225D01*
X027612Y009225D02*
X027612Y009565D01*
X027556Y009565D01*
X027414Y009452D02*
X027414Y009225D01*
X027414Y009395D02*
X027187Y009395D01*
X027187Y009452D02*
X027301Y009565D01*
X027414Y009452D01*
X027187Y009452D02*
X027187Y009225D01*
X026985Y008861D02*
X026814Y008861D01*
X026758Y008805D01*
X026814Y008748D01*
X026928Y008748D01*
X026985Y008691D01*
X026928Y008635D01*
X026758Y008635D01*
X026616Y008748D02*
X026389Y008748D01*
X026389Y008805D02*
X026446Y008861D01*
X026559Y008861D01*
X026616Y008805D01*
X026616Y008748D01*
X026559Y008635D02*
X026446Y008635D01*
X026389Y008691D01*
X026389Y008805D01*
X026253Y008861D02*
X026082Y008748D01*
X026253Y008635D01*
X026082Y008635D02*
X026082Y008975D01*
X025941Y008805D02*
X025941Y008635D01*
X025771Y008635D01*
X025714Y008691D01*
X025771Y008748D01*
X025941Y008748D01*
X025941Y008805D02*
X025884Y008861D01*
X025771Y008861D01*
X025775Y009225D02*
X025775Y009452D01*
X025775Y009339D02*
X025889Y009452D01*
X025946Y009452D01*
X026082Y009395D02*
X026082Y009282D01*
X026139Y009225D01*
X026253Y009225D01*
X026309Y009282D01*
X026309Y009395D01*
X026253Y009452D01*
X026139Y009452D01*
X026082Y009395D01*
X026451Y009452D02*
X026507Y009452D01*
X026564Y009395D01*
X026621Y009452D01*
X026678Y009395D01*
X026678Y009225D01*
X026564Y009225D02*
X026564Y009395D01*
X026451Y009452D02*
X026451Y009225D01*
X026253Y009816D02*
X026139Y009816D01*
X026082Y009872D01*
X026082Y009986D01*
X026139Y010043D01*
X026253Y010043D01*
X026309Y009986D01*
X026309Y009929D01*
X026082Y009929D01*
X025941Y009929D02*
X025771Y009929D01*
X025714Y009872D01*
X025771Y009816D01*
X025941Y009816D01*
X025941Y009986D01*
X025884Y010043D01*
X025771Y010043D01*
X026016Y010406D02*
X025960Y010463D01*
X025960Y010576D01*
X026016Y010633D01*
X026130Y010633D01*
X026187Y010576D01*
X026187Y010463D01*
X026130Y010406D01*
X026016Y010406D01*
X026328Y010576D02*
X026441Y010576D01*
X026385Y010690D02*
X026441Y010747D01*
X026385Y010690D02*
X026385Y010406D01*
X026315Y010997D02*
X026202Y010997D01*
X026145Y011053D01*
X026145Y011167D01*
X026202Y011224D01*
X026315Y011224D01*
X026372Y011167D01*
X026372Y011110D01*
X026145Y011110D01*
X026004Y010997D02*
X026004Y011337D01*
X026004Y011224D02*
X025833Y011224D01*
X025777Y011167D01*
X025777Y011053D01*
X025833Y010997D01*
X026004Y010997D01*
X025635Y010997D02*
X025635Y011167D01*
X025579Y011224D01*
X025465Y011224D01*
X025465Y011110D02*
X025635Y011110D01*
X025635Y010997D02*
X025465Y010997D01*
X025408Y011053D01*
X025465Y011110D01*
X025267Y011053D02*
X025267Y011224D01*
X025267Y011053D02*
X025210Y010997D01*
X025154Y011053D01*
X025097Y010997D01*
X025040Y011053D01*
X025040Y011224D01*
X025067Y011671D02*
X025124Y011671D01*
X025180Y011727D01*
X025180Y012011D01*
X025010Y012011D01*
X024953Y011954D01*
X024953Y011841D01*
X025010Y011784D01*
X025180Y011784D01*
X025322Y011841D02*
X025378Y011784D01*
X025492Y011784D01*
X025549Y011841D01*
X025549Y011954D01*
X025492Y012011D01*
X025378Y012011D01*
X025322Y011954D01*
X025322Y011841D01*
X025690Y011841D02*
X025690Y011954D01*
X025747Y012011D01*
X025917Y012011D01*
X025917Y012124D02*
X025917Y011784D01*
X025747Y011784D01*
X025690Y011841D01*
X026058Y011841D02*
X026115Y011784D01*
X026172Y011841D01*
X026228Y011784D01*
X026285Y011841D01*
X026285Y012011D01*
X026427Y012011D02*
X026483Y012011D01*
X026483Y011784D01*
X026427Y011784D02*
X026540Y011784D01*
X026729Y011841D02*
X026786Y011784D01*
X026729Y011841D02*
X026729Y012068D01*
X026672Y012011D02*
X026786Y012011D01*
X026483Y012124D02*
X026483Y012181D01*
X026058Y012011D02*
X026058Y011841D01*
X026513Y011224D02*
X026513Y010997D01*
X026513Y011110D02*
X026627Y011224D01*
X026684Y011224D01*
X026877Y011053D02*
X026877Y010997D01*
X026934Y010997D01*
X026934Y011053D01*
X026877Y011053D01*
X026934Y010997D02*
X026820Y010883D01*
X026999Y010690D02*
X026999Y010463D01*
X027055Y010406D01*
X027187Y010406D02*
X027187Y010747D01*
X027244Y010633D02*
X027358Y010633D01*
X027414Y010576D01*
X027414Y010406D01*
X027556Y010463D02*
X027556Y010576D01*
X027612Y010633D01*
X027726Y010633D01*
X027783Y010576D01*
X027783Y010520D01*
X027556Y010520D01*
X027556Y010463D02*
X027612Y010406D01*
X027726Y010406D01*
X027612Y010213D02*
X027612Y010156D01*
X027612Y010043D02*
X027612Y009816D01*
X027556Y009816D02*
X027669Y009816D01*
X027801Y009872D02*
X027858Y009816D01*
X028028Y009816D01*
X028170Y009816D02*
X028170Y010156D01*
X028226Y010043D02*
X028340Y010043D01*
X028396Y009986D01*
X028396Y009816D01*
X028538Y009702D02*
X028651Y009816D01*
X028595Y009816D01*
X028595Y009872D01*
X028651Y009872D01*
X028651Y009816D01*
X028538Y009565D02*
X028538Y009225D01*
X028538Y009339D02*
X028708Y009452D01*
X028901Y009452D02*
X029015Y009452D01*
X029072Y009395D01*
X029072Y009225D01*
X028901Y009225D01*
X028845Y009282D01*
X028901Y009339D01*
X029072Y009339D01*
X028901Y008975D02*
X028901Y008635D01*
X028845Y008635D02*
X028958Y008635D01*
X029090Y008691D02*
X029147Y008635D01*
X029260Y008635D01*
X029317Y008691D01*
X029317Y008805D01*
X029260Y008861D01*
X029147Y008861D01*
X029090Y008805D01*
X029090Y008691D01*
X028901Y008975D02*
X028845Y008975D01*
X028708Y009225D02*
X028538Y009339D01*
X028396Y009282D02*
X028340Y009339D01*
X028226Y009339D01*
X028170Y009395D01*
X028226Y009452D01*
X028396Y009452D01*
X028396Y009282D02*
X028340Y009225D01*
X028170Y009225D01*
X028028Y009225D02*
X027858Y009225D01*
X027801Y009282D01*
X027858Y009339D01*
X028028Y009339D01*
X028028Y009395D02*
X028028Y009225D01*
X028028Y009395D02*
X027971Y009452D01*
X027858Y009452D01*
X027801Y009872D02*
X027801Y009986D01*
X027858Y010043D01*
X028028Y010043D01*
X028170Y009986D02*
X028226Y010043D01*
X028349Y010406D02*
X028349Y010690D01*
X028406Y010747D01*
X028406Y010576D02*
X028292Y010576D01*
X028538Y010463D02*
X028595Y010520D01*
X028765Y010520D01*
X028765Y010576D02*
X028765Y010406D01*
X028595Y010406D01*
X028538Y010463D01*
X028595Y010633D02*
X028708Y010633D01*
X028765Y010576D01*
X028906Y010633D02*
X028906Y010406D01*
X029020Y010406D02*
X029020Y010576D01*
X029076Y010633D01*
X029133Y010576D01*
X029133Y010406D01*
X029274Y010406D02*
X029388Y010406D01*
X029331Y010406D02*
X029331Y010633D01*
X029274Y010633D01*
X029331Y010747D02*
X029331Y010803D01*
X029520Y010747D02*
X029577Y010747D01*
X029577Y010406D01*
X029633Y010406D02*
X029520Y010406D01*
X029766Y010463D02*
X029766Y010633D01*
X029766Y010463D02*
X029822Y010406D01*
X029992Y010406D01*
X029992Y010350D02*
X029936Y010293D01*
X029879Y010293D01*
X029992Y010350D02*
X029992Y010633D01*
X029380Y010997D02*
X029210Y010997D01*
X029153Y011053D01*
X029210Y011110D01*
X029380Y011110D01*
X029380Y011167D02*
X029380Y010997D01*
X029380Y011167D02*
X029323Y011224D01*
X029210Y011224D01*
X029012Y011224D02*
X028841Y011224D01*
X028785Y011167D01*
X028841Y011110D01*
X028955Y011110D01*
X029012Y011053D01*
X028955Y010997D01*
X028785Y010997D01*
X028643Y011053D02*
X028643Y011167D01*
X028587Y011224D01*
X028473Y011224D01*
X028416Y011167D01*
X028416Y011053D01*
X028473Y010997D01*
X028587Y010997D01*
X028643Y011053D01*
X028275Y010997D02*
X028275Y011167D01*
X028218Y011224D01*
X028161Y011167D01*
X028161Y010997D01*
X028048Y010997D02*
X028048Y011224D01*
X028105Y011224D01*
X028161Y011167D01*
X027916Y010997D02*
X027803Y010997D01*
X027859Y010997D02*
X027859Y011224D01*
X027803Y011224D01*
X027859Y011337D02*
X027859Y011394D01*
X027881Y011784D02*
X027881Y011954D01*
X027824Y012011D01*
X027654Y012011D01*
X027654Y011784D01*
X028023Y011841D02*
X028079Y011784D01*
X028193Y011784D01*
X028250Y011841D01*
X028250Y011954D01*
X028193Y012011D01*
X028079Y012011D01*
X028023Y011954D01*
X028023Y011841D01*
X027434Y011337D02*
X027434Y010997D01*
X027661Y010997D01*
X027244Y010633D02*
X027187Y010576D01*
X027055Y010633D02*
X026942Y010633D01*
X027187Y010156D02*
X027187Y009816D01*
X027046Y009872D02*
X027046Y010043D01*
X027187Y009986D02*
X027244Y010043D01*
X027358Y010043D01*
X027414Y009986D01*
X027414Y009816D01*
X027556Y010043D02*
X027612Y010043D01*
X027046Y009872D02*
X026989Y009816D01*
X026932Y009872D01*
X026876Y009816D01*
X026819Y009872D01*
X026819Y010043D01*
X026635Y008271D02*
X026635Y008101D01*
X026616Y007680D02*
X026616Y007397D01*
X026559Y007340D01*
X026503Y007340D01*
X026446Y007453D02*
X026616Y007453D01*
X026446Y007453D02*
X026389Y007510D01*
X026389Y007680D01*
X026248Y007624D02*
X026191Y007680D01*
X026021Y007680D01*
X026021Y007794D02*
X026021Y007453D01*
X026191Y007453D01*
X026248Y007510D01*
X026248Y007624D01*
X025898Y008044D02*
X025898Y008384D01*
X025464Y008271D02*
X025407Y008271D01*
X025266Y008271D02*
X025266Y008101D01*
X025209Y008044D01*
X025152Y008101D01*
X025096Y008044D01*
X025039Y008101D01*
X025039Y008271D01*
X024732Y008521D02*
X024845Y008635D01*
X024789Y008635D01*
X024789Y008691D01*
X024845Y008691D01*
X024845Y008635D01*
X024590Y008635D02*
X024420Y008635D01*
X024364Y008691D01*
X024364Y008805D01*
X024420Y008861D01*
X024590Y008861D01*
X024590Y008975D02*
X024590Y008635D01*
X024222Y008635D02*
X024222Y008805D01*
X024165Y008861D01*
X023995Y008861D01*
X023995Y008635D01*
X023854Y008635D02*
X023684Y008635D01*
X023627Y008691D01*
X023684Y008748D01*
X023854Y008748D01*
X023854Y008805D02*
X023854Y008635D01*
X023854Y008805D02*
X023797Y008861D01*
X023684Y008861D01*
X023438Y008975D02*
X023438Y008635D01*
X023381Y008635D02*
X023495Y008635D01*
X023240Y008635D02*
X023070Y008635D01*
X023013Y008691D01*
X023070Y008748D01*
X023240Y008748D01*
X023240Y008805D02*
X023240Y008635D01*
X023240Y008805D02*
X023183Y008861D01*
X023070Y008861D01*
X022872Y008805D02*
X022872Y008748D01*
X022645Y008748D01*
X022645Y008805D02*
X022702Y008861D01*
X022815Y008861D01*
X022872Y008805D01*
X022815Y008635D02*
X022702Y008635D01*
X022645Y008691D01*
X022645Y008805D01*
X022503Y008918D02*
X022277Y008691D01*
X022277Y008635D01*
X022503Y008635D01*
X022390Y008441D02*
X022390Y008384D01*
X022390Y008271D02*
X022390Y007987D01*
X022333Y007931D01*
X022277Y007931D01*
X022390Y007794D02*
X022333Y007737D01*
X022333Y007453D01*
X022277Y007624D02*
X022390Y007624D01*
X022522Y007624D02*
X022522Y007510D01*
X022579Y007453D01*
X022692Y007453D01*
X022749Y007510D01*
X022749Y007624D01*
X022692Y007680D01*
X022579Y007680D01*
X022522Y007624D01*
X022890Y007624D02*
X022890Y007510D01*
X022947Y007453D01*
X023061Y007453D01*
X023117Y007510D01*
X023117Y007624D01*
X023061Y007680D01*
X022947Y007680D01*
X022890Y007624D01*
X023259Y007624D02*
X023315Y007680D01*
X023486Y007680D01*
X023486Y007794D02*
X023486Y007453D01*
X023315Y007453D01*
X023259Y007510D01*
X023259Y007624D01*
X023259Y008044D02*
X023259Y008271D01*
X023372Y008271D02*
X023429Y008271D01*
X023372Y008271D02*
X023259Y008157D01*
X023117Y008044D02*
X023117Y008271D01*
X022890Y008271D02*
X022890Y008101D01*
X022947Y008044D01*
X023117Y008044D01*
X022749Y008101D02*
X022749Y008214D01*
X022692Y008271D01*
X022579Y008271D01*
X022522Y008214D01*
X022522Y008101D01*
X022579Y008044D01*
X022692Y008044D01*
X022749Y008101D01*
X022503Y008918D02*
X022503Y008975D01*
X022277Y008975D01*
X022277Y009225D02*
X022277Y009452D01*
X022333Y009452D01*
X022390Y009395D01*
X022447Y009452D01*
X022503Y009395D01*
X022503Y009225D01*
X022390Y009225D02*
X022390Y009395D01*
X022645Y009452D02*
X022702Y009452D01*
X022702Y009225D01*
X022758Y009225D02*
X022645Y009225D01*
X022890Y009282D02*
X022947Y009225D01*
X023117Y009225D01*
X023117Y009168D02*
X023117Y009452D01*
X022947Y009452D01*
X022890Y009395D01*
X022890Y009282D01*
X023004Y009112D02*
X023061Y009112D01*
X023117Y009168D01*
X023259Y009225D02*
X023259Y009452D01*
X023372Y009452D02*
X023429Y009452D01*
X023372Y009452D02*
X023259Y009339D01*
X023566Y009282D02*
X023622Y009339D01*
X023792Y009339D01*
X023792Y009395D02*
X023792Y009225D01*
X023622Y009225D01*
X023566Y009282D01*
X023622Y009452D02*
X023736Y009452D01*
X023792Y009395D01*
X023934Y009452D02*
X024047Y009452D01*
X023991Y009509D02*
X023991Y009282D01*
X024047Y009225D01*
X024179Y009452D02*
X024236Y009452D01*
X023854Y009872D02*
X023854Y009986D01*
X023797Y010043D01*
X023684Y010043D01*
X023627Y009986D01*
X023627Y009872D01*
X023684Y009816D01*
X023797Y009816D01*
X023854Y009872D01*
X023495Y009816D02*
X023381Y009816D01*
X023438Y009816D02*
X023438Y010156D01*
X023381Y010156D01*
X023259Y010293D02*
X023259Y010633D01*
X023429Y010633D01*
X023486Y010576D01*
X023486Y010463D01*
X023429Y010406D01*
X023259Y010406D01*
X023117Y010463D02*
X023061Y010406D01*
X022890Y010406D01*
X022890Y010293D02*
X022890Y010633D01*
X023061Y010633D01*
X023117Y010576D01*
X023117Y010463D01*
X022749Y010520D02*
X022579Y010520D01*
X022522Y010463D01*
X022579Y010406D01*
X022749Y010406D01*
X022749Y010576D01*
X022692Y010633D01*
X022579Y010633D01*
X022333Y010747D02*
X022333Y010406D01*
X022277Y010406D02*
X022390Y010406D01*
X022447Y010156D02*
X022333Y010156D01*
X022277Y010099D01*
X022277Y010043D01*
X022333Y009986D01*
X022447Y009986D01*
X022503Y009929D01*
X022503Y009872D01*
X022447Y009816D01*
X022333Y009816D01*
X022277Y009872D01*
X022503Y010099D02*
X022447Y010156D01*
X022645Y009986D02*
X022645Y009872D01*
X022702Y009816D01*
X022872Y009816D01*
X023013Y009872D02*
X023070Y009816D01*
X023183Y009816D01*
X023240Y009872D01*
X023240Y009986D01*
X023183Y010043D01*
X023070Y010043D01*
X023013Y009986D01*
X023013Y009872D01*
X022872Y010043D02*
X022702Y010043D01*
X022645Y009986D01*
X022702Y009622D02*
X022702Y009565D01*
X022333Y010747D02*
X022277Y010747D01*
X022335Y010997D02*
X022278Y011053D01*
X022335Y011110D01*
X022505Y011110D01*
X022505Y011167D02*
X022505Y010997D01*
X022335Y010997D01*
X022335Y011224D02*
X022448Y011224D01*
X022505Y011167D01*
X023014Y011337D02*
X023071Y011337D01*
X023071Y010997D01*
X023014Y010997D02*
X023128Y010997D01*
X023260Y011053D02*
X023317Y011110D01*
X023487Y011110D01*
X023487Y011167D02*
X023487Y010997D01*
X023317Y010997D01*
X023260Y011053D01*
X023317Y011224D02*
X023430Y011224D01*
X023487Y011167D01*
X023628Y011224D02*
X023628Y010997D01*
X023628Y011110D02*
X023742Y011224D01*
X023798Y011224D01*
X024049Y010883D02*
X024105Y010883D01*
X024162Y010940D01*
X024165Y010633D02*
X024222Y010576D01*
X024222Y010406D01*
X023995Y010406D02*
X023995Y010633D01*
X024165Y010633D01*
X024364Y010633D02*
X024420Y010633D01*
X024609Y010576D02*
X024666Y010633D01*
X024836Y010633D01*
X024609Y010576D02*
X024609Y010463D01*
X023854Y010463D02*
X023854Y010576D01*
X023797Y010633D01*
X023684Y010633D01*
X023627Y010576D01*
X023627Y010463D01*
X023684Y010406D01*
X023797Y010406D01*
X023854Y010463D01*
X023438Y008975D02*
X023381Y008975D01*
X023566Y008271D02*
X023736Y008271D01*
X023792Y008214D01*
X023792Y008044D01*
X023934Y008101D02*
X023934Y008214D01*
X023991Y008271D01*
X024104Y008271D01*
X024161Y008214D01*
X024161Y008157D01*
X023934Y008157D01*
X023934Y008101D02*
X023991Y008044D01*
X024104Y008044D01*
X024302Y008101D02*
X024359Y008044D01*
X024529Y008044D01*
X024529Y007987D02*
X024472Y007931D01*
X024416Y007931D01*
X024529Y007987D02*
X024529Y008271D01*
X024302Y008271D02*
X024302Y008101D01*
X024298Y007680D02*
X024411Y007680D01*
X024468Y007624D01*
X024468Y007453D01*
X024298Y007453D01*
X024241Y007510D01*
X024298Y007567D01*
X024468Y007567D01*
X024609Y007567D02*
X024779Y007680D01*
X024916Y007624D02*
X024973Y007680D01*
X025086Y007680D01*
X025143Y007624D01*
X025143Y007567D01*
X024916Y007567D01*
X024916Y007510D02*
X024916Y007624D01*
X024916Y007510D02*
X024973Y007453D01*
X025086Y007453D01*
X025284Y007453D02*
X025284Y007680D01*
X025455Y007680D01*
X025511Y007624D01*
X025511Y007453D01*
X024779Y007453D02*
X024609Y007567D01*
X024609Y007453D02*
X024609Y007794D01*
X024109Y007680D02*
X023995Y007680D01*
X024052Y007737D02*
X024052Y007510D01*
X024109Y007453D01*
X023566Y008044D02*
X023566Y008271D01*
X021782Y010997D02*
X021725Y010997D01*
X021725Y011053D01*
X021782Y011053D01*
X021782Y010997D01*
X021782Y011167D02*
X021725Y011167D01*
X021725Y011224D01*
X021782Y011224D01*
X021782Y011167D01*
X022068Y011784D02*
X022068Y012011D01*
X025587Y009509D02*
X025643Y009565D01*
X025587Y009509D02*
X025587Y009225D01*
X025643Y009395D02*
X025530Y009395D01*
X028391Y011841D02*
X028448Y011784D01*
X028618Y011784D01*
X028618Y012011D01*
X028759Y012011D02*
X028929Y012011D01*
X028986Y011954D01*
X028986Y011784D01*
X028759Y011784D02*
X028759Y012011D01*
X028391Y012011D02*
X028391Y011841D01*
X028906Y010633D02*
X028963Y010633D01*
X029020Y010576D01*
X029208Y010213D02*
X029208Y010156D01*
X029208Y010043D02*
X029208Y009816D01*
X029152Y009816D02*
X029265Y009816D01*
X029397Y009816D02*
X029397Y010043D01*
X029567Y010043D01*
X029624Y009986D01*
X029624Y009816D01*
X029638Y009509D02*
X029638Y009282D01*
X029695Y009225D01*
X029827Y009282D02*
X029884Y009225D01*
X029997Y009225D01*
X030054Y009282D01*
X030054Y009395D01*
X029997Y009452D01*
X029884Y009452D01*
X029827Y009395D01*
X029827Y009282D01*
X029695Y009452D02*
X029581Y009452D01*
X029208Y010043D02*
X029152Y010043D01*
X030564Y009565D02*
X030564Y009225D01*
X030790Y009225D02*
X030564Y009565D01*
X030790Y009565D02*
X030790Y009225D01*
X030932Y009282D02*
X030932Y009395D01*
X030989Y009452D01*
X031102Y009452D01*
X031159Y009395D01*
X031159Y009339D01*
X030932Y009339D01*
X030932Y009282D02*
X030989Y009225D01*
X031102Y009225D01*
X031300Y009282D02*
X031357Y009225D01*
X031414Y009282D01*
X031470Y009225D01*
X031527Y009282D01*
X031527Y009452D01*
X031300Y009452D02*
X031300Y009282D01*
X028968Y007680D02*
X028968Y007453D01*
D13*
X012207Y050337D02*
X012207Y050731D01*
X012207Y051124D02*
X012207Y051518D01*
X012010Y051321D02*
X012404Y051321D01*
D14*
X012266Y051813D02*
X012266Y052109D01*
X015258Y052109D01*
X015258Y049746D01*
X012266Y049746D01*
X012266Y050042D01*
X012896Y050042D01*
X012896Y050160D01*
X012896Y051695D02*
X012896Y051813D01*
X012266Y051813D01*
X012266Y024549D02*
X015258Y024549D01*
X015258Y022187D01*
X012266Y022187D01*
X012266Y022483D01*
X012896Y022483D01*
X012896Y022601D01*
X012896Y024136D02*
X012896Y024254D01*
X012266Y024254D01*
X012266Y024549D01*
D15*
X009782Y042404D02*
X009317Y042404D01*
X009317Y042719D02*
X009782Y042719D01*
X009880Y042857D02*
X009416Y042857D01*
X009416Y043171D02*
X009880Y043171D01*
D16*
X009678Y043017D03*
X009580Y042564D03*
D17*
X007798Y030703D02*
X007798Y030679D01*
X006105Y018459D02*
X006105Y018435D01*
X010030Y017857D02*
X010054Y017857D01*
D18*
X011420Y013368D02*
X007365Y013368D01*
X010396Y011085D02*
X012443Y010573D01*
X010396Y010101D01*
X012443Y009589D01*
X011420Y009077D01*
X011420Y007305D01*
X014963Y007305D01*
X014963Y009116D01*
X013703Y010376D01*
X014963Y011636D01*
X014963Y013368D01*
X019018Y013368D01*
X016223Y010376D02*
X014963Y011636D01*
X014963Y010849D02*
X014963Y009825D01*
X014569Y010219D01*
X014963Y009825D02*
X015357Y010219D01*
X016223Y010376D02*
X014963Y009116D01*
X011420Y011597D02*
X010396Y011085D01*
X011420Y011597D02*
X011420Y013368D01*
M02*
