G75*
G70*
%OFA0B0*%
%FSLAX24Y24*%
%IPPOS*%
%LPD*%
%AMOC8*
5,1,8,0,0,1.08239X$1,22.5*
%
%ADD10C,0.0080*%
%ADD11R,0.0531X0.0531*%
%ADD12C,0.0531*%
%ADD13C,0.0860*%
%ADD14C,0.0660*%
%ADD15R,0.0740X0.0740*%
%ADD16OC8,0.0740*%
%ADD17C,0.0060*%
%ADD18C,0.0270*%
%ADD19C,0.0150*%
%ADD20C,0.0100*%
%ADD21C,0.0200*%
D10*
X004790Y043107D02*
X004860Y043107D01*
X004930Y043177D01*
X004930Y043317D01*
X004860Y043387D01*
X004790Y043387D01*
X004720Y043317D01*
X004720Y043177D01*
X004790Y043107D01*
X004930Y043177D02*
X005000Y043107D01*
X005070Y043107D01*
X005140Y043177D01*
X005140Y043317D01*
X005070Y043387D01*
X005000Y043387D01*
X004930Y043317D01*
X004930Y043568D02*
X004930Y043848D01*
X005070Y044028D02*
X005140Y044098D01*
X005140Y044238D01*
X005070Y044308D01*
X005000Y044308D01*
X004720Y044028D01*
X004720Y044308D01*
X004790Y044488D02*
X005070Y044769D01*
X004790Y044769D01*
X004720Y044699D01*
X004720Y044558D01*
X004790Y044488D01*
X005070Y044488D01*
X005140Y044558D01*
X005140Y044699D01*
X005070Y044769D01*
X004930Y044949D02*
X004930Y045229D01*
X005000Y045409D02*
X005140Y045549D01*
X004720Y045549D01*
X004720Y045409D02*
X004720Y045689D01*
X004790Y045870D02*
X004720Y045940D01*
X004720Y046080D01*
X004790Y046150D01*
X004860Y046150D01*
X004930Y046080D01*
X004930Y046010D01*
X004930Y046080D02*
X005000Y046150D01*
X005070Y046150D01*
X005140Y046080D01*
X005140Y045940D01*
X005070Y045870D01*
D11*
X012798Y050534D03*
X012798Y022975D03*
D12*
X012798Y023762D03*
X012798Y051321D03*
D13*
X011597Y050636D03*
X008841Y050636D03*
X006298Y041675D03*
X006298Y038920D03*
X006298Y037738D03*
X006298Y034983D03*
X006298Y033801D03*
X006298Y031046D03*
X006298Y029864D03*
X006298Y027109D03*
D14*
X005317Y027601D03*
X005317Y029372D03*
X005317Y031538D03*
X005317Y033309D03*
X005317Y035475D03*
X005317Y037246D03*
X005317Y039412D03*
X005317Y041183D03*
X009333Y051616D03*
X011105Y051616D03*
D15*
X009042Y027199D03*
D16*
X009042Y028199D03*
X010042Y028199D03*
X010042Y027199D03*
X011042Y027199D03*
X011042Y028199D03*
D17*
X004776Y004195D02*
X004888Y004041D01*
X005042Y003930D01*
X005222Y003871D01*
X005317Y003863D01*
X006490Y003863D01*
X007007Y003725D01*
X007007Y003725D01*
X007470Y003458D01*
X007470Y003458D01*
X007848Y003080D01*
X007848Y003080D01*
X008115Y002617D01*
X008115Y002617D01*
X008253Y002100D01*
X008253Y000927D01*
X008261Y000832D01*
X008319Y000652D01*
X008431Y000498D01*
X008585Y000386D01*
X008766Y000327D01*
X008861Y000320D01*
X017354Y000320D01*
X017354Y002042D01*
X017372Y002060D01*
X020231Y002060D01*
X020249Y002042D01*
X020249Y000320D01*
X028743Y000320D01*
X028838Y000327D01*
X029018Y000386D01*
X029172Y000498D01*
X029284Y000652D01*
X029342Y000832D01*
X029350Y000927D01*
X029350Y002100D01*
X029488Y002617D01*
X029488Y002617D01*
X029756Y003080D01*
X029756Y003080D01*
X030134Y003458D01*
X030134Y003458D01*
X030597Y003725D01*
X030597Y003725D01*
X031113Y003863D01*
X032286Y003863D01*
X032381Y003871D01*
X032562Y003930D01*
X032715Y004041D01*
X032827Y004195D01*
X032886Y004376D01*
X032893Y004471D01*
X032893Y013526D01*
X032886Y013621D01*
X032827Y013802D01*
X032715Y013955D01*
X032562Y014067D01*
X032381Y014126D01*
X032286Y014133D01*
X015400Y014133D01*
X015109Y014228D01*
X015109Y014228D01*
X014861Y014408D01*
X014861Y014408D01*
X014861Y014408D01*
X014681Y014656D01*
X014681Y014656D01*
X014586Y014947D01*
X014586Y015469D01*
X014505Y015387D01*
X014319Y015387D01*
X014234Y015472D01*
X013803Y015472D01*
X013718Y015387D01*
X013531Y015387D01*
X013399Y015519D01*
X013399Y015706D01*
X013531Y015837D01*
X013718Y015837D01*
X013803Y015752D01*
X014234Y015752D01*
X014319Y015837D01*
X014505Y015837D01*
X014586Y015756D01*
X014586Y051636D01*
X014579Y051731D01*
X014520Y051912D01*
X014408Y052066D01*
X014255Y052177D01*
X014074Y052236D01*
X013979Y052243D01*
X008861Y052243D01*
X008766Y052236D01*
X008585Y052177D01*
X008431Y052066D01*
X008319Y051912D01*
X008261Y051731D01*
X008253Y051636D01*
X008253Y050463D01*
X008115Y049947D01*
X008115Y049947D01*
X007848Y049484D01*
X007848Y049484D01*
X007470Y049106D01*
X007470Y049106D01*
X007007Y048839D01*
X007007Y048839D01*
X006490Y048700D01*
X005317Y048700D01*
X005222Y048693D01*
X005042Y048634D01*
X004888Y048522D01*
X004776Y048369D01*
X004717Y048188D01*
X004710Y048093D01*
X004710Y046254D01*
X004736Y046280D01*
X004914Y046280D01*
X004930Y046264D01*
X004946Y046280D01*
X005124Y046280D01*
X005174Y046230D01*
X005194Y046210D01*
X005194Y046210D01*
X005221Y046183D01*
X005270Y046134D01*
X005270Y045886D01*
X005222Y045838D01*
X005194Y045810D01*
X005194Y045810D01*
X005124Y045740D01*
X005016Y045740D01*
X004940Y045816D01*
X004940Y045880D01*
X004920Y045880D01*
X004920Y045816D01*
X004849Y045744D01*
X004850Y045743D01*
X004850Y045679D01*
X005194Y045679D01*
X005269Y045604D01*
X005270Y045603D01*
X005270Y045495D01*
X005059Y045284D01*
X005060Y045283D01*
X005060Y044899D01*
X005124Y044899D01*
X005176Y044846D01*
X005194Y044829D01*
X005194Y044829D01*
X005221Y044802D01*
X005270Y044752D01*
X005270Y044505D01*
X005197Y044431D01*
X005194Y044428D01*
X005194Y044428D01*
X005172Y044406D01*
X005164Y044398D01*
X005172Y044390D01*
X005194Y044368D01*
X005194Y044368D01*
X005222Y044340D01*
X005270Y044292D01*
X005270Y044044D01*
X005221Y043995D01*
X005194Y043968D01*
X005194Y043968D01*
X005124Y043898D01*
X005060Y043898D01*
X005060Y043517D01*
X005124Y043517D01*
X005174Y043468D01*
X005194Y043447D01*
X005194Y043447D01*
X005221Y043421D01*
X005270Y043371D01*
X005270Y043123D01*
X005222Y043075D01*
X005194Y043047D01*
X005194Y043047D01*
X005182Y043035D01*
X005124Y042977D01*
X004946Y042977D01*
X004930Y042993D01*
X004914Y042977D01*
X004736Y042977D01*
X004710Y043003D01*
X004710Y019536D01*
X011266Y019536D01*
X011660Y019143D01*
X011722Y019081D01*
X011722Y018856D01*
X011660Y018795D01*
X011573Y018795D01*
X011512Y018856D01*
X011512Y018994D01*
X011179Y019326D01*
X004710Y019326D01*
X004710Y014418D01*
X010786Y014418D01*
X011512Y015144D01*
X011512Y018176D01*
X011573Y018237D01*
X011660Y018237D01*
X011722Y018176D01*
X011722Y015057D01*
X010934Y014270D01*
X010873Y014208D01*
X004710Y014208D01*
X004710Y004471D01*
X004717Y004376D01*
X004776Y004195D01*
X004790Y004177D02*
X008003Y004177D01*
X007979Y004235D02*
X004763Y004235D01*
X004744Y004294D02*
X007975Y004294D01*
X007975Y004244D02*
X007975Y004571D01*
X008100Y004874D01*
X008332Y005105D01*
X008634Y005230D01*
X008961Y005230D01*
X009264Y005105D01*
X009495Y004874D01*
X009620Y004571D01*
X009620Y004244D01*
X009495Y003942D01*
X009264Y003710D01*
X008961Y003585D01*
X008634Y003585D01*
X008332Y003710D01*
X008100Y003942D01*
X007975Y004244D01*
X007975Y004352D02*
X004725Y004352D01*
X004715Y004411D02*
X007975Y004411D01*
X007975Y004469D02*
X004710Y004469D01*
X004710Y004528D02*
X007975Y004528D01*
X007981Y004586D02*
X004710Y004586D01*
X004710Y004645D02*
X008006Y004645D01*
X008030Y004703D02*
X004710Y004703D01*
X004710Y004762D02*
X008054Y004762D01*
X008078Y004820D02*
X004710Y004820D01*
X004710Y004879D02*
X008105Y004879D01*
X008164Y004937D02*
X004710Y004937D01*
X004710Y004996D02*
X008222Y004996D01*
X008281Y005054D02*
X004710Y005054D01*
X004710Y005113D02*
X008350Y005113D01*
X008491Y005171D02*
X004710Y005171D01*
X004710Y005230D02*
X008632Y005230D01*
X008963Y005230D02*
X028640Y005230D01*
X028642Y005230D02*
X028340Y005105D01*
X028108Y004874D01*
X027983Y004571D01*
X027983Y004244D01*
X028108Y003942D01*
X028340Y003710D01*
X028642Y003585D01*
X028969Y003585D01*
X029271Y003710D01*
X029503Y003942D01*
X029628Y004244D01*
X029628Y004571D01*
X029503Y004874D01*
X029271Y005105D01*
X028969Y005230D01*
X028642Y005230D01*
X028499Y005171D02*
X009104Y005171D01*
X009245Y005113D02*
X028358Y005113D01*
X028289Y005054D02*
X009315Y005054D01*
X009373Y004996D02*
X028230Y004996D01*
X028172Y004937D02*
X009432Y004937D01*
X009490Y004879D02*
X028113Y004879D01*
X028086Y004820D02*
X009517Y004820D01*
X009541Y004762D02*
X028062Y004762D01*
X028038Y004703D02*
X009566Y004703D01*
X009590Y004645D02*
X028013Y004645D01*
X027989Y004586D02*
X009614Y004586D01*
X009620Y004528D02*
X027983Y004528D01*
X027983Y004469D02*
X009620Y004469D01*
X009620Y004411D02*
X027983Y004411D01*
X027983Y004352D02*
X009620Y004352D01*
X009620Y004294D02*
X027983Y004294D01*
X027987Y004235D02*
X009616Y004235D01*
X009592Y004177D02*
X028011Y004177D01*
X028035Y004118D02*
X009568Y004118D01*
X009544Y004060D02*
X028060Y004060D01*
X028084Y004001D02*
X009519Y004001D01*
X009495Y003943D02*
X028108Y003943D01*
X028166Y003884D02*
X009437Y003884D01*
X009379Y003826D02*
X028225Y003826D01*
X028283Y003767D02*
X009320Y003767D01*
X009259Y003709D02*
X028344Y003709D01*
X028486Y003650D02*
X009118Y003650D01*
X008976Y003592D02*
X028627Y003592D01*
X028984Y003592D02*
X030366Y003592D01*
X030467Y003650D02*
X029126Y003650D01*
X029267Y003709D02*
X030568Y003709D01*
X030754Y003767D02*
X029328Y003767D01*
X029387Y003826D02*
X030972Y003826D01*
X030264Y003533D02*
X007339Y003533D01*
X007440Y003475D02*
X030163Y003475D01*
X030092Y003416D02*
X007511Y003416D01*
X007570Y003358D02*
X030034Y003358D01*
X029975Y003299D02*
X007628Y003299D01*
X007687Y003241D02*
X029917Y003241D01*
X029858Y003182D02*
X007745Y003182D01*
X007804Y003124D02*
X029800Y003124D01*
X029756Y003080D02*
X029756Y003080D01*
X029747Y003065D02*
X007856Y003065D01*
X007890Y003007D02*
X029713Y003007D01*
X029680Y002948D02*
X007924Y002948D01*
X007957Y002890D02*
X029646Y002890D01*
X029612Y002831D02*
X007991Y002831D01*
X008025Y002773D02*
X029578Y002773D01*
X029545Y002714D02*
X008059Y002714D01*
X008092Y002656D02*
X029511Y002656D01*
X029483Y002597D02*
X008120Y002597D01*
X008136Y002539D02*
X029467Y002539D01*
X029452Y002480D02*
X008152Y002480D01*
X008167Y002422D02*
X029436Y002422D01*
X029420Y002363D02*
X008183Y002363D01*
X008199Y002305D02*
X029405Y002305D01*
X029389Y002246D02*
X008214Y002246D01*
X008230Y002188D02*
X029373Y002188D01*
X029358Y002129D02*
X008246Y002129D01*
X008253Y002071D02*
X029350Y002071D01*
X029350Y002012D02*
X020249Y002012D01*
X020249Y001954D02*
X029350Y001954D01*
X029350Y001895D02*
X020249Y001895D01*
X020249Y001837D02*
X029350Y001837D01*
X029350Y001778D02*
X020249Y001778D01*
X020249Y001720D02*
X029350Y001720D01*
X029350Y001661D02*
X020249Y001661D01*
X020249Y001603D02*
X029350Y001603D01*
X029350Y001544D02*
X020249Y001544D01*
X020249Y001486D02*
X029350Y001486D01*
X029350Y001427D02*
X020249Y001427D01*
X020249Y001369D02*
X029350Y001369D01*
X029350Y001310D02*
X020249Y001310D01*
X020249Y001252D02*
X029350Y001252D01*
X029350Y001193D02*
X020249Y001193D01*
X020249Y001135D02*
X029350Y001135D01*
X029350Y001076D02*
X020249Y001076D01*
X020249Y001018D02*
X029350Y001018D01*
X029350Y000959D02*
X020249Y000959D01*
X020249Y000901D02*
X029348Y000901D01*
X029343Y000842D02*
X020249Y000842D01*
X020249Y000784D02*
X029327Y000784D01*
X029308Y000725D02*
X020249Y000725D01*
X020249Y000667D02*
X029289Y000667D01*
X029252Y000608D02*
X020249Y000608D01*
X020249Y000550D02*
X029210Y000550D01*
X029163Y000491D02*
X020249Y000491D01*
X020249Y000433D02*
X029082Y000433D01*
X028981Y000374D02*
X020249Y000374D01*
X017354Y000374D02*
X008622Y000374D01*
X008521Y000433D02*
X017354Y000433D01*
X017354Y000491D02*
X008441Y000491D01*
X008394Y000550D02*
X017354Y000550D01*
X017354Y000608D02*
X008351Y000608D01*
X008315Y000667D02*
X017354Y000667D01*
X017354Y000725D02*
X008296Y000725D01*
X008277Y000784D02*
X017354Y000784D01*
X017354Y000842D02*
X008260Y000842D01*
X008255Y000901D02*
X017354Y000901D01*
X017354Y000959D02*
X008253Y000959D01*
X008253Y001018D02*
X017354Y001018D01*
X017354Y001076D02*
X008253Y001076D01*
X008253Y001135D02*
X017354Y001135D01*
X017354Y001193D02*
X008253Y001193D01*
X008253Y001252D02*
X017354Y001252D01*
X017354Y001310D02*
X008253Y001310D01*
X008253Y001369D02*
X017354Y001369D01*
X017354Y001427D02*
X008253Y001427D01*
X008253Y001486D02*
X017354Y001486D01*
X017354Y001544D02*
X008253Y001544D01*
X008253Y001603D02*
X017354Y001603D01*
X017354Y001661D02*
X008253Y001661D01*
X008253Y001720D02*
X017354Y001720D01*
X017354Y001778D02*
X008253Y001778D01*
X008253Y001837D02*
X017354Y001837D01*
X017354Y001895D02*
X008253Y001895D01*
X008253Y001954D02*
X017354Y001954D01*
X017354Y002012D02*
X008253Y002012D01*
X008619Y003592D02*
X007238Y003592D01*
X007136Y003650D02*
X008478Y003650D01*
X008336Y003709D02*
X007035Y003709D01*
X006850Y003767D02*
X008275Y003767D01*
X008217Y003826D02*
X006631Y003826D01*
X005182Y003884D02*
X008158Y003884D01*
X008100Y003943D02*
X005024Y003943D01*
X004943Y004001D02*
X008076Y004001D01*
X008052Y004060D02*
X004875Y004060D01*
X004832Y004118D02*
X008027Y004118D01*
X004710Y005288D02*
X032893Y005288D01*
X032893Y005230D02*
X028971Y005230D01*
X029112Y005171D02*
X032893Y005171D01*
X032893Y005113D02*
X029253Y005113D01*
X029322Y005054D02*
X032893Y005054D01*
X032893Y004996D02*
X029381Y004996D01*
X029439Y004937D02*
X032893Y004937D01*
X032893Y004879D02*
X029498Y004879D01*
X029525Y004820D02*
X032893Y004820D01*
X032893Y004762D02*
X029549Y004762D01*
X029574Y004703D02*
X032893Y004703D01*
X032893Y004645D02*
X029598Y004645D01*
X029622Y004586D02*
X032893Y004586D01*
X032893Y004528D02*
X029628Y004528D01*
X029628Y004469D02*
X032893Y004469D01*
X032889Y004411D02*
X029628Y004411D01*
X029628Y004352D02*
X032878Y004352D01*
X032859Y004294D02*
X029628Y004294D01*
X029624Y004235D02*
X032840Y004235D01*
X032814Y004177D02*
X029600Y004177D01*
X029576Y004118D02*
X032771Y004118D01*
X032729Y004060D02*
X029552Y004060D01*
X029527Y004001D02*
X032660Y004001D01*
X032580Y003943D02*
X029503Y003943D01*
X029445Y003884D02*
X032422Y003884D01*
X032893Y005347D02*
X004710Y005347D01*
X004710Y005405D02*
X032893Y005405D01*
X032893Y005464D02*
X004710Y005464D01*
X004710Y005522D02*
X032893Y005522D01*
X032893Y005581D02*
X004710Y005581D01*
X004710Y005639D02*
X032893Y005639D01*
X032893Y005698D02*
X004710Y005698D01*
X004710Y005756D02*
X032893Y005756D01*
X032893Y005815D02*
X004710Y005815D01*
X004710Y005873D02*
X032893Y005873D01*
X032893Y005932D02*
X004710Y005932D01*
X004710Y005990D02*
X032893Y005990D01*
X032893Y006049D02*
X004710Y006049D01*
X004710Y006107D02*
X032893Y006107D01*
X032893Y006166D02*
X004710Y006166D01*
X004710Y006224D02*
X032893Y006224D01*
X032893Y006283D02*
X004710Y006283D01*
X004710Y006341D02*
X032893Y006341D01*
X032893Y006400D02*
X004710Y006400D01*
X004710Y006458D02*
X032893Y006458D01*
X032893Y006517D02*
X004710Y006517D01*
X004710Y006575D02*
X032893Y006575D01*
X032893Y006634D02*
X004710Y006634D01*
X004710Y006692D02*
X032893Y006692D01*
X032893Y006751D02*
X004710Y006751D01*
X004710Y006809D02*
X032893Y006809D01*
X032893Y006868D02*
X004710Y006868D01*
X004710Y006926D02*
X032893Y006926D01*
X032893Y006985D02*
X004710Y006985D01*
X004710Y007043D02*
X032893Y007043D01*
X032893Y007102D02*
X004710Y007102D01*
X004710Y007160D02*
X032893Y007160D01*
X032893Y007219D02*
X004710Y007219D01*
X004710Y007277D02*
X032893Y007277D01*
X032893Y007336D02*
X004710Y007336D01*
X004710Y007394D02*
X032893Y007394D01*
X032893Y007453D02*
X004710Y007453D01*
X004710Y007511D02*
X032893Y007511D01*
X032893Y007570D02*
X004710Y007570D01*
X004710Y007628D02*
X032893Y007628D01*
X032893Y007687D02*
X004710Y007687D01*
X004710Y007745D02*
X032893Y007745D01*
X032893Y007804D02*
X004710Y007804D01*
X004710Y007862D02*
X032893Y007862D01*
X032893Y007921D02*
X004710Y007921D01*
X004710Y007979D02*
X032893Y007979D01*
X032893Y008038D02*
X004710Y008038D01*
X004710Y008096D02*
X032893Y008096D01*
X032893Y008155D02*
X004710Y008155D01*
X004710Y008213D02*
X032893Y008213D01*
X032893Y008272D02*
X004710Y008272D01*
X004710Y008330D02*
X032893Y008330D01*
X032893Y008389D02*
X004710Y008389D01*
X004710Y008447D02*
X032893Y008447D01*
X032893Y008506D02*
X004710Y008506D01*
X004710Y008564D02*
X032893Y008564D01*
X032893Y008623D02*
X004710Y008623D01*
X004710Y008681D02*
X032893Y008681D01*
X032893Y008740D02*
X004710Y008740D01*
X004710Y008798D02*
X032893Y008798D01*
X032893Y008857D02*
X004710Y008857D01*
X004710Y008915D02*
X032893Y008915D01*
X032893Y008974D02*
X004710Y008974D01*
X004710Y009032D02*
X032893Y009032D01*
X032893Y009091D02*
X004710Y009091D01*
X004710Y009149D02*
X032893Y009149D01*
X032893Y009208D02*
X004710Y009208D01*
X004710Y009266D02*
X032893Y009266D01*
X032893Y009325D02*
X004710Y009325D01*
X004710Y009383D02*
X032893Y009383D01*
X032893Y009442D02*
X004710Y009442D01*
X004710Y009500D02*
X032893Y009500D01*
X032893Y009559D02*
X004710Y009559D01*
X004710Y009617D02*
X032893Y009617D01*
X032893Y009676D02*
X004710Y009676D01*
X004710Y009734D02*
X032893Y009734D01*
X032893Y009793D02*
X004710Y009793D01*
X004710Y009851D02*
X032893Y009851D01*
X032893Y009910D02*
X004710Y009910D01*
X004710Y009968D02*
X032893Y009968D01*
X032893Y010027D02*
X004710Y010027D01*
X004710Y010085D02*
X032893Y010085D01*
X032893Y010144D02*
X004710Y010144D01*
X004710Y010202D02*
X032893Y010202D01*
X032893Y010261D02*
X004710Y010261D01*
X004710Y010319D02*
X032893Y010319D01*
X032893Y010378D02*
X004710Y010378D01*
X004710Y010436D02*
X032893Y010436D01*
X032893Y010495D02*
X004710Y010495D01*
X004710Y010553D02*
X032893Y010553D01*
X032893Y010612D02*
X004710Y010612D01*
X004710Y010670D02*
X032893Y010670D01*
X032893Y010729D02*
X004710Y010729D01*
X004710Y010787D02*
X032893Y010787D01*
X032893Y010846D02*
X004710Y010846D01*
X004710Y010904D02*
X032893Y010904D01*
X032893Y010963D02*
X004710Y010963D01*
X004710Y011021D02*
X032893Y011021D01*
X032893Y011080D02*
X004710Y011080D01*
X004710Y011138D02*
X032893Y011138D01*
X032893Y011197D02*
X004710Y011197D01*
X004710Y011255D02*
X032893Y011255D01*
X032893Y011314D02*
X004710Y011314D01*
X004710Y011372D02*
X032893Y011372D01*
X032893Y011431D02*
X004710Y011431D01*
X004710Y011489D02*
X032893Y011489D01*
X032893Y011548D02*
X004710Y011548D01*
X004710Y011606D02*
X032893Y011606D01*
X032893Y011665D02*
X004710Y011665D01*
X004710Y011723D02*
X032893Y011723D01*
X032893Y011782D02*
X004710Y011782D01*
X004710Y011840D02*
X032893Y011840D01*
X032893Y011899D02*
X004710Y011899D01*
X004710Y011957D02*
X032893Y011957D01*
X032893Y012016D02*
X004710Y012016D01*
X004710Y012074D02*
X032893Y012074D01*
X032893Y012133D02*
X004710Y012133D01*
X004710Y012191D02*
X032893Y012191D01*
X032893Y012250D02*
X004710Y012250D01*
X004710Y012308D02*
X032893Y012308D01*
X032893Y012367D02*
X004710Y012367D01*
X004710Y012425D02*
X032893Y012425D01*
X032893Y012484D02*
X004710Y012484D01*
X004710Y012542D02*
X032893Y012542D01*
X032893Y012601D02*
X004710Y012601D01*
X004710Y012659D02*
X032893Y012659D01*
X032893Y012718D02*
X004710Y012718D01*
X004710Y012776D02*
X032893Y012776D01*
X032893Y012835D02*
X004710Y012835D01*
X004710Y012893D02*
X032893Y012893D01*
X032893Y012952D02*
X004710Y012952D01*
X004710Y013010D02*
X032893Y013010D01*
X032893Y013069D02*
X004710Y013069D01*
X004710Y013127D02*
X032893Y013127D01*
X032893Y013186D02*
X004710Y013186D01*
X004710Y013244D02*
X032893Y013244D01*
X032893Y013303D02*
X004710Y013303D01*
X004710Y013361D02*
X032893Y013361D01*
X032893Y013420D02*
X004710Y013420D01*
X004710Y013478D02*
X032893Y013478D01*
X032892Y013537D02*
X004710Y013537D01*
X004710Y013595D02*
X032888Y013595D01*
X032875Y013654D02*
X004710Y013654D01*
X004710Y013712D02*
X032856Y013712D01*
X032837Y013771D02*
X004710Y013771D01*
X004710Y013829D02*
X032807Y013829D01*
X032765Y013888D02*
X004710Y013888D01*
X004710Y013946D02*
X032722Y013946D01*
X032648Y014005D02*
X004710Y014005D01*
X004710Y014063D02*
X032567Y014063D01*
X032394Y014122D02*
X004710Y014122D01*
X004710Y014180D02*
X015256Y014180D01*
X015094Y014239D02*
X010903Y014239D01*
X010962Y014297D02*
X015014Y014297D01*
X014933Y014356D02*
X011020Y014356D01*
X011079Y014414D02*
X014857Y014414D01*
X014814Y014473D02*
X011137Y014473D01*
X011196Y014531D02*
X014772Y014531D01*
X014729Y014590D02*
X011254Y014590D01*
X011313Y014648D02*
X014687Y014648D01*
X014664Y014707D02*
X011371Y014707D01*
X011430Y014765D02*
X014645Y014765D01*
X014626Y014824D02*
X011488Y014824D01*
X011547Y014882D02*
X014607Y014882D01*
X014588Y014941D02*
X011605Y014941D01*
X011664Y014999D02*
X014586Y014999D01*
X014586Y015058D02*
X011722Y015058D01*
X011722Y015116D02*
X014586Y015116D01*
X014586Y015175D02*
X011722Y015175D01*
X011722Y015233D02*
X014586Y015233D01*
X014586Y015292D02*
X011722Y015292D01*
X011722Y015350D02*
X014586Y015350D01*
X014586Y015409D02*
X014526Y015409D01*
X014585Y015467D02*
X014586Y015467D01*
X014583Y015760D02*
X014586Y015760D01*
X014586Y015818D02*
X014524Y015818D01*
X014586Y015877D02*
X011722Y015877D01*
X011722Y015935D02*
X014586Y015935D01*
X014586Y015994D02*
X011722Y015994D01*
X011722Y016052D02*
X014586Y016052D01*
X014586Y016111D02*
X011722Y016111D01*
X011722Y016169D02*
X014586Y016169D01*
X014586Y016228D02*
X011722Y016228D01*
X011722Y016286D02*
X014586Y016286D01*
X014586Y016345D02*
X011722Y016345D01*
X011722Y016403D02*
X014586Y016403D01*
X014586Y016462D02*
X011722Y016462D01*
X011722Y016520D02*
X014586Y016520D01*
X014586Y016579D02*
X011722Y016579D01*
X011722Y016637D02*
X014586Y016637D01*
X014586Y016696D02*
X011722Y016696D01*
X011722Y016754D02*
X014586Y016754D01*
X014586Y016813D02*
X011722Y016813D01*
X011722Y016871D02*
X014586Y016871D01*
X014586Y016930D02*
X011722Y016930D01*
X011722Y016988D02*
X014586Y016988D01*
X014586Y017047D02*
X011722Y017047D01*
X011722Y017105D02*
X014586Y017105D01*
X014586Y017164D02*
X011722Y017164D01*
X011722Y017222D02*
X014586Y017222D01*
X014586Y017281D02*
X011722Y017281D01*
X011722Y017339D02*
X014586Y017339D01*
X014586Y017398D02*
X011722Y017398D01*
X011722Y017456D02*
X014586Y017456D01*
X014586Y017515D02*
X011722Y017515D01*
X011722Y017573D02*
X014586Y017573D01*
X014586Y017632D02*
X011722Y017632D01*
X011722Y017690D02*
X014586Y017690D01*
X014586Y017749D02*
X011722Y017749D01*
X011722Y017807D02*
X014586Y017807D01*
X014586Y017866D02*
X011722Y017866D01*
X011722Y017924D02*
X014586Y017924D01*
X014586Y017983D02*
X011722Y017983D01*
X011722Y018041D02*
X014586Y018041D01*
X014586Y018100D02*
X011722Y018100D01*
X011722Y018158D02*
X014586Y018158D01*
X014586Y018217D02*
X011681Y018217D01*
X011553Y018217D02*
X004710Y018217D01*
X004710Y018275D02*
X014586Y018275D01*
X014586Y018334D02*
X004710Y018334D01*
X004710Y018392D02*
X014586Y018392D01*
X014586Y018451D02*
X004710Y018451D01*
X004710Y018509D02*
X014586Y018509D01*
X014586Y018568D02*
X004710Y018568D01*
X004710Y018626D02*
X014586Y018626D01*
X014586Y018685D02*
X004710Y018685D01*
X004710Y018743D02*
X014586Y018743D01*
X014586Y018802D02*
X011667Y018802D01*
X011722Y018860D02*
X014586Y018860D01*
X014586Y018919D02*
X011722Y018919D01*
X011722Y018977D02*
X014586Y018977D01*
X014586Y019036D02*
X011722Y019036D01*
X011709Y019094D02*
X014586Y019094D01*
X014586Y019153D02*
X011650Y019153D01*
X011592Y019211D02*
X014586Y019211D01*
X014586Y019270D02*
X011533Y019270D01*
X011475Y019328D02*
X014586Y019328D01*
X014586Y019387D02*
X011416Y019387D01*
X011358Y019445D02*
X014586Y019445D01*
X014586Y019504D02*
X011299Y019504D01*
X011236Y019270D02*
X004710Y019270D01*
X004710Y019211D02*
X011295Y019211D01*
X011353Y019153D02*
X004710Y019153D01*
X004710Y019094D02*
X011412Y019094D01*
X011470Y019036D02*
X004710Y019036D01*
X004710Y018977D02*
X011512Y018977D01*
X011512Y018919D02*
X004710Y018919D01*
X004710Y018860D02*
X011512Y018860D01*
X011566Y018802D02*
X004710Y018802D01*
X004710Y018158D02*
X011512Y018158D01*
X011512Y018100D02*
X004710Y018100D01*
X004710Y018041D02*
X011512Y018041D01*
X011512Y017983D02*
X004710Y017983D01*
X004710Y017924D02*
X011512Y017924D01*
X011512Y017866D02*
X004710Y017866D01*
X004710Y017807D02*
X011512Y017807D01*
X011512Y017749D02*
X004710Y017749D01*
X004710Y017690D02*
X011512Y017690D01*
X011512Y017632D02*
X004710Y017632D01*
X004710Y017573D02*
X011512Y017573D01*
X011512Y017515D02*
X004710Y017515D01*
X004710Y017456D02*
X011512Y017456D01*
X011512Y017398D02*
X004710Y017398D01*
X004710Y017339D02*
X011512Y017339D01*
X011512Y017281D02*
X004710Y017281D01*
X004710Y017222D02*
X011512Y017222D01*
X011512Y017164D02*
X004710Y017164D01*
X004710Y017105D02*
X011512Y017105D01*
X011512Y017047D02*
X004710Y017047D01*
X004710Y016988D02*
X011512Y016988D01*
X011512Y016930D02*
X004710Y016930D01*
X004710Y016871D02*
X011512Y016871D01*
X011512Y016813D02*
X004710Y016813D01*
X004710Y016754D02*
X011512Y016754D01*
X011512Y016696D02*
X004710Y016696D01*
X004710Y016637D02*
X011512Y016637D01*
X011512Y016579D02*
X004710Y016579D01*
X004710Y016520D02*
X011512Y016520D01*
X011512Y016462D02*
X004710Y016462D01*
X004710Y016403D02*
X011512Y016403D01*
X011512Y016345D02*
X004710Y016345D01*
X004710Y016286D02*
X011512Y016286D01*
X011512Y016228D02*
X004710Y016228D01*
X004710Y016169D02*
X011512Y016169D01*
X011512Y016111D02*
X004710Y016111D01*
X004710Y016052D02*
X011512Y016052D01*
X011512Y015994D02*
X004710Y015994D01*
X004710Y015935D02*
X011512Y015935D01*
X011512Y015877D02*
X004710Y015877D01*
X004710Y015818D02*
X011512Y015818D01*
X011512Y015760D02*
X004710Y015760D01*
X004710Y015701D02*
X011512Y015701D01*
X011512Y015643D02*
X004710Y015643D01*
X004710Y015584D02*
X011512Y015584D01*
X011512Y015526D02*
X004710Y015526D01*
X004710Y015467D02*
X011512Y015467D01*
X011512Y015409D02*
X004710Y015409D01*
X004710Y015350D02*
X011512Y015350D01*
X011512Y015292D02*
X004710Y015292D01*
X004710Y015233D02*
X011512Y015233D01*
X011512Y015175D02*
X004710Y015175D01*
X004710Y015116D02*
X011484Y015116D01*
X011425Y015058D02*
X004710Y015058D01*
X004710Y014999D02*
X011367Y014999D01*
X011308Y014941D02*
X004710Y014941D01*
X004710Y014882D02*
X011250Y014882D01*
X011191Y014824D02*
X004710Y014824D01*
X004710Y014765D02*
X011133Y014765D01*
X011074Y014707D02*
X004710Y014707D01*
X004710Y014648D02*
X011016Y014648D01*
X010957Y014590D02*
X004710Y014590D01*
X004710Y014531D02*
X010899Y014531D01*
X010840Y014473D02*
X004710Y014473D01*
X004710Y019562D02*
X014586Y019562D01*
X014586Y019621D02*
X004710Y019621D01*
X004710Y019679D02*
X014586Y019679D01*
X014586Y019738D02*
X012871Y019738D01*
X012832Y019698D02*
X012964Y019830D01*
X012964Y020017D01*
X012839Y020141D01*
X012839Y020572D01*
X012944Y020677D01*
X012944Y020863D01*
X012812Y020995D01*
X012626Y020995D01*
X012552Y020921D01*
X012477Y020995D01*
X012291Y020995D01*
X012159Y020863D01*
X012159Y020677D01*
X012284Y020552D01*
X012284Y020122D01*
X012179Y020017D01*
X012179Y019830D01*
X012311Y019698D01*
X012497Y019698D01*
X012571Y019773D01*
X012645Y019698D01*
X012832Y019698D01*
X012929Y019796D02*
X014586Y019796D01*
X014586Y019855D02*
X012964Y019855D01*
X012964Y019913D02*
X014586Y019913D01*
X014586Y019972D02*
X012964Y019972D01*
X012950Y020030D02*
X014586Y020030D01*
X014586Y020089D02*
X012892Y020089D01*
X012839Y020147D02*
X014586Y020147D01*
X014586Y020206D02*
X012839Y020206D01*
X012839Y020264D02*
X014586Y020264D01*
X014586Y020323D02*
X014007Y020323D01*
X013974Y020289D02*
X014105Y020421D01*
X014105Y020525D01*
X014210Y020525D01*
X014342Y020657D01*
X014342Y020843D01*
X014210Y020975D01*
X014023Y020975D01*
X014023Y020975D01*
X013928Y021069D01*
X013928Y021217D01*
X013796Y021349D01*
X013610Y021349D01*
X013478Y021217D01*
X013478Y021113D01*
X013374Y021113D01*
X013242Y020981D01*
X013242Y020795D01*
X013374Y020663D01*
X013560Y020663D01*
X013561Y020664D01*
X013655Y020569D01*
X013655Y020421D01*
X013787Y020289D01*
X013974Y020289D01*
X014066Y020381D02*
X014586Y020381D01*
X014586Y020440D02*
X014105Y020440D01*
X014105Y020498D02*
X014586Y020498D01*
X014586Y020557D02*
X014241Y020557D01*
X014300Y020615D02*
X014586Y020615D01*
X014586Y020674D02*
X014342Y020674D01*
X014342Y020732D02*
X014586Y020732D01*
X014586Y020791D02*
X014342Y020791D01*
X014336Y020849D02*
X014586Y020849D01*
X014586Y020908D02*
X014277Y020908D01*
X014219Y020966D02*
X014586Y020966D01*
X014586Y021025D02*
X013973Y021025D01*
X013928Y021083D02*
X014586Y021083D01*
X014586Y021142D02*
X013928Y021142D01*
X013928Y021200D02*
X014586Y021200D01*
X014586Y021259D02*
X013887Y021259D01*
X013829Y021317D02*
X014586Y021317D01*
X014586Y021376D02*
X004710Y021376D01*
X004710Y021434D02*
X014586Y021434D01*
X014586Y021493D02*
X004710Y021493D01*
X004710Y021551D02*
X014586Y021551D01*
X014586Y021610D02*
X004710Y021610D01*
X004710Y021668D02*
X014586Y021668D01*
X014586Y021727D02*
X004710Y021727D01*
X004710Y021785D02*
X014586Y021785D01*
X014586Y021844D02*
X004710Y021844D01*
X004710Y021902D02*
X014586Y021902D01*
X014586Y021961D02*
X004710Y021961D01*
X004710Y022019D02*
X014586Y022019D01*
X014586Y022078D02*
X004710Y022078D01*
X004710Y022136D02*
X014586Y022136D01*
X014586Y022195D02*
X004710Y022195D01*
X004710Y022253D02*
X009481Y022253D01*
X009535Y022198D02*
X009722Y022198D01*
X009853Y022330D01*
X009853Y022395D01*
X010247Y022789D01*
X010332Y022789D01*
X010464Y022921D01*
X010464Y023107D01*
X010332Y023239D01*
X010145Y023239D01*
X010014Y023107D01*
X010014Y023022D01*
X009640Y022648D01*
X009535Y022648D01*
X009403Y022517D01*
X009403Y022330D01*
X009535Y022198D01*
X009422Y022312D02*
X004710Y022312D01*
X004710Y022370D02*
X009403Y022370D01*
X009403Y022429D02*
X004710Y022429D01*
X004710Y022487D02*
X009403Y022487D01*
X009432Y022546D02*
X004710Y022546D01*
X004710Y022604D02*
X009491Y022604D01*
X009654Y022663D02*
X004710Y022663D01*
X004710Y022721D02*
X009712Y022721D01*
X009771Y022780D02*
X006425Y022780D01*
X006375Y022730D02*
X006507Y022862D01*
X006507Y023048D01*
X006375Y023180D01*
X006290Y023180D01*
X006094Y023377D01*
X006094Y023481D01*
X005962Y023613D01*
X005775Y023613D01*
X005644Y023481D01*
X005644Y023295D01*
X005775Y023163D01*
X005841Y023163D01*
X006057Y022947D01*
X006057Y022862D01*
X006189Y022730D01*
X006375Y022730D01*
X006483Y022838D02*
X009829Y022838D01*
X009888Y022897D02*
X006507Y022897D01*
X006507Y022955D02*
X009946Y022955D01*
X010005Y023014D02*
X006507Y023014D01*
X006483Y023072D02*
X010014Y023072D01*
X010037Y023131D02*
X006424Y023131D01*
X006281Y023189D02*
X010096Y023189D01*
X010382Y023189D02*
X012442Y023189D01*
X012442Y023131D02*
X010440Y023131D01*
X010464Y023072D02*
X012442Y023072D01*
X012442Y023014D02*
X010464Y023014D01*
X010464Y022955D02*
X012442Y022955D01*
X012442Y022897D02*
X010439Y022897D01*
X010381Y022838D02*
X012442Y022838D01*
X012442Y022780D02*
X010238Y022780D01*
X010179Y022721D02*
X012442Y022721D01*
X012442Y022672D02*
X012495Y022619D01*
X013101Y022619D01*
X013153Y022672D01*
X013153Y023278D01*
X013101Y023330D01*
X012495Y023330D01*
X012442Y023278D01*
X012442Y022672D01*
X012451Y022663D02*
X010121Y022663D01*
X010062Y022604D02*
X014586Y022604D01*
X014586Y022546D02*
X010004Y022546D01*
X009945Y022487D02*
X014586Y022487D01*
X014586Y022429D02*
X009887Y022429D01*
X009853Y022370D02*
X014586Y022370D01*
X014586Y022312D02*
X009835Y022312D01*
X009776Y022253D02*
X014586Y022253D01*
X014586Y022663D02*
X013144Y022663D01*
X013153Y022721D02*
X014586Y022721D01*
X014586Y022780D02*
X013153Y022780D01*
X013153Y022838D02*
X014586Y022838D01*
X014586Y022897D02*
X013153Y022897D01*
X013153Y022955D02*
X014586Y022955D01*
X014586Y023014D02*
X013153Y023014D01*
X013153Y023072D02*
X014586Y023072D01*
X014586Y023131D02*
X013153Y023131D01*
X013153Y023189D02*
X014586Y023189D01*
X014586Y023248D02*
X013153Y023248D01*
X013125Y023306D02*
X014586Y023306D01*
X014586Y023365D02*
X006106Y023365D01*
X006094Y023423D02*
X012686Y023423D01*
X012727Y023406D02*
X012596Y023460D01*
X012496Y023561D01*
X012442Y023691D01*
X012442Y023833D01*
X012496Y023964D01*
X012596Y024064D01*
X012727Y024118D01*
X012868Y024118D01*
X012999Y024064D01*
X013099Y023964D01*
X013153Y023833D01*
X013153Y023691D01*
X013099Y023561D01*
X012999Y023460D01*
X012868Y023406D01*
X012727Y023406D01*
X012575Y023482D02*
X006093Y023482D01*
X006035Y023540D02*
X012517Y023540D01*
X012480Y023599D02*
X005976Y023599D01*
X005761Y023599D02*
X004710Y023599D01*
X004710Y023657D02*
X012456Y023657D01*
X012442Y023716D02*
X004710Y023716D01*
X004710Y023774D02*
X012442Y023774D01*
X012442Y023833D02*
X004710Y023833D01*
X004710Y023891D02*
X012466Y023891D01*
X012490Y023950D02*
X004710Y023950D01*
X004710Y024008D02*
X012541Y024008D01*
X012603Y024067D02*
X004710Y024067D01*
X004710Y024125D02*
X014586Y024125D01*
X014586Y024067D02*
X012992Y024067D01*
X013055Y024008D02*
X014586Y024008D01*
X014586Y023950D02*
X013105Y023950D01*
X013129Y023891D02*
X014586Y023891D01*
X014586Y023833D02*
X013153Y023833D01*
X013153Y023774D02*
X014586Y023774D01*
X014586Y023716D02*
X013153Y023716D01*
X013139Y023657D02*
X014586Y023657D01*
X014586Y023599D02*
X013115Y023599D01*
X013079Y023540D02*
X014586Y023540D01*
X014586Y023482D02*
X013020Y023482D01*
X012909Y023423D02*
X014586Y023423D01*
X014586Y024184D02*
X004710Y024184D01*
X004710Y024242D02*
X014586Y024242D01*
X014586Y024301D02*
X004710Y024301D01*
X004710Y024359D02*
X014586Y024359D01*
X014586Y024418D02*
X004710Y024418D01*
X004710Y024476D02*
X007691Y024476D01*
X007724Y024443D02*
X007911Y024443D01*
X008042Y024574D01*
X008042Y024587D01*
X008505Y024587D01*
X008610Y024482D01*
X008796Y024482D01*
X008928Y024614D01*
X008928Y024800D01*
X008844Y024884D01*
X008928Y024968D01*
X008928Y025154D01*
X008844Y025238D01*
X008928Y025322D01*
X008928Y025509D01*
X008854Y025583D01*
X008928Y025657D01*
X008928Y025843D01*
X008796Y025975D01*
X008610Y025975D01*
X008478Y025843D01*
X008478Y025791D01*
X008016Y025791D01*
X007911Y025896D01*
X007724Y025896D01*
X007592Y025765D01*
X007592Y025578D01*
X007666Y025504D01*
X007592Y025430D01*
X007592Y025244D01*
X007666Y025170D01*
X007592Y025095D01*
X007592Y024909D01*
X007666Y024835D01*
X007592Y024761D01*
X007592Y024574D01*
X007724Y024443D01*
X007632Y024535D02*
X004710Y024535D01*
X004710Y024593D02*
X007592Y024593D01*
X007592Y024652D02*
X004710Y024652D01*
X004710Y024710D02*
X007592Y024710D01*
X007600Y024769D02*
X004710Y024769D01*
X004710Y024827D02*
X007659Y024827D01*
X007616Y024886D02*
X004710Y024886D01*
X004710Y024944D02*
X007592Y024944D01*
X007592Y025003D02*
X004710Y025003D01*
X004710Y025061D02*
X007592Y025061D01*
X007617Y025120D02*
X004710Y025120D01*
X004710Y025178D02*
X007658Y025178D01*
X007599Y025237D02*
X004710Y025237D01*
X004710Y025295D02*
X007592Y025295D01*
X007592Y025354D02*
X004710Y025354D01*
X004710Y025412D02*
X007592Y025412D01*
X007633Y025471D02*
X004710Y025471D01*
X004710Y025529D02*
X007642Y025529D01*
X007592Y025588D02*
X004710Y025588D01*
X004710Y025646D02*
X007592Y025646D01*
X007592Y025705D02*
X004710Y025705D01*
X004710Y025763D02*
X007592Y025763D01*
X007649Y025822D02*
X004710Y025822D01*
X004710Y025880D02*
X007708Y025880D01*
X007927Y025880D02*
X008515Y025880D01*
X008478Y025822D02*
X007985Y025822D01*
X007817Y025671D02*
X008624Y025671D01*
X008703Y025750D01*
X008859Y025588D02*
X014586Y025588D01*
X014586Y025646D02*
X008917Y025646D01*
X008928Y025705D02*
X014586Y025705D01*
X014586Y025763D02*
X008928Y025763D01*
X008928Y025822D02*
X014586Y025822D01*
X014586Y025880D02*
X008892Y025880D01*
X008833Y025939D02*
X014586Y025939D01*
X014586Y025997D02*
X004710Y025997D01*
X004710Y025939D02*
X008573Y025939D01*
X008908Y025529D02*
X014586Y025529D01*
X014586Y025471D02*
X008928Y025471D01*
X008928Y025412D02*
X014586Y025412D01*
X014586Y025354D02*
X008928Y025354D01*
X008901Y025295D02*
X014586Y025295D01*
X014586Y025237D02*
X008846Y025237D01*
X008905Y025178D02*
X014586Y025178D01*
X014586Y025120D02*
X008928Y025120D01*
X008928Y025061D02*
X014586Y025061D01*
X014586Y025003D02*
X008928Y025003D01*
X008904Y024944D02*
X014586Y024944D01*
X014586Y024886D02*
X008846Y024886D01*
X008901Y024827D02*
X014586Y024827D01*
X014586Y024769D02*
X008928Y024769D01*
X008928Y024710D02*
X014586Y024710D01*
X014586Y024652D02*
X008928Y024652D01*
X008908Y024593D02*
X014586Y024593D01*
X014586Y024535D02*
X008849Y024535D01*
X008703Y024707D02*
X007857Y024707D01*
X007817Y024668D01*
X008003Y024535D02*
X008557Y024535D01*
X008644Y025002D02*
X007817Y025002D01*
X007817Y025337D02*
X008624Y025337D01*
X008703Y025416D01*
X008703Y025061D02*
X008644Y025002D01*
X007944Y024476D02*
X014586Y024476D01*
X014586Y026056D02*
X004710Y026056D01*
X004710Y026114D02*
X014586Y026114D01*
X014586Y026173D02*
X004710Y026173D01*
X004710Y026231D02*
X014586Y026231D01*
X014586Y026290D02*
X004710Y026290D01*
X004710Y026348D02*
X006842Y026348D01*
X006878Y026313D02*
X007064Y026313D01*
X007196Y026444D01*
X007196Y026593D01*
X007277Y026674D01*
X007363Y026674D01*
X007468Y026569D01*
X007655Y026569D01*
X007786Y026700D01*
X007786Y026887D01*
X007655Y027019D01*
X007468Y027019D01*
X007363Y026914D01*
X007177Y026914D01*
X007107Y026843D01*
X007026Y026763D01*
X006878Y026763D01*
X006746Y026631D01*
X006746Y026444D01*
X006878Y026313D01*
X006784Y026407D02*
X004710Y026407D01*
X004710Y026465D02*
X006746Y026465D01*
X006746Y026524D02*
X004710Y026524D01*
X004710Y026582D02*
X006746Y026582D01*
X006756Y026641D02*
X006527Y026641D01*
X006592Y026668D02*
X006739Y026814D01*
X006818Y027005D01*
X006818Y027212D01*
X006739Y027403D01*
X006592Y027549D01*
X006401Y027629D01*
X006194Y027629D01*
X006003Y027549D01*
X005857Y027403D01*
X005778Y027212D01*
X005778Y027005D01*
X005857Y026814D01*
X006003Y026668D01*
X006194Y026589D01*
X006401Y026589D01*
X006592Y026668D01*
X006624Y026699D02*
X006814Y026699D01*
X006873Y026758D02*
X006682Y026758D01*
X006739Y026816D02*
X007080Y026816D01*
X007138Y026875D02*
X006764Y026875D01*
X006788Y026933D02*
X007383Y026933D01*
X007441Y026992D02*
X006812Y026992D01*
X006818Y027050D02*
X008582Y027050D01*
X008582Y026992D02*
X007682Y026992D01*
X007740Y026933D02*
X008582Y026933D01*
X008582Y026875D02*
X007786Y026875D01*
X007786Y026816D02*
X008582Y026816D01*
X008582Y026792D02*
X008634Y026739D01*
X009449Y026739D01*
X009502Y026792D01*
X009502Y027606D01*
X009449Y027659D01*
X008634Y027659D01*
X008582Y027606D01*
X008582Y026792D01*
X008616Y026758D02*
X007786Y026758D01*
X007785Y026699D02*
X014586Y026699D01*
X014586Y026641D02*
X007727Y026641D01*
X007668Y026582D02*
X014586Y026582D01*
X014586Y026524D02*
X007196Y026524D01*
X007196Y026582D02*
X007455Y026582D01*
X007396Y026641D02*
X007244Y026641D01*
X007227Y026794D02*
X007561Y026794D01*
X007227Y026794D02*
X006971Y026538D01*
X007158Y026407D02*
X014586Y026407D01*
X014586Y026465D02*
X007196Y026465D01*
X007100Y026348D02*
X014586Y026348D01*
X014586Y026758D02*
X011251Y026758D01*
X011232Y026739D02*
X011502Y027009D01*
X011502Y027390D01*
X011232Y027659D01*
X010851Y027659D01*
X010582Y027390D01*
X010582Y027009D01*
X010851Y026739D01*
X011232Y026739D01*
X011309Y026816D02*
X014586Y026816D01*
X014586Y026875D02*
X011368Y026875D01*
X011426Y026933D02*
X014586Y026933D01*
X014586Y026992D02*
X011485Y026992D01*
X011502Y027050D02*
X014586Y027050D01*
X014586Y027109D02*
X011502Y027109D01*
X011502Y027167D02*
X014586Y027167D01*
X014586Y027226D02*
X011502Y027226D01*
X011502Y027284D02*
X014586Y027284D01*
X014586Y027343D02*
X011502Y027343D01*
X011490Y027401D02*
X014586Y027401D01*
X014586Y027460D02*
X012522Y027460D01*
X012517Y027454D02*
X012649Y027586D01*
X012649Y027691D01*
X012753Y027691D01*
X012885Y027822D01*
X012885Y027946D01*
X013009Y027946D01*
X013141Y028078D01*
X013141Y028265D01*
X013009Y028396D01*
X012860Y028396D01*
X012531Y028726D01*
X012531Y028875D01*
X012399Y029007D01*
X012212Y029007D01*
X012081Y028875D01*
X012081Y028771D01*
X011976Y028771D01*
X011844Y028639D01*
X011844Y028534D01*
X011740Y028534D01*
X011608Y028402D01*
X011608Y028216D01*
X011740Y028084D01*
X011888Y028084D01*
X012199Y027773D01*
X012199Y027773D01*
X012199Y027586D01*
X012330Y027454D01*
X012517Y027454D01*
X012581Y027518D02*
X014586Y027518D01*
X014586Y027577D02*
X012639Y027577D01*
X012649Y027635D02*
X014586Y027635D01*
X014586Y027694D02*
X012756Y027694D01*
X012815Y027752D02*
X014586Y027752D01*
X014586Y027811D02*
X012873Y027811D01*
X012885Y027869D02*
X014586Y027869D01*
X014586Y027928D02*
X012885Y027928D01*
X013049Y027986D02*
X014586Y027986D01*
X014586Y028045D02*
X013107Y028045D01*
X013141Y028103D02*
X014586Y028103D01*
X014586Y028162D02*
X013141Y028162D01*
X013141Y028220D02*
X014586Y028220D01*
X014586Y028279D02*
X013127Y028279D01*
X013068Y028337D02*
X014586Y028337D01*
X014586Y028396D02*
X013010Y028396D01*
X012803Y028454D02*
X014586Y028454D01*
X014586Y028513D02*
X012744Y028513D01*
X012686Y028571D02*
X014586Y028571D01*
X014586Y028630D02*
X012627Y028630D01*
X012569Y028688D02*
X014586Y028688D01*
X014586Y028747D02*
X012531Y028747D01*
X012531Y028805D02*
X014586Y028805D01*
X014586Y028864D02*
X012531Y028864D01*
X012483Y028922D02*
X014586Y028922D01*
X014586Y028981D02*
X012425Y028981D01*
X012306Y028782D02*
X012916Y028171D01*
X012660Y027955D02*
X012660Y027916D01*
X012660Y027955D02*
X012069Y028546D01*
X011894Y028688D02*
X011260Y028688D01*
X011249Y028699D02*
X011072Y028699D01*
X011072Y028229D01*
X011542Y028229D01*
X011542Y028406D01*
X011249Y028699D01*
X011318Y028630D02*
X011844Y028630D01*
X011844Y028571D02*
X011377Y028571D01*
X011435Y028513D02*
X011718Y028513D01*
X011660Y028454D02*
X011494Y028454D01*
X011542Y028396D02*
X011608Y028396D01*
X011608Y028337D02*
X011542Y028337D01*
X011542Y028279D02*
X011608Y028279D01*
X011608Y028220D02*
X011072Y028220D01*
X011072Y028229D02*
X011072Y028169D01*
X011542Y028169D01*
X011542Y027992D01*
X011249Y027699D01*
X011072Y027699D01*
X011072Y028169D01*
X011012Y028169D01*
X011012Y027699D01*
X010835Y027699D01*
X010542Y027992D01*
X010542Y028169D01*
X011012Y028169D01*
X011012Y028229D01*
X011012Y028699D01*
X010835Y028699D01*
X010542Y028406D01*
X010542Y028229D01*
X011012Y028229D01*
X011072Y028229D01*
X011072Y028279D02*
X011012Y028279D01*
X011012Y028337D02*
X011072Y028337D01*
X011072Y028396D02*
X011012Y028396D01*
X011012Y028454D02*
X011072Y028454D01*
X011072Y028513D02*
X011012Y028513D01*
X011012Y028571D02*
X011072Y028571D01*
X011072Y028630D02*
X011012Y028630D01*
X011012Y028688D02*
X011072Y028688D01*
X010824Y028688D02*
X006615Y028688D01*
X006592Y028711D02*
X006405Y028711D01*
X006273Y028580D01*
X006273Y028393D01*
X006405Y028261D01*
X006592Y028261D01*
X006598Y028268D01*
X007777Y028268D01*
X007882Y028163D01*
X008068Y028163D01*
X008200Y028295D01*
X008200Y028481D01*
X008068Y028613D01*
X007882Y028613D01*
X007777Y028508D01*
X006723Y028508D01*
X006723Y028580D01*
X006592Y028711D01*
X006674Y028630D02*
X008822Y028630D01*
X008851Y028659D02*
X008582Y028390D01*
X008582Y028009D01*
X008851Y027739D01*
X009232Y027739D01*
X009502Y028009D01*
X009502Y028390D01*
X009232Y028659D01*
X008851Y028659D01*
X008763Y028571D02*
X008110Y028571D01*
X008168Y028513D02*
X008705Y028513D01*
X008646Y028454D02*
X008200Y028454D01*
X008200Y028396D02*
X008588Y028396D01*
X008582Y028337D02*
X008200Y028337D01*
X008184Y028279D02*
X008582Y028279D01*
X008582Y028220D02*
X008125Y028220D01*
X007975Y028388D02*
X006597Y028388D01*
X006498Y028486D01*
X006330Y028337D02*
X004710Y028337D01*
X004710Y028279D02*
X006388Y028279D01*
X006273Y028396D02*
X004710Y028396D01*
X004710Y028454D02*
X006273Y028454D01*
X006273Y028513D02*
X004710Y028513D01*
X004710Y028571D02*
X006273Y028571D01*
X006323Y028630D02*
X004710Y028630D01*
X004710Y028688D02*
X006382Y028688D01*
X006723Y028571D02*
X007840Y028571D01*
X007781Y028513D02*
X006723Y028513D01*
X006401Y029344D02*
X006194Y029344D01*
X006003Y029424D01*
X005857Y029570D01*
X005778Y029761D01*
X005778Y029968D01*
X005857Y030159D01*
X006003Y030305D01*
X006194Y030384D01*
X006401Y030384D01*
X006592Y030305D01*
X006739Y030159D01*
X006818Y029968D01*
X006818Y029761D01*
X006739Y029570D01*
X006592Y029424D01*
X006401Y029344D01*
X006511Y029390D02*
X009382Y029390D01*
X009371Y029401D02*
X009441Y029331D01*
X010060Y029331D01*
X010145Y029246D01*
X010332Y029246D01*
X010464Y029378D01*
X010464Y029502D01*
X010548Y029502D01*
X010680Y029633D01*
X010680Y029820D01*
X010575Y029925D01*
X010575Y030032D01*
X010505Y030103D01*
X010103Y030505D01*
X010103Y031232D01*
X010418Y031547D01*
X010418Y032005D01*
X010421Y032002D01*
X010607Y032002D01*
X010739Y032133D01*
X010739Y032320D01*
X010607Y032452D01*
X010421Y032452D01*
X010371Y032402D01*
X010122Y032650D01*
X010052Y032721D01*
X009794Y032721D01*
X009794Y032733D01*
X009663Y032865D01*
X009476Y032865D01*
X009344Y032733D01*
X009344Y032547D01*
X009476Y032415D01*
X009549Y032415D01*
X009349Y032215D01*
X009338Y032215D01*
X009207Y032084D01*
X009207Y031897D01*
X009321Y031782D01*
X009240Y031782D01*
X009223Y031766D01*
X009223Y031847D01*
X009257Y031847D01*
X009223Y031847D02*
X009092Y031979D01*
X008905Y031979D01*
X008773Y031847D01*
X005602Y031847D01*
X005555Y031894D02*
X005673Y031776D01*
X005737Y031621D01*
X005737Y031454D01*
X005673Y031300D01*
X005555Y031182D01*
X005401Y031118D01*
X005234Y031118D01*
X005079Y031182D01*
X004961Y031300D01*
X004897Y031454D01*
X004897Y031621D01*
X004961Y031776D01*
X005079Y031894D01*
X005234Y031958D01*
X005401Y031958D01*
X005555Y031894D01*
X005526Y031906D02*
X008832Y031906D01*
X008890Y031964D02*
X004710Y031964D01*
X004710Y031906D02*
X005108Y031906D01*
X005033Y031847D02*
X004710Y031847D01*
X004710Y031789D02*
X004974Y031789D01*
X004943Y031730D02*
X004710Y031730D01*
X004710Y031672D02*
X004918Y031672D01*
X004897Y031613D02*
X004710Y031613D01*
X004710Y031555D02*
X004897Y031555D01*
X004897Y031496D02*
X004710Y031496D01*
X004710Y031438D02*
X004904Y031438D01*
X004928Y031379D02*
X004710Y031379D01*
X004710Y031321D02*
X004953Y031321D01*
X004999Y031262D02*
X004710Y031262D01*
X004710Y031204D02*
X005057Y031204D01*
X005167Y031145D02*
X004710Y031145D01*
X004710Y031087D02*
X005778Y031087D01*
X005778Y031145D02*
X005467Y031145D01*
X005577Y031204D02*
X005800Y031204D01*
X005778Y031149D02*
X005778Y030942D01*
X005857Y030751D01*
X006003Y030605D01*
X006194Y030526D01*
X006401Y030526D01*
X006592Y030605D01*
X006739Y030751D01*
X006818Y030942D01*
X006818Y031149D01*
X006739Y031340D01*
X006592Y031486D01*
X006401Y031566D01*
X006194Y031566D01*
X006003Y031486D01*
X005857Y031340D01*
X005778Y031149D01*
X005778Y031028D02*
X004710Y031028D01*
X004710Y030970D02*
X005778Y030970D01*
X005791Y030911D02*
X004710Y030911D01*
X004710Y030853D02*
X005815Y030853D01*
X005839Y030794D02*
X004710Y030794D01*
X004710Y030736D02*
X005872Y030736D01*
X005931Y030677D02*
X004710Y030677D01*
X004710Y030619D02*
X005989Y030619D01*
X006111Y030560D02*
X004710Y030560D01*
X004710Y030502D02*
X008504Y030502D01*
X008504Y030560D02*
X006485Y030560D01*
X006606Y030619D02*
X008504Y030619D01*
X008504Y030677D02*
X006665Y030677D01*
X006723Y030736D02*
X008504Y030736D01*
X008504Y030779D02*
X008504Y030012D01*
X008682Y029834D01*
X008752Y029764D01*
X009008Y029764D01*
X009371Y029401D01*
X009323Y029449D02*
X006617Y029449D01*
X006676Y029507D02*
X009265Y029507D01*
X009206Y029566D02*
X006734Y029566D01*
X006761Y029624D02*
X009148Y029624D01*
X009089Y029683D02*
X006785Y029683D01*
X006809Y029741D02*
X009031Y029741D01*
X009058Y029884D02*
X008802Y029884D01*
X008624Y030061D01*
X008624Y030829D01*
X008349Y031105D01*
X008509Y031262D02*
X008720Y031262D01*
X008741Y031241D02*
X008741Y030882D01*
X008674Y030949D01*
X008574Y031049D01*
X008574Y031198D01*
X008442Y031330D01*
X008256Y031330D01*
X008124Y031198D01*
X008124Y031011D01*
X008256Y030880D01*
X008404Y030880D01*
X008504Y030779D01*
X008490Y030794D02*
X006756Y030794D01*
X006781Y030853D02*
X008431Y030853D01*
X008224Y030911D02*
X006805Y030911D01*
X006818Y030970D02*
X008166Y030970D01*
X008124Y031028D02*
X006818Y031028D01*
X006818Y031087D02*
X008124Y031087D01*
X008124Y031145D02*
X006818Y031145D01*
X006795Y031204D02*
X008130Y031204D01*
X008188Y031262D02*
X006771Y031262D01*
X006747Y031321D02*
X008247Y031321D01*
X008451Y031321D02*
X008661Y031321D01*
X008636Y031346D02*
X008741Y031241D01*
X008741Y031204D02*
X008568Y031204D01*
X008574Y031145D02*
X008741Y031145D01*
X008741Y031087D02*
X008574Y031087D01*
X008595Y031028D02*
X008741Y031028D01*
X008741Y030970D02*
X008654Y030970D01*
X008712Y030911D02*
X008741Y030911D01*
X008636Y031346D02*
X008636Y031532D01*
X008767Y031664D01*
X008773Y031664D01*
X008773Y031847D01*
X008773Y031789D02*
X005660Y031789D01*
X005692Y031730D02*
X008773Y031730D01*
X008773Y031672D02*
X005716Y031672D01*
X005737Y031613D02*
X008716Y031613D01*
X008658Y031555D02*
X006427Y031555D01*
X006569Y031496D02*
X008636Y031496D01*
X008636Y031438D02*
X006641Y031438D01*
X006699Y031379D02*
X008636Y031379D01*
X008861Y031439D02*
X008861Y030160D01*
X009097Y030317D02*
X009195Y030219D01*
X009097Y030317D02*
X009097Y031538D01*
X008998Y031636D01*
X008998Y031754D01*
X009165Y031906D02*
X009207Y031906D01*
X009207Y031964D02*
X009107Y031964D01*
X009207Y032023D02*
X004710Y032023D01*
X004710Y032081D02*
X009207Y032081D01*
X009263Y032140D02*
X004710Y032140D01*
X004710Y032198D02*
X009321Y032198D01*
X009390Y032257D02*
X004710Y032257D01*
X004710Y032315D02*
X009449Y032315D01*
X009507Y032374D02*
X004710Y032374D01*
X004710Y032432D02*
X009459Y032432D01*
X009401Y032491D02*
X004710Y032491D01*
X004710Y032549D02*
X009344Y032549D01*
X009344Y032608D02*
X004710Y032608D01*
X004710Y032666D02*
X009344Y032666D01*
X009344Y032725D02*
X004710Y032725D01*
X004710Y032783D02*
X009394Y032783D01*
X009453Y032842D02*
X004710Y032842D01*
X004710Y032900D02*
X005107Y032900D01*
X005076Y032916D02*
X005141Y032883D01*
X005210Y032861D01*
X005281Y032849D01*
X005287Y032849D01*
X005287Y033279D01*
X004857Y033279D01*
X004857Y033273D01*
X004869Y033202D01*
X004891Y033133D01*
X004924Y033068D01*
X004967Y033010D01*
X005018Y032958D01*
X005076Y032916D01*
X005017Y032959D02*
X004710Y032959D01*
X004710Y033017D02*
X004961Y033017D01*
X004920Y033076D02*
X004710Y033076D01*
X004710Y033134D02*
X004891Y033134D01*
X004872Y033193D02*
X004710Y033193D01*
X004710Y033251D02*
X004861Y033251D01*
X004857Y033339D02*
X005287Y033339D01*
X005287Y033279D01*
X005347Y033279D01*
X005347Y032849D01*
X005354Y032849D01*
X005425Y032861D01*
X005494Y032883D01*
X005558Y032916D01*
X005617Y032958D01*
X005668Y033010D01*
X005711Y033068D01*
X005744Y033133D01*
X005766Y033202D01*
X005777Y033273D01*
X005777Y033279D01*
X005347Y033279D01*
X005347Y033339D01*
X005287Y033339D01*
X005287Y033769D01*
X005281Y033769D01*
X005210Y033758D01*
X005141Y033736D01*
X005076Y033703D01*
X005018Y033660D01*
X004967Y033609D01*
X004924Y033550D01*
X004891Y033486D01*
X004869Y033417D01*
X004857Y033345D01*
X004857Y033339D01*
X004861Y033368D02*
X004710Y033368D01*
X004710Y033310D02*
X005287Y033310D01*
X005287Y033368D02*
X005347Y033368D01*
X005347Y033339D02*
X005347Y033769D01*
X005354Y033769D01*
X005425Y033758D01*
X005494Y033736D01*
X005558Y033703D01*
X005617Y033660D01*
X005668Y033609D01*
X005711Y033550D01*
X005744Y033486D01*
X005766Y033417D01*
X005777Y033345D01*
X005777Y033339D01*
X005347Y033339D01*
X005347Y033310D02*
X006126Y033310D01*
X006194Y033281D02*
X006401Y033281D01*
X006592Y033361D01*
X006739Y033507D01*
X006818Y033698D01*
X006818Y033905D01*
X006739Y034096D01*
X006592Y034242D01*
X006401Y034321D01*
X006194Y034321D01*
X006003Y034242D01*
X005857Y034096D01*
X005778Y033905D01*
X005778Y033698D01*
X005857Y033507D01*
X006003Y033361D01*
X006194Y033281D01*
X005996Y033368D02*
X005774Y033368D01*
X005763Y033427D02*
X005937Y033427D01*
X005879Y033485D02*
X005744Y033485D01*
X005714Y033544D02*
X005842Y033544D01*
X005817Y033602D02*
X005673Y033602D01*
X005616Y033661D02*
X005793Y033661D01*
X005778Y033719D02*
X005526Y033719D01*
X005347Y033719D02*
X005287Y033719D01*
X005287Y033661D02*
X005347Y033661D01*
X005347Y033602D02*
X005287Y033602D01*
X005287Y033544D02*
X005347Y033544D01*
X005347Y033485D02*
X005287Y033485D01*
X005287Y033427D02*
X005347Y033427D01*
X005347Y033251D02*
X005287Y033251D01*
X005287Y033193D02*
X005347Y033193D01*
X005347Y033134D02*
X005287Y033134D01*
X005287Y033076D02*
X005347Y033076D01*
X005347Y033017D02*
X005287Y033017D01*
X005287Y032959D02*
X005347Y032959D01*
X005347Y032900D02*
X005287Y032900D01*
X005528Y032900D02*
X011066Y032900D01*
X011110Y032944D02*
X010978Y032812D01*
X010978Y032626D01*
X011082Y032522D01*
X010978Y032418D01*
X010978Y032232D01*
X011110Y032100D01*
X011296Y032100D01*
X011401Y032205D01*
X013653Y032205D01*
X013878Y031980D01*
X013878Y030938D01*
X013436Y030495D01*
X013436Y030568D01*
X013304Y030700D01*
X013118Y030700D01*
X013078Y030659D01*
X012478Y030659D01*
X012418Y030719D01*
X012232Y030719D01*
X012100Y030588D01*
X012100Y030401D01*
X012232Y030269D01*
X012418Y030269D01*
X012478Y030329D01*
X013038Y030329D01*
X013118Y030250D01*
X013190Y030250D01*
X013129Y030188D01*
X012980Y030188D01*
X012848Y030056D01*
X012848Y029870D01*
X012980Y029738D01*
X013166Y029738D01*
X013189Y029761D01*
X013189Y029323D01*
X013327Y029185D01*
X013398Y029114D01*
X013694Y029114D01*
X013825Y029246D01*
X013974Y029246D01*
X014105Y029378D01*
X014105Y029564D01*
X013974Y029696D01*
X013922Y029696D01*
X013922Y030110D01*
X014532Y030720D01*
X014532Y032867D01*
X014462Y032937D01*
X014088Y033311D01*
X012425Y033311D01*
X012320Y033416D01*
X012134Y033416D01*
X012002Y033284D01*
X012002Y033098D01*
X012045Y033055D01*
X011370Y033055D01*
X011300Y032985D01*
X011258Y032944D01*
X011110Y032944D01*
X011008Y032842D02*
X009686Y032842D01*
X009744Y032783D02*
X010978Y032783D01*
X010978Y032725D02*
X009794Y032725D01*
X009609Y032601D02*
X010002Y032601D01*
X010376Y032227D01*
X010514Y032227D01*
X010685Y032374D02*
X010978Y032374D01*
X010978Y032315D02*
X010739Y032315D01*
X010739Y032257D02*
X010978Y032257D01*
X011012Y032198D02*
X010739Y032198D01*
X010739Y032140D02*
X011070Y032140D01*
X011203Y032325D02*
X013703Y032325D01*
X013998Y032030D01*
X013998Y030888D01*
X013073Y029963D01*
X012918Y029800D02*
X010680Y029800D01*
X010680Y029741D02*
X012977Y029741D01*
X012860Y029858D02*
X010642Y029858D01*
X010583Y029917D02*
X012848Y029917D01*
X012848Y029975D02*
X010575Y029975D01*
X010574Y030034D02*
X012848Y030034D01*
X012884Y030092D02*
X010515Y030092D01*
X010457Y030151D02*
X012943Y030151D01*
X013100Y030268D02*
X010340Y030268D01*
X010281Y030326D02*
X012175Y030326D01*
X012117Y030385D02*
X010223Y030385D01*
X010164Y030443D02*
X012100Y030443D01*
X012100Y030502D02*
X010106Y030502D01*
X010103Y030560D02*
X012100Y030560D01*
X012131Y030619D02*
X010103Y030619D01*
X010103Y030677D02*
X012190Y030677D01*
X012461Y030677D02*
X013095Y030677D01*
X013327Y030677D02*
X013618Y030677D01*
X013676Y030736D02*
X010103Y030736D01*
X010103Y030794D02*
X013735Y030794D01*
X013793Y030853D02*
X010103Y030853D01*
X010103Y030911D02*
X013852Y030911D01*
X013878Y030970D02*
X010103Y030970D01*
X010103Y031028D02*
X013878Y031028D01*
X013878Y031087D02*
X010103Y031087D01*
X010103Y031145D02*
X013878Y031145D01*
X013878Y031204D02*
X010103Y031204D01*
X010133Y031262D02*
X013878Y031262D01*
X013878Y031321D02*
X010191Y031321D01*
X010250Y031379D02*
X013878Y031379D01*
X013878Y031438D02*
X010308Y031438D01*
X010367Y031496D02*
X013878Y031496D01*
X013878Y031555D02*
X010418Y031555D01*
X010418Y031613D02*
X013878Y031613D01*
X013878Y031672D02*
X010418Y031672D01*
X010418Y031730D02*
X013878Y031730D01*
X013878Y031789D02*
X010418Y031789D01*
X010418Y031847D02*
X013878Y031847D01*
X013878Y031906D02*
X010418Y031906D01*
X010418Y031964D02*
X013878Y031964D01*
X013836Y032023D02*
X010628Y032023D01*
X010687Y032081D02*
X013777Y032081D01*
X013719Y032140D02*
X011336Y032140D01*
X011394Y032198D02*
X013660Y032198D01*
X013998Y032679D02*
X014136Y032542D01*
X014136Y030849D01*
X013309Y030022D01*
X013309Y029372D01*
X013447Y029234D01*
X013644Y029234D01*
X013880Y029471D01*
X014045Y029624D02*
X014586Y029624D01*
X014586Y029566D02*
X014104Y029566D01*
X014105Y029507D02*
X014586Y029507D01*
X014586Y029449D02*
X014105Y029449D01*
X014105Y029390D02*
X014586Y029390D01*
X014586Y029332D02*
X014059Y029332D01*
X014001Y029273D02*
X014586Y029273D01*
X014586Y029215D02*
X013794Y029215D01*
X013735Y029156D02*
X014586Y029156D01*
X014586Y029098D02*
X005686Y029098D01*
X005668Y029073D02*
X005711Y029131D01*
X005744Y029196D01*
X005766Y029265D01*
X005777Y029336D01*
X005777Y029342D01*
X005347Y029342D01*
X005347Y028912D01*
X005354Y028912D01*
X005425Y028924D01*
X005494Y028946D01*
X005558Y028979D01*
X005617Y029021D01*
X005668Y029073D01*
X005635Y029039D02*
X014586Y029039D01*
X014586Y029683D02*
X013987Y029683D01*
X013922Y029741D02*
X014586Y029741D01*
X014586Y029800D02*
X013922Y029800D01*
X013922Y029858D02*
X014586Y029858D01*
X014586Y029917D02*
X013922Y029917D01*
X013922Y029975D02*
X014586Y029975D01*
X014586Y030034D02*
X013922Y030034D01*
X013922Y030092D02*
X014586Y030092D01*
X014586Y030151D02*
X013962Y030151D01*
X014021Y030209D02*
X014586Y030209D01*
X014586Y030268D02*
X014079Y030268D01*
X014138Y030326D02*
X014586Y030326D01*
X014586Y030385D02*
X014196Y030385D01*
X014255Y030443D02*
X014586Y030443D01*
X014586Y030502D02*
X014313Y030502D01*
X014372Y030560D02*
X014586Y030560D01*
X014586Y030619D02*
X014430Y030619D01*
X014489Y030677D02*
X014586Y030677D01*
X014586Y030736D02*
X014532Y030736D01*
X014532Y030794D02*
X014586Y030794D01*
X014586Y030853D02*
X014532Y030853D01*
X014532Y030911D02*
X014586Y030911D01*
X014586Y030970D02*
X014532Y030970D01*
X014532Y031028D02*
X014586Y031028D01*
X014586Y031087D02*
X014532Y031087D01*
X014532Y031145D02*
X014586Y031145D01*
X014586Y031204D02*
X014532Y031204D01*
X014532Y031262D02*
X014586Y031262D01*
X014586Y031321D02*
X014532Y031321D01*
X014532Y031379D02*
X014586Y031379D01*
X014586Y031438D02*
X014532Y031438D01*
X014532Y031496D02*
X014586Y031496D01*
X014586Y031555D02*
X014532Y031555D01*
X014532Y031613D02*
X014586Y031613D01*
X014586Y031672D02*
X014532Y031672D01*
X014532Y031730D02*
X014586Y031730D01*
X014586Y031789D02*
X014532Y031789D01*
X014532Y031847D02*
X014586Y031847D01*
X014586Y031906D02*
X014532Y031906D01*
X014532Y031964D02*
X014586Y031964D01*
X014586Y032023D02*
X014532Y032023D01*
X014532Y032081D02*
X014586Y032081D01*
X014586Y032140D02*
X014532Y032140D01*
X014532Y032198D02*
X014586Y032198D01*
X014586Y032257D02*
X014532Y032257D01*
X014532Y032315D02*
X014586Y032315D01*
X014586Y032374D02*
X014532Y032374D01*
X014532Y032432D02*
X014586Y032432D01*
X014586Y032491D02*
X014532Y032491D01*
X014532Y032549D02*
X014586Y032549D01*
X014586Y032608D02*
X014532Y032608D01*
X014532Y032666D02*
X014586Y032666D01*
X014586Y032725D02*
X014532Y032725D01*
X014532Y032783D02*
X014586Y032783D01*
X014586Y032842D02*
X014532Y032842D01*
X014499Y032900D02*
X014586Y032900D01*
X014586Y032959D02*
X014440Y032959D01*
X014382Y033017D02*
X014586Y033017D01*
X014586Y033076D02*
X014323Y033076D01*
X014265Y033134D02*
X014586Y033134D01*
X014586Y033193D02*
X014206Y033193D01*
X014148Y033251D02*
X014586Y033251D01*
X014586Y033310D02*
X014089Y033310D01*
X014038Y033191D02*
X014412Y032817D01*
X014412Y030770D01*
X013802Y030160D01*
X013802Y029727D01*
X013546Y029471D01*
X013546Y029805D02*
X013546Y030081D01*
X014274Y030809D01*
X014274Y032778D01*
X014117Y032935D01*
X011420Y032935D01*
X011203Y032719D01*
X011055Y032549D02*
X010224Y032549D01*
X010282Y032491D02*
X011051Y032491D01*
X010992Y032432D02*
X010627Y032432D01*
X010402Y032432D02*
X010341Y032432D01*
X010165Y032608D02*
X010996Y032608D01*
X010978Y032666D02*
X010107Y032666D01*
X009963Y032463D02*
X010298Y032128D01*
X010298Y031597D01*
X009983Y031282D01*
X009983Y030455D01*
X010455Y029983D01*
X010455Y029727D01*
X010612Y029566D02*
X013189Y029566D01*
X013189Y029624D02*
X010671Y029624D01*
X010680Y029683D02*
X013189Y029683D01*
X013189Y029741D02*
X013170Y029741D01*
X013189Y029507D02*
X010554Y029507D01*
X010464Y029449D02*
X013189Y029449D01*
X013189Y029390D02*
X010464Y029390D01*
X010418Y029332D02*
X013189Y029332D01*
X013239Y029273D02*
X010359Y029273D01*
X010219Y029451D02*
X010239Y029471D01*
X010219Y029451D02*
X009491Y029451D01*
X009058Y029884D01*
X009353Y029923D02*
X009432Y030002D01*
X009432Y030317D01*
X009333Y030416D01*
X009333Y031557D01*
X009315Y031789D02*
X009223Y031789D01*
X009432Y031990D02*
X009432Y032128D01*
X009766Y032463D01*
X009963Y032463D01*
X009943Y032227D02*
X010160Y032010D01*
X010160Y031636D01*
X009845Y031321D01*
X009845Y030396D01*
X010061Y030179D01*
X010061Y029864D01*
X010121Y029805D01*
X009924Y029923D02*
X009786Y029786D01*
X009786Y029687D01*
X009924Y029923D02*
X009924Y030120D01*
X009707Y030337D01*
X009707Y031360D01*
X009924Y031577D01*
X009924Y031892D01*
X009943Y032227D02*
X009865Y032227D01*
X009609Y032601D02*
X009569Y032640D01*
X009668Y031656D02*
X009569Y031557D01*
X009569Y030140D01*
X009687Y030022D01*
X009440Y029332D02*
X005777Y029332D01*
X005767Y029273D02*
X010118Y029273D01*
X010398Y030209D02*
X013150Y030209D01*
X013041Y030326D02*
X012475Y030326D01*
X013385Y030619D02*
X013559Y030619D01*
X013501Y030560D02*
X013436Y030560D01*
X013436Y030502D02*
X013442Y030502D01*
X013297Y029215D02*
X005750Y029215D01*
X005723Y029156D02*
X013356Y029156D01*
X012424Y027719D02*
X012424Y027679D01*
X012424Y027719D02*
X011833Y028309D01*
X011663Y028162D02*
X011542Y028162D01*
X011542Y028103D02*
X011721Y028103D01*
X011542Y028045D02*
X011928Y028045D01*
X011987Y027986D02*
X011536Y027986D01*
X011477Y027928D02*
X012045Y027928D01*
X012104Y027869D02*
X011419Y027869D01*
X011360Y027811D02*
X012162Y027811D01*
X012199Y027752D02*
X011302Y027752D01*
X011256Y027635D02*
X012199Y027635D01*
X012199Y027694D02*
X005733Y027694D01*
X005737Y027684D02*
X005673Y027839D01*
X005555Y027957D01*
X005401Y028021D01*
X005234Y028021D01*
X005079Y027957D01*
X004961Y027839D01*
X004897Y027684D01*
X004897Y027517D01*
X004961Y027363D01*
X005079Y027245D01*
X005234Y027181D01*
X005401Y027181D01*
X005555Y027245D01*
X005673Y027363D01*
X005737Y027517D01*
X005737Y027684D01*
X005737Y027635D02*
X008611Y027635D01*
X008582Y027577D02*
X006526Y027577D01*
X006623Y027518D02*
X008582Y027518D01*
X008582Y027460D02*
X006682Y027460D01*
X006739Y027401D02*
X008582Y027401D01*
X008582Y027343D02*
X006764Y027343D01*
X006788Y027284D02*
X008582Y027284D01*
X008582Y027226D02*
X006812Y027226D01*
X006818Y027167D02*
X008582Y027167D01*
X008582Y027109D02*
X006818Y027109D01*
X006069Y027577D02*
X005737Y027577D01*
X005737Y027518D02*
X005972Y027518D01*
X005913Y027460D02*
X005714Y027460D01*
X005689Y027401D02*
X005856Y027401D01*
X005832Y027343D02*
X005653Y027343D01*
X005595Y027284D02*
X005808Y027284D01*
X005783Y027226D02*
X005510Y027226D01*
X005778Y027167D02*
X004710Y027167D01*
X004710Y027109D02*
X005778Y027109D01*
X005778Y027050D02*
X004710Y027050D01*
X004710Y026992D02*
X005783Y026992D01*
X005807Y026933D02*
X004710Y026933D01*
X004710Y026875D02*
X005832Y026875D01*
X005856Y026816D02*
X004710Y026816D01*
X004710Y026758D02*
X005913Y026758D01*
X005972Y026699D02*
X004710Y026699D01*
X004710Y026641D02*
X006068Y026641D01*
X005709Y027752D02*
X008838Y027752D01*
X008780Y027811D02*
X005685Y027811D01*
X005643Y027869D02*
X008721Y027869D01*
X008663Y027928D02*
X005584Y027928D01*
X005484Y027986D02*
X008604Y027986D01*
X008582Y028045D02*
X004710Y028045D01*
X004710Y028103D02*
X008582Y028103D01*
X008582Y028162D02*
X004710Y028162D01*
X004710Y028220D02*
X007825Y028220D01*
X008716Y029800D02*
X006818Y029800D01*
X006818Y029858D02*
X008658Y029858D01*
X008599Y029917D02*
X006818Y029917D01*
X006815Y029975D02*
X008541Y029975D01*
X008504Y030034D02*
X006790Y030034D01*
X006766Y030092D02*
X008504Y030092D01*
X008504Y030151D02*
X006742Y030151D01*
X006688Y030209D02*
X008504Y030209D01*
X008504Y030268D02*
X006630Y030268D01*
X006542Y030326D02*
X008504Y030326D01*
X008504Y030385D02*
X004710Y030385D01*
X004710Y030443D02*
X008504Y030443D01*
X009262Y028630D02*
X009822Y028630D01*
X009851Y028659D02*
X009582Y028390D01*
X009582Y028009D01*
X009851Y027739D01*
X010232Y027739D01*
X010502Y028009D01*
X010502Y028390D01*
X010232Y028659D01*
X009851Y028659D01*
X009763Y028571D02*
X009320Y028571D01*
X009379Y028513D02*
X009705Y028513D01*
X009646Y028454D02*
X009437Y028454D01*
X009496Y028396D02*
X009588Y028396D01*
X009582Y028337D02*
X009502Y028337D01*
X009502Y028279D02*
X009582Y028279D01*
X009582Y028220D02*
X009502Y028220D01*
X009502Y028162D02*
X009582Y028162D01*
X009582Y028103D02*
X009502Y028103D01*
X009502Y028045D02*
X009582Y028045D01*
X009604Y027986D02*
X009479Y027986D01*
X009421Y027928D02*
X009663Y027928D01*
X009721Y027869D02*
X009362Y027869D01*
X009304Y027811D02*
X009780Y027811D01*
X009838Y027752D02*
X009245Y027752D01*
X009473Y027635D02*
X009827Y027635D01*
X009851Y027659D02*
X009582Y027390D01*
X009582Y027009D01*
X009851Y026739D01*
X010232Y026739D01*
X010502Y027009D01*
X010502Y027390D01*
X010232Y027659D01*
X009851Y027659D01*
X009769Y027577D02*
X009502Y027577D01*
X009502Y027518D02*
X009710Y027518D01*
X009652Y027460D02*
X009502Y027460D01*
X009502Y027401D02*
X009593Y027401D01*
X009582Y027343D02*
X009502Y027343D01*
X009502Y027284D02*
X009582Y027284D01*
X009582Y027226D02*
X009502Y027226D01*
X009502Y027167D02*
X009582Y027167D01*
X009582Y027109D02*
X009502Y027109D01*
X009502Y027050D02*
X009582Y027050D01*
X009599Y026992D02*
X009502Y026992D01*
X009502Y026933D02*
X009657Y026933D01*
X009716Y026875D02*
X009502Y026875D01*
X009502Y026816D02*
X009774Y026816D01*
X009833Y026758D02*
X009468Y026758D01*
X010251Y026758D02*
X010833Y026758D01*
X010774Y026816D02*
X010309Y026816D01*
X010368Y026875D02*
X010716Y026875D01*
X010657Y026933D02*
X010426Y026933D01*
X010485Y026992D02*
X010599Y026992D01*
X010582Y027050D02*
X010502Y027050D01*
X010502Y027109D02*
X010582Y027109D01*
X010582Y027167D02*
X010502Y027167D01*
X010502Y027226D02*
X010582Y027226D01*
X010582Y027284D02*
X010502Y027284D01*
X010502Y027343D02*
X010582Y027343D01*
X010593Y027401D02*
X010490Y027401D01*
X010432Y027460D02*
X010652Y027460D01*
X010710Y027518D02*
X010373Y027518D01*
X010315Y027577D02*
X010769Y027577D01*
X010827Y027635D02*
X010256Y027635D01*
X010245Y027752D02*
X010782Y027752D01*
X010723Y027811D02*
X010304Y027811D01*
X010362Y027869D02*
X010665Y027869D01*
X010606Y027928D02*
X010421Y027928D01*
X010479Y027986D02*
X010548Y027986D01*
X010542Y028045D02*
X010502Y028045D01*
X010502Y028103D02*
X010542Y028103D01*
X010542Y028162D02*
X010502Y028162D01*
X010502Y028220D02*
X011012Y028220D01*
X011012Y028162D02*
X011072Y028162D01*
X011072Y028103D02*
X011012Y028103D01*
X011012Y028045D02*
X011072Y028045D01*
X011072Y027986D02*
X011012Y027986D01*
X011012Y027928D02*
X011072Y027928D01*
X011072Y027869D02*
X011012Y027869D01*
X011012Y027811D02*
X011072Y027811D01*
X011072Y027752D02*
X011012Y027752D01*
X011315Y027577D02*
X012208Y027577D01*
X012267Y027518D02*
X011373Y027518D01*
X011432Y027460D02*
X012325Y027460D01*
X011952Y028747D02*
X004710Y028747D01*
X004710Y028805D02*
X012081Y028805D01*
X012081Y028864D02*
X004710Y028864D01*
X004710Y028922D02*
X005219Y028922D01*
X005210Y028924D02*
X005281Y028912D01*
X005287Y028912D01*
X005287Y029342D01*
X004857Y029342D01*
X004857Y029336D01*
X004869Y029265D01*
X004891Y029196D01*
X004924Y029131D01*
X004967Y029073D01*
X005018Y029021D01*
X005076Y028979D01*
X005141Y028946D01*
X005210Y028924D01*
X005287Y028922D02*
X005347Y028922D01*
X005347Y028981D02*
X005287Y028981D01*
X005287Y029039D02*
X005347Y029039D01*
X005347Y029098D02*
X005287Y029098D01*
X005287Y029156D02*
X005347Y029156D01*
X005347Y029215D02*
X005287Y029215D01*
X005287Y029273D02*
X005347Y029273D01*
X005347Y029332D02*
X005287Y029332D01*
X005287Y029342D02*
X005347Y029342D01*
X005347Y029402D01*
X005287Y029402D01*
X005287Y029342D01*
X005287Y029390D02*
X004710Y029390D01*
X004710Y029332D02*
X004858Y029332D01*
X004867Y029273D02*
X004710Y029273D01*
X004710Y029215D02*
X004885Y029215D01*
X004911Y029156D02*
X004710Y029156D01*
X004710Y029098D02*
X004948Y029098D01*
X005000Y029039D02*
X004710Y029039D01*
X004710Y028981D02*
X005074Y028981D01*
X005416Y028922D02*
X012128Y028922D01*
X012186Y028981D02*
X005561Y028981D01*
X005347Y029390D02*
X006084Y029390D01*
X005978Y029449D02*
X005771Y029449D01*
X005766Y029480D02*
X005744Y029549D01*
X005711Y029613D01*
X005668Y029672D01*
X005617Y029723D01*
X005558Y029766D01*
X005494Y029799D01*
X005425Y029821D01*
X005354Y029832D01*
X005347Y029832D01*
X005347Y029402D01*
X005777Y029402D01*
X005777Y029408D01*
X005766Y029480D01*
X005757Y029507D02*
X005920Y029507D01*
X005861Y029566D02*
X005735Y029566D01*
X005703Y029624D02*
X005834Y029624D01*
X005810Y029683D02*
X005658Y029683D01*
X005592Y029741D02*
X005786Y029741D01*
X005778Y029800D02*
X005491Y029800D01*
X005347Y029800D02*
X005287Y029800D01*
X005287Y029832D02*
X005281Y029832D01*
X005210Y029821D01*
X005141Y029799D01*
X005076Y029766D01*
X005018Y029723D01*
X004967Y029672D01*
X004924Y029613D01*
X004891Y029549D01*
X004869Y029480D01*
X004857Y029408D01*
X004857Y029402D01*
X005287Y029402D01*
X005287Y029832D01*
X005287Y029741D02*
X005347Y029741D01*
X005347Y029683D02*
X005287Y029683D01*
X005287Y029624D02*
X005347Y029624D01*
X005347Y029566D02*
X005287Y029566D01*
X005287Y029507D02*
X005347Y029507D01*
X005347Y029449D02*
X005287Y029449D01*
X005144Y029800D02*
X004710Y029800D01*
X004710Y029858D02*
X005778Y029858D01*
X005778Y029917D02*
X004710Y029917D01*
X004710Y029975D02*
X005781Y029975D01*
X005805Y030034D02*
X004710Y030034D01*
X004710Y030092D02*
X005829Y030092D01*
X005853Y030151D02*
X004710Y030151D01*
X004710Y030209D02*
X005907Y030209D01*
X005966Y030268D02*
X004710Y030268D01*
X004710Y030326D02*
X006054Y030326D01*
X005825Y031262D02*
X005636Y031262D01*
X005682Y031321D02*
X005849Y031321D01*
X005896Y031379D02*
X005706Y031379D01*
X005731Y031438D02*
X005954Y031438D01*
X006027Y031496D02*
X005737Y031496D01*
X005737Y031555D02*
X006168Y031555D01*
X005617Y032959D02*
X011273Y032959D01*
X011332Y033017D02*
X005674Y033017D01*
X005715Y033076D02*
X012024Y033076D01*
X012002Y033134D02*
X005744Y033134D01*
X005763Y033193D02*
X012002Y033193D01*
X012002Y033251D02*
X005774Y033251D01*
X005778Y033778D02*
X004710Y033778D01*
X004710Y033836D02*
X005778Y033836D01*
X005778Y033895D02*
X004710Y033895D01*
X004710Y033953D02*
X005798Y033953D01*
X005822Y034012D02*
X004710Y034012D01*
X004710Y034070D02*
X005846Y034070D01*
X005890Y034129D02*
X004710Y034129D01*
X004710Y034187D02*
X005948Y034187D01*
X006011Y034246D02*
X004710Y034246D01*
X004710Y034304D02*
X006153Y034304D01*
X006194Y034463D02*
X006401Y034463D01*
X006592Y034542D01*
X006739Y034688D01*
X006818Y034879D01*
X006818Y035086D01*
X006739Y035277D01*
X006592Y035423D01*
X006401Y035503D01*
X006194Y035503D01*
X006003Y035423D01*
X005857Y035277D01*
X005778Y035086D01*
X005778Y034879D01*
X005857Y034688D01*
X006003Y034542D01*
X006194Y034463D01*
X006153Y034480D02*
X004710Y034480D01*
X004710Y034538D02*
X006012Y034538D01*
X005948Y034597D02*
X004710Y034597D01*
X004710Y034655D02*
X005890Y034655D01*
X005846Y034714D02*
X004710Y034714D01*
X004710Y034772D02*
X005822Y034772D01*
X005798Y034831D02*
X004710Y034831D01*
X004710Y034889D02*
X005778Y034889D01*
X005778Y034948D02*
X004710Y034948D01*
X004710Y035006D02*
X005778Y035006D01*
X005778Y035065D02*
X005425Y035065D01*
X005401Y035055D02*
X005555Y035119D01*
X005673Y035237D01*
X005737Y035391D01*
X005737Y035558D01*
X005673Y035713D01*
X005555Y035831D01*
X005401Y035895D01*
X005234Y035895D01*
X005079Y035831D01*
X004961Y035713D01*
X004897Y035558D01*
X004897Y035391D01*
X004961Y035237D01*
X005079Y035119D01*
X005234Y035055D01*
X005401Y035055D01*
X005560Y035123D02*
X005793Y035123D01*
X005817Y035182D02*
X005618Y035182D01*
X005675Y035240D02*
X005842Y035240D01*
X005878Y035299D02*
X005699Y035299D01*
X005723Y035357D02*
X005937Y035357D01*
X005995Y035416D02*
X005737Y035416D01*
X005737Y035474D02*
X006126Y035474D01*
X006470Y035474D02*
X014586Y035474D01*
X014586Y035416D02*
X006600Y035416D01*
X006658Y035357D02*
X014586Y035357D01*
X014586Y035299D02*
X006717Y035299D01*
X006754Y035240D02*
X014586Y035240D01*
X014586Y035182D02*
X006778Y035182D01*
X006802Y035123D02*
X014586Y035123D01*
X014586Y035065D02*
X006818Y035065D01*
X006818Y035006D02*
X014586Y035006D01*
X014586Y034948D02*
X006818Y034948D01*
X006818Y034889D02*
X014586Y034889D01*
X014586Y034831D02*
X006798Y034831D01*
X006773Y034772D02*
X014586Y034772D01*
X014586Y034714D02*
X006749Y034714D01*
X006706Y034655D02*
X014586Y034655D01*
X014586Y034597D02*
X006647Y034597D01*
X006584Y034538D02*
X014586Y034538D01*
X014586Y034480D02*
X006442Y034480D01*
X006443Y034304D02*
X014586Y034304D01*
X014586Y034246D02*
X006584Y034246D01*
X006647Y034187D02*
X014586Y034187D01*
X014586Y034129D02*
X006706Y034129D01*
X006749Y034070D02*
X014586Y034070D01*
X014586Y034012D02*
X006773Y034012D01*
X006798Y033953D02*
X014586Y033953D01*
X014586Y033895D02*
X006818Y033895D01*
X006818Y033836D02*
X014586Y033836D01*
X014586Y033778D02*
X006818Y033778D01*
X006818Y033719D02*
X014586Y033719D01*
X014586Y033661D02*
X006802Y033661D01*
X006778Y033602D02*
X014586Y033602D01*
X014586Y033544D02*
X006754Y033544D01*
X006717Y033485D02*
X014586Y033485D01*
X014586Y033427D02*
X006658Y033427D01*
X006600Y033368D02*
X012086Y033368D01*
X012027Y033310D02*
X006469Y033310D01*
X005109Y033719D02*
X004710Y033719D01*
X004710Y033661D02*
X005018Y033661D01*
X004962Y033602D02*
X004710Y033602D01*
X004710Y033544D02*
X004921Y033544D01*
X004891Y033485D02*
X004710Y033485D01*
X004710Y033427D02*
X004872Y033427D01*
X004710Y034363D02*
X014586Y034363D01*
X014586Y034421D02*
X004710Y034421D01*
X004710Y035065D02*
X005210Y035065D01*
X005075Y035123D02*
X004710Y035123D01*
X004710Y035182D02*
X005016Y035182D01*
X004960Y035240D02*
X004710Y035240D01*
X004710Y035299D02*
X004936Y035299D01*
X004911Y035357D02*
X004710Y035357D01*
X004710Y035416D02*
X004897Y035416D01*
X004897Y035474D02*
X004710Y035474D01*
X004710Y035533D02*
X004897Y035533D01*
X004911Y035591D02*
X004710Y035591D01*
X004710Y035650D02*
X004935Y035650D01*
X004959Y035708D02*
X004710Y035708D01*
X004710Y035767D02*
X005015Y035767D01*
X005074Y035825D02*
X004710Y035825D01*
X004710Y035884D02*
X005207Y035884D01*
X005427Y035884D02*
X014586Y035884D01*
X014586Y035942D02*
X004710Y035942D01*
X004710Y036001D02*
X014586Y036001D01*
X014586Y036059D02*
X004710Y036059D01*
X004710Y036118D02*
X014586Y036118D01*
X014586Y036176D02*
X004710Y036176D01*
X004710Y036235D02*
X014586Y036235D01*
X014586Y036293D02*
X004710Y036293D01*
X004710Y036352D02*
X014586Y036352D01*
X014586Y036410D02*
X004710Y036410D01*
X004710Y036469D02*
X014586Y036469D01*
X014586Y036527D02*
X004710Y036527D01*
X004710Y036586D02*
X014586Y036586D01*
X014586Y036644D02*
X004710Y036644D01*
X004710Y036703D02*
X014586Y036703D01*
X014586Y036761D02*
X004710Y036761D01*
X004710Y036820D02*
X005142Y036820D01*
X005141Y036820D02*
X005210Y036798D01*
X005281Y036786D01*
X005287Y036786D01*
X005287Y037216D01*
X004857Y037216D01*
X004857Y037210D01*
X004869Y037139D01*
X004891Y037070D01*
X004924Y037005D01*
X004967Y036947D01*
X005018Y036895D01*
X005076Y036853D01*
X005141Y036820D01*
X005041Y036878D02*
X004710Y036878D01*
X004710Y036937D02*
X004976Y036937D01*
X004931Y036995D02*
X004710Y036995D01*
X004710Y037054D02*
X004899Y037054D01*
X004877Y037112D02*
X004710Y037112D01*
X004710Y037171D02*
X004864Y037171D01*
X004857Y037276D02*
X005287Y037276D01*
X005287Y037216D01*
X005347Y037216D01*
X005347Y036786D01*
X005354Y036786D01*
X005425Y036798D01*
X005494Y036820D01*
X005558Y036853D01*
X005617Y036895D01*
X005668Y036947D01*
X005711Y037005D01*
X005744Y037070D01*
X005766Y037139D01*
X005777Y037210D01*
X005777Y037216D01*
X005347Y037216D01*
X005347Y037276D01*
X005287Y037276D01*
X005287Y037706D01*
X005281Y037706D01*
X005210Y037695D01*
X005141Y037673D01*
X005076Y037640D01*
X005018Y037597D01*
X004967Y037546D01*
X004924Y037487D01*
X004891Y037423D01*
X004869Y037354D01*
X004857Y037283D01*
X004857Y037276D01*
X004858Y037288D02*
X004710Y037288D01*
X004710Y037346D02*
X004867Y037346D01*
X004885Y037405D02*
X004710Y037405D01*
X004710Y037463D02*
X004912Y037463D01*
X004949Y037522D02*
X004710Y037522D01*
X004710Y037580D02*
X005001Y037580D01*
X005075Y037639D02*
X004710Y037639D01*
X004710Y037697D02*
X005223Y037697D01*
X005287Y037697D02*
X005347Y037697D01*
X005347Y037706D02*
X005347Y037276D01*
X005777Y037276D01*
X005777Y037283D01*
X005766Y037354D01*
X005744Y037423D01*
X005711Y037487D01*
X005668Y037546D01*
X005617Y037597D01*
X005558Y037640D01*
X005494Y037673D01*
X005425Y037695D01*
X005354Y037706D01*
X005347Y037706D01*
X005411Y037697D02*
X005778Y037697D01*
X005778Y037639D02*
X005560Y037639D01*
X005634Y037580D02*
X005800Y037580D01*
X005778Y037635D02*
X005857Y037444D01*
X006003Y037298D01*
X006194Y037218D01*
X006401Y037218D01*
X006592Y037298D01*
X006739Y037444D01*
X006818Y037635D01*
X006818Y037842D01*
X006739Y038033D01*
X006592Y038179D01*
X006401Y038258D01*
X006194Y038258D01*
X006003Y038179D01*
X005857Y038033D01*
X005778Y037842D01*
X005778Y037635D01*
X005778Y037756D02*
X004710Y037756D01*
X004710Y037814D02*
X005778Y037814D01*
X005790Y037873D02*
X004710Y037873D01*
X004710Y037931D02*
X005815Y037931D01*
X005839Y037990D02*
X004710Y037990D01*
X004710Y038048D02*
X005872Y038048D01*
X005931Y038107D02*
X004710Y038107D01*
X004710Y038165D02*
X005989Y038165D01*
X006110Y038224D02*
X004710Y038224D01*
X004710Y038282D02*
X008675Y038282D01*
X008675Y038324D02*
X008675Y038160D01*
X008551Y038160D01*
X008546Y038155D01*
X008422Y038278D01*
X008236Y038278D01*
X008104Y038147D01*
X008104Y037998D01*
X007827Y037721D01*
X007582Y037721D01*
X007477Y037826D01*
X007291Y037826D01*
X007159Y037694D01*
X007159Y037507D01*
X007291Y037376D01*
X007477Y037376D01*
X007582Y037481D01*
X007635Y037481D01*
X007592Y037438D01*
X007592Y037252D01*
X007724Y037120D01*
X007911Y037120D01*
X008016Y037225D01*
X008065Y037225D01*
X008065Y037094D01*
X008197Y036962D01*
X008383Y036962D01*
X008515Y037094D01*
X008515Y037100D01*
X008698Y037100D01*
X008830Y037232D01*
X008830Y037317D01*
X009282Y037769D01*
X009282Y037782D01*
X009342Y037842D01*
X009342Y038028D01*
X009210Y038160D01*
X009125Y038160D01*
X009125Y038324D01*
X008993Y038456D01*
X008807Y038456D01*
X008675Y038324D01*
X008692Y038341D02*
X004710Y038341D01*
X004710Y038399D02*
X008750Y038399D01*
X008675Y038224D02*
X008477Y038224D01*
X008536Y038165D02*
X008675Y038165D01*
X008880Y038211D02*
X008880Y037837D01*
X008703Y037660D01*
X008585Y037660D01*
X008290Y037364D01*
X008290Y037187D01*
X008065Y037171D02*
X007961Y037171D01*
X008065Y037112D02*
X005757Y037112D01*
X005771Y037171D02*
X007673Y037171D01*
X007615Y037229D02*
X006427Y037229D01*
X006568Y037288D02*
X007592Y037288D01*
X007592Y037346D02*
X006641Y037346D01*
X006699Y037405D02*
X007262Y037405D01*
X007204Y037463D02*
X006747Y037463D01*
X006771Y037522D02*
X007159Y037522D01*
X007159Y037580D02*
X006795Y037580D01*
X006818Y037639D02*
X007159Y037639D01*
X007163Y037697D02*
X006818Y037697D01*
X006818Y037756D02*
X007221Y037756D01*
X007280Y037814D02*
X006818Y037814D01*
X006805Y037873D02*
X007979Y037873D01*
X008037Y037931D02*
X006781Y037931D01*
X006756Y037990D02*
X008096Y037990D01*
X008104Y038048D02*
X006723Y038048D01*
X006665Y038107D02*
X008104Y038107D01*
X008123Y038165D02*
X006606Y038165D01*
X006485Y038224D02*
X008181Y038224D01*
X008329Y038053D02*
X007876Y037601D01*
X007384Y037601D01*
X007547Y037756D02*
X007862Y037756D01*
X007920Y037814D02*
X007489Y037814D01*
X007565Y037463D02*
X007618Y037463D01*
X007592Y037405D02*
X007507Y037405D01*
X007817Y037345D02*
X008054Y037345D01*
X008644Y037935D01*
X008880Y038211D02*
X008882Y038219D01*
X008886Y038225D01*
X008892Y038229D01*
X008900Y038231D01*
X009050Y038399D02*
X014586Y038399D01*
X014586Y038341D02*
X009108Y038341D01*
X009125Y038282D02*
X014586Y038282D01*
X014586Y038224D02*
X009125Y038224D01*
X009125Y038165D02*
X014586Y038165D01*
X014586Y038107D02*
X009263Y038107D01*
X009322Y038048D02*
X014586Y038048D01*
X014586Y037990D02*
X009342Y037990D01*
X009342Y037931D02*
X014586Y037931D01*
X014586Y037873D02*
X009342Y037873D01*
X009314Y037814D02*
X014586Y037814D01*
X014586Y037756D02*
X009269Y037756D01*
X009210Y037697D02*
X014586Y037697D01*
X014586Y037639D02*
X009152Y037639D01*
X009093Y037580D02*
X014586Y037580D01*
X014586Y037522D02*
X009035Y037522D01*
X008976Y037463D02*
X014586Y037463D01*
X014586Y037405D02*
X008918Y037405D01*
X008859Y037346D02*
X014586Y037346D01*
X014586Y037288D02*
X008830Y037288D01*
X008827Y037229D02*
X014586Y037229D01*
X014586Y037171D02*
X008769Y037171D01*
X008710Y037112D02*
X014586Y037112D01*
X014586Y037054D02*
X008474Y037054D01*
X008416Y036995D02*
X014586Y036995D01*
X014586Y036937D02*
X005658Y036937D01*
X005703Y036995D02*
X008164Y036995D01*
X008105Y037054D02*
X005735Y037054D01*
X005593Y036878D02*
X014586Y036878D01*
X014586Y036820D02*
X005493Y036820D01*
X005347Y036820D02*
X005287Y036820D01*
X005287Y036878D02*
X005347Y036878D01*
X005347Y036937D02*
X005287Y036937D01*
X005287Y036995D02*
X005347Y036995D01*
X005347Y037054D02*
X005287Y037054D01*
X005287Y037112D02*
X005347Y037112D01*
X005347Y037171D02*
X005287Y037171D01*
X005287Y037229D02*
X004710Y037229D01*
X005287Y037288D02*
X005347Y037288D01*
X005347Y037346D02*
X005287Y037346D01*
X005287Y037405D02*
X005347Y037405D01*
X005347Y037463D02*
X005287Y037463D01*
X005287Y037522D02*
X005347Y037522D01*
X005347Y037580D02*
X005287Y037580D01*
X005287Y037639D02*
X005347Y037639D01*
X005686Y037522D02*
X005825Y037522D01*
X005849Y037463D02*
X005723Y037463D01*
X005750Y037405D02*
X005896Y037405D01*
X005955Y037346D02*
X005767Y037346D01*
X005777Y037288D02*
X006027Y037288D01*
X006168Y037229D02*
X005347Y037229D01*
X004710Y038458D02*
X006054Y038458D01*
X006003Y038479D02*
X006194Y038400D01*
X006401Y038400D01*
X006592Y038479D01*
X006739Y038625D01*
X006818Y038816D01*
X006818Y039023D01*
X006739Y039214D01*
X006592Y039360D01*
X006401Y039440D01*
X006194Y039440D01*
X006003Y039360D01*
X005857Y039214D01*
X005778Y039023D01*
X005778Y038816D01*
X005857Y038625D01*
X006003Y038479D01*
X005966Y038516D02*
X004710Y038516D01*
X004710Y038575D02*
X005907Y038575D01*
X005853Y038633D02*
X004710Y038633D01*
X004710Y038692D02*
X005829Y038692D01*
X005805Y038750D02*
X004710Y038750D01*
X004710Y038809D02*
X005781Y038809D01*
X005778Y038867D02*
X004710Y038867D01*
X004710Y038926D02*
X005778Y038926D01*
X005778Y038984D02*
X004710Y038984D01*
X004710Y039043D02*
X005111Y039043D01*
X005079Y039056D02*
X005234Y038992D01*
X005401Y038992D01*
X005555Y039056D01*
X005673Y039174D01*
X005737Y039328D01*
X005737Y039495D01*
X005673Y039650D01*
X005555Y039768D01*
X005401Y039832D01*
X005234Y039832D01*
X005079Y039768D01*
X004961Y039650D01*
X004897Y039495D01*
X004897Y039328D01*
X004961Y039174D01*
X005079Y039056D01*
X005034Y039101D02*
X004710Y039101D01*
X004710Y039160D02*
X004975Y039160D01*
X004943Y039218D02*
X004710Y039218D01*
X004710Y039277D02*
X004919Y039277D01*
X004897Y039335D02*
X004710Y039335D01*
X004710Y039394D02*
X004897Y039394D01*
X004897Y039452D02*
X004710Y039452D01*
X004710Y039511D02*
X004904Y039511D01*
X004928Y039569D02*
X004710Y039569D01*
X004710Y039628D02*
X004952Y039628D01*
X004998Y039686D02*
X004710Y039686D01*
X004710Y039745D02*
X005056Y039745D01*
X005165Y039803D02*
X004710Y039803D01*
X004710Y039862D02*
X014586Y039862D01*
X014586Y039920D02*
X008487Y039920D01*
X008462Y039895D02*
X008567Y040000D01*
X009245Y040000D01*
X009317Y040072D01*
X009466Y040072D01*
X009597Y040204D01*
X009597Y040391D01*
X009466Y040522D01*
X009279Y040522D01*
X009147Y040391D01*
X009147Y040242D01*
X009146Y040240D01*
X008567Y040240D01*
X008462Y040345D01*
X008275Y040345D01*
X008144Y040214D01*
X008144Y040027D01*
X008275Y039895D01*
X008462Y039895D01*
X008545Y039979D02*
X014586Y039979D01*
X014586Y040037D02*
X009282Y040037D01*
X009195Y040120D02*
X009372Y040297D01*
X009203Y040447D02*
X009027Y040447D01*
X009027Y040441D02*
X008895Y040309D01*
X008708Y040309D01*
X008603Y040414D01*
X007806Y040414D01*
X007806Y040303D01*
X007674Y040171D01*
X007488Y040171D01*
X007356Y040303D01*
X007356Y040489D01*
X007488Y040621D01*
X007636Y040621D01*
X007669Y040654D01*
X008603Y040654D01*
X008708Y040759D01*
X008895Y040759D01*
X009027Y040627D01*
X009027Y040441D01*
X009027Y040505D02*
X009262Y040505D01*
X009147Y040388D02*
X008974Y040388D01*
X008916Y040330D02*
X009147Y040330D01*
X009147Y040271D02*
X008536Y040271D01*
X008477Y040330D02*
X008687Y040330D01*
X008629Y040388D02*
X007806Y040388D01*
X007806Y040330D02*
X008260Y040330D01*
X008201Y040271D02*
X007775Y040271D01*
X007716Y040213D02*
X008144Y040213D01*
X008144Y040154D02*
X004710Y040154D01*
X004710Y040096D02*
X008144Y040096D01*
X008144Y040037D02*
X004710Y040037D01*
X004710Y039979D02*
X008192Y039979D01*
X008250Y039920D02*
X004710Y039920D01*
X004710Y040213D02*
X007446Y040213D01*
X007388Y040271D02*
X004710Y040271D01*
X004710Y040330D02*
X007356Y040330D01*
X007356Y040388D02*
X004710Y040388D01*
X004710Y040447D02*
X007356Y040447D01*
X007372Y040505D02*
X004710Y040505D01*
X004710Y040564D02*
X007431Y040564D01*
X007418Y040624D02*
X007550Y040755D01*
X007550Y040904D01*
X007586Y040939D01*
X007665Y040860D01*
X007852Y040860D01*
X007983Y040992D01*
X007983Y041178D01*
X007852Y041310D01*
X007665Y041310D01*
X007560Y041205D01*
X007512Y041205D01*
X007441Y041135D01*
X007381Y041074D01*
X007232Y041074D01*
X007100Y040942D01*
X007100Y040755D01*
X007232Y040624D01*
X007418Y040624D01*
X007475Y040681D02*
X008630Y040681D01*
X008689Y040739D02*
X007534Y040739D01*
X007550Y040798D02*
X014586Y040798D01*
X014586Y040856D02*
X007550Y040856D01*
X007561Y040915D02*
X007610Y040915D01*
X007561Y041085D02*
X007758Y041085D01*
X007561Y041085D02*
X007325Y040849D01*
X007100Y040856D02*
X005641Y040856D01*
X005617Y040832D02*
X005668Y040884D01*
X005711Y040942D01*
X005744Y041007D01*
X005766Y041076D01*
X005777Y041147D01*
X005777Y041153D01*
X005347Y041153D01*
X005347Y040723D01*
X005354Y040723D01*
X005425Y040735D01*
X005494Y040757D01*
X005558Y040790D01*
X005617Y040832D01*
X005569Y040798D02*
X007100Y040798D01*
X007117Y040739D02*
X005439Y040739D01*
X005347Y040739D02*
X005287Y040739D01*
X005287Y040723D02*
X005287Y041153D01*
X004857Y041153D01*
X004857Y041147D01*
X004869Y041076D01*
X004891Y041007D01*
X004924Y040942D01*
X004967Y040884D01*
X005018Y040832D01*
X005076Y040790D01*
X005141Y040757D01*
X005210Y040735D01*
X005281Y040723D01*
X005287Y040723D01*
X005287Y040798D02*
X005347Y040798D01*
X005347Y040856D02*
X005287Y040856D01*
X005287Y040915D02*
X005347Y040915D01*
X005347Y040973D02*
X005287Y040973D01*
X005287Y041032D02*
X005347Y041032D01*
X005347Y041090D02*
X005287Y041090D01*
X005287Y041149D02*
X005347Y041149D01*
X005347Y041153D02*
X005287Y041153D01*
X005287Y041213D01*
X004857Y041213D01*
X004857Y041220D01*
X004869Y041291D01*
X004891Y041360D01*
X004924Y041424D01*
X004967Y041483D01*
X005018Y041534D01*
X005076Y041577D01*
X005141Y041610D01*
X005210Y041632D01*
X005281Y041643D01*
X005287Y041643D01*
X005287Y041213D01*
X005347Y041213D01*
X005347Y041643D01*
X005354Y041643D01*
X005425Y041632D01*
X005494Y041610D01*
X005558Y041577D01*
X005617Y041534D01*
X005668Y041483D01*
X005711Y041424D01*
X005744Y041360D01*
X005766Y041291D01*
X005777Y041220D01*
X005777Y041213D01*
X005347Y041213D01*
X005347Y041153D01*
X005347Y041207D02*
X006069Y041207D01*
X006003Y041235D02*
X006194Y041155D01*
X006401Y041155D01*
X006592Y041235D01*
X006739Y041381D01*
X006818Y041572D01*
X006818Y041779D01*
X006739Y041970D01*
X006592Y042116D01*
X006401Y042195D01*
X006194Y042195D01*
X006003Y042116D01*
X005857Y041970D01*
X005778Y041779D01*
X005778Y041572D01*
X005857Y041381D01*
X006003Y041235D01*
X005972Y041266D02*
X005770Y041266D01*
X005755Y041324D02*
X005914Y041324D01*
X005856Y041383D02*
X005732Y041383D01*
X005699Y041441D02*
X005832Y041441D01*
X005808Y041500D02*
X005652Y041500D01*
X005584Y041558D02*
X005783Y041558D01*
X005778Y041617D02*
X005472Y041617D01*
X005347Y041617D02*
X005287Y041617D01*
X005287Y041558D02*
X005347Y041558D01*
X005347Y041500D02*
X005287Y041500D01*
X005287Y041441D02*
X005347Y041441D01*
X005347Y041383D02*
X005287Y041383D01*
X005287Y041324D02*
X005347Y041324D01*
X005347Y041266D02*
X005287Y041266D01*
X005287Y041207D02*
X004710Y041207D01*
X004710Y041149D02*
X004857Y041149D01*
X004866Y041090D02*
X004710Y041090D01*
X004710Y041032D02*
X004883Y041032D01*
X004908Y040973D02*
X004710Y040973D01*
X004710Y040915D02*
X004944Y040915D01*
X004994Y040856D02*
X004710Y040856D01*
X004710Y040798D02*
X005066Y040798D01*
X005196Y040739D02*
X004710Y040739D01*
X004710Y040681D02*
X007175Y040681D01*
X007100Y040915D02*
X005691Y040915D01*
X005727Y040973D02*
X007132Y040973D01*
X007190Y041032D02*
X005752Y041032D01*
X005768Y041090D02*
X007397Y041090D01*
X007456Y041149D02*
X005777Y041149D01*
X005778Y041675D02*
X004710Y041675D01*
X004710Y041617D02*
X005163Y041617D01*
X005051Y041558D02*
X004710Y041558D01*
X004710Y041500D02*
X004983Y041500D01*
X004936Y041441D02*
X004710Y041441D01*
X004710Y041383D02*
X004903Y041383D01*
X004879Y041324D02*
X004710Y041324D01*
X004710Y041266D02*
X004865Y041266D01*
X004710Y041734D02*
X005778Y041734D01*
X005783Y041792D02*
X004710Y041792D01*
X004710Y041851D02*
X005807Y041851D01*
X005832Y041909D02*
X004710Y041909D01*
X004710Y041968D02*
X005856Y041968D01*
X005913Y042026D02*
X004710Y042026D01*
X004710Y042085D02*
X005972Y042085D01*
X006068Y042143D02*
X004710Y042143D01*
X004710Y042202D02*
X007730Y042202D01*
X007730Y042173D02*
X007862Y042041D01*
X008048Y042041D01*
X008153Y042146D01*
X008576Y042146D01*
X008646Y042216D01*
X008786Y042356D01*
X008934Y042356D01*
X009066Y042488D01*
X009066Y042674D01*
X008934Y042806D01*
X008748Y042806D01*
X008616Y042674D01*
X008616Y042526D01*
X008476Y042386D01*
X008153Y042386D01*
X008048Y042491D01*
X007862Y042491D01*
X007730Y042359D01*
X007730Y042173D01*
X007760Y042143D02*
X006527Y042143D01*
X006624Y042085D02*
X007818Y042085D01*
X007730Y042260D02*
X004710Y042260D01*
X004710Y042319D02*
X007730Y042319D01*
X007748Y042377D02*
X004710Y042377D01*
X004710Y042436D02*
X007807Y042436D01*
X007955Y042266D02*
X008526Y042266D01*
X008841Y042581D01*
X009012Y042728D02*
X009896Y042728D01*
X009896Y042670D02*
X009066Y042670D01*
X009066Y042611D02*
X009896Y042611D01*
X009896Y042606D02*
X010027Y042474D01*
X010214Y042474D01*
X010346Y042606D01*
X010346Y042754D01*
X010398Y042807D01*
X010398Y042973D01*
X010503Y043078D01*
X010503Y043265D01*
X010371Y043396D01*
X010185Y043396D01*
X010053Y043265D01*
X010053Y043078D01*
X010158Y042973D01*
X010158Y042924D01*
X010027Y042924D01*
X009896Y042792D01*
X009896Y042606D01*
X009949Y042553D02*
X009066Y042553D01*
X009066Y042494D02*
X010007Y042494D01*
X010234Y042494D02*
X014586Y042494D01*
X014586Y042436D02*
X009014Y042436D01*
X008955Y042377D02*
X014586Y042377D01*
X014586Y042319D02*
X008748Y042319D01*
X008690Y042260D02*
X014586Y042260D01*
X014586Y042202D02*
X008631Y042202D01*
X008526Y042436D02*
X008104Y042436D01*
X008151Y042143D02*
X014586Y042143D01*
X014586Y042085D02*
X008092Y042085D01*
X008585Y042494D02*
X004710Y042494D01*
X004710Y042553D02*
X008616Y042553D01*
X008616Y042611D02*
X004710Y042611D01*
X004710Y042670D02*
X008616Y042670D01*
X008670Y042728D02*
X004710Y042728D01*
X004710Y042787D02*
X008729Y042787D01*
X008953Y042787D02*
X009896Y042787D01*
X009948Y042845D02*
X004710Y042845D01*
X004710Y042904D02*
X010007Y042904D01*
X010111Y043021D02*
X005168Y043021D01*
X005226Y043079D02*
X010053Y043079D01*
X010053Y043138D02*
X005270Y043138D01*
X005270Y043196D02*
X010053Y043196D01*
X010053Y043255D02*
X005270Y043255D01*
X005270Y043313D02*
X010101Y043313D01*
X010160Y043372D02*
X005270Y043372D01*
X005211Y043430D02*
X006433Y043430D01*
X006403Y043443D02*
X006542Y043385D01*
X006692Y043385D01*
X006830Y043443D01*
X006936Y043549D01*
X006993Y043687D01*
X006993Y043837D01*
X006936Y043976D01*
X006830Y044082D01*
X006692Y044139D01*
X006542Y044139D01*
X006403Y044082D01*
X006297Y043976D01*
X006240Y043837D01*
X006240Y043687D01*
X006297Y043549D01*
X006403Y043443D01*
X006357Y043489D02*
X005153Y043489D01*
X005060Y043547D02*
X006298Y043547D01*
X006273Y043606D02*
X005060Y043606D01*
X005060Y043664D02*
X006249Y043664D01*
X006240Y043723D02*
X005060Y043723D01*
X005060Y043781D02*
X006240Y043781D01*
X006241Y043840D02*
X005060Y043840D01*
X005124Y043898D02*
X006265Y043898D01*
X006289Y043957D02*
X005183Y043957D01*
X005241Y044015D02*
X006337Y044015D01*
X006395Y044074D02*
X005270Y044074D01*
X005270Y044132D02*
X006525Y044132D01*
X006708Y044132D02*
X008655Y044132D01*
X008655Y044074D02*
X006838Y044074D01*
X006896Y044015D02*
X008703Y044015D01*
X008729Y043988D02*
X008655Y043914D01*
X008655Y043728D01*
X008787Y043596D01*
X008974Y043596D01*
X009105Y043728D01*
X009105Y043819D01*
X009292Y043819D01*
X009397Y043714D01*
X009584Y043714D01*
X009716Y043846D01*
X009716Y044032D01*
X009641Y044107D01*
X009716Y044181D01*
X009716Y044367D01*
X009584Y044499D01*
X009397Y044499D01*
X009292Y044394D01*
X009249Y044394D01*
X009296Y044441D01*
X009376Y044521D01*
X009525Y044521D01*
X009657Y044653D01*
X009657Y044839D01*
X009525Y044971D01*
X009338Y044971D01*
X009207Y044839D01*
X009207Y044691D01*
X009142Y044626D01*
X009052Y044715D01*
X008866Y044715D01*
X008734Y044584D01*
X008734Y044397D01*
X008769Y044362D01*
X008655Y044249D01*
X008655Y044063D01*
X008729Y043988D01*
X008698Y043957D02*
X006944Y043957D01*
X006968Y043898D02*
X008655Y043898D01*
X008655Y043840D02*
X006992Y043840D01*
X006993Y043781D02*
X008655Y043781D01*
X008661Y043723D02*
X006993Y043723D01*
X006984Y043664D02*
X008719Y043664D01*
X008778Y043606D02*
X006960Y043606D01*
X006935Y043547D02*
X012005Y043547D01*
X012016Y043537D02*
X012202Y043537D01*
X012334Y043669D01*
X012334Y043711D01*
X012370Y043675D01*
X012556Y043675D01*
X012688Y043807D01*
X012688Y043993D01*
X012583Y044098D01*
X012583Y044450D01*
X012688Y044555D01*
X012688Y044741D01*
X012556Y044873D01*
X012370Y044873D01*
X012286Y044789D01*
X012202Y044873D01*
X012016Y044873D01*
X011884Y044741D01*
X011884Y044555D01*
X012016Y044423D01*
X012146Y044423D01*
X012146Y044087D01*
X012059Y044000D01*
X012046Y043987D01*
X012016Y043987D01*
X011884Y043855D01*
X011884Y043669D01*
X012016Y043537D01*
X011947Y043606D02*
X008983Y043606D01*
X009042Y043664D02*
X011888Y043664D01*
X011884Y043723D02*
X009592Y043723D01*
X009651Y043781D02*
X011884Y043781D01*
X011884Y043840D02*
X009709Y043840D01*
X009716Y043898D02*
X011927Y043898D01*
X011985Y043957D02*
X009716Y043957D01*
X009716Y044015D02*
X012074Y044015D01*
X012133Y044074D02*
X009674Y044074D01*
X009667Y044132D02*
X012146Y044132D01*
X012146Y044191D02*
X011222Y044191D01*
X011198Y044167D02*
X011330Y044299D01*
X011330Y044485D01*
X011198Y044617D01*
X011185Y044617D01*
X011185Y044804D01*
X011290Y044909D01*
X011290Y045095D01*
X011159Y045227D01*
X010972Y045227D01*
X010840Y045095D01*
X010840Y044909D01*
X010945Y044804D01*
X010945Y044551D01*
X010880Y044485D01*
X010880Y044299D01*
X011012Y044167D01*
X011198Y044167D01*
X011280Y044249D02*
X012146Y044249D01*
X012146Y044308D02*
X011330Y044308D01*
X011330Y044366D02*
X012146Y044366D01*
X012014Y044425D02*
X011330Y044425D01*
X011330Y044483D02*
X011955Y044483D01*
X011897Y044542D02*
X011273Y044542D01*
X011215Y044600D02*
X011884Y044600D01*
X011884Y044659D02*
X011185Y044659D01*
X011185Y044717D02*
X011884Y044717D01*
X011918Y044776D02*
X011185Y044776D01*
X011216Y044834D02*
X011977Y044834D01*
X012109Y044648D02*
X012266Y044490D01*
X012266Y044038D01*
X012109Y043880D01*
X012109Y043762D01*
X012271Y043606D02*
X014586Y043606D01*
X014586Y043664D02*
X012329Y043664D01*
X012212Y043547D02*
X014586Y043547D01*
X014586Y043489D02*
X006876Y043489D01*
X006800Y043430D02*
X014586Y043430D01*
X014586Y043372D02*
X010396Y043372D01*
X010455Y043313D02*
X014586Y043313D01*
X014586Y043255D02*
X010503Y043255D01*
X010503Y043196D02*
X014586Y043196D01*
X014586Y043138D02*
X010503Y043138D01*
X010503Y043079D02*
X014586Y043079D01*
X014586Y043021D02*
X010445Y043021D01*
X010398Y042962D02*
X014586Y042962D01*
X014586Y042904D02*
X010398Y042904D01*
X010398Y042845D02*
X014586Y042845D01*
X014586Y042787D02*
X010378Y042787D01*
X010346Y042728D02*
X014586Y042728D01*
X014586Y042670D02*
X010346Y042670D01*
X010346Y042611D02*
X014586Y042611D01*
X014586Y042553D02*
X010292Y042553D01*
X010121Y042699D02*
X010278Y042857D01*
X010278Y043171D01*
X010158Y042962D02*
X004710Y042962D01*
X005270Y044191D02*
X008655Y044191D01*
X008656Y044249D02*
X005270Y044249D01*
X005255Y044308D02*
X008714Y044308D01*
X008765Y044366D02*
X005196Y044366D01*
X005190Y044425D02*
X008734Y044425D01*
X008734Y044483D02*
X005249Y044483D01*
X005270Y044542D02*
X005716Y044542D01*
X005756Y044502D02*
X005942Y044502D01*
X006074Y044633D01*
X006074Y044705D01*
X006261Y044705D01*
X006366Y044600D01*
X006552Y044600D01*
X006684Y044732D01*
X006684Y044918D01*
X006552Y045050D01*
X006366Y045050D01*
X006261Y044945D01*
X005949Y044945D01*
X005942Y044952D01*
X005756Y044952D01*
X005624Y044820D01*
X005624Y044633D01*
X005756Y044502D01*
X005657Y044600D02*
X005270Y044600D01*
X005270Y044659D02*
X005624Y044659D01*
X005624Y044717D02*
X005270Y044717D01*
X005247Y044776D02*
X005624Y044776D01*
X005638Y044834D02*
X005189Y044834D01*
X005130Y044893D02*
X005697Y044893D01*
X005755Y044951D02*
X005060Y044951D01*
X005060Y045010D02*
X006326Y045010D01*
X006267Y044951D02*
X005942Y044951D01*
X005947Y044825D02*
X005849Y044727D01*
X005947Y044825D02*
X006459Y044825D01*
X006307Y044659D02*
X006074Y044659D01*
X006041Y044600D02*
X006366Y044600D01*
X006552Y044600D02*
X008751Y044600D01*
X008734Y044542D02*
X005982Y044542D01*
X006611Y044659D02*
X008809Y044659D01*
X008959Y044490D02*
X009176Y044490D01*
X009432Y044746D01*
X009604Y044600D02*
X010945Y044600D01*
X010945Y044659D02*
X009657Y044659D01*
X009657Y044717D02*
X010945Y044717D01*
X010945Y044776D02*
X009657Y044776D01*
X009657Y044834D02*
X010915Y044834D01*
X010857Y044893D02*
X009603Y044893D01*
X009545Y044951D02*
X010840Y044951D01*
X010840Y045010D02*
X006593Y045010D01*
X006651Y044951D02*
X009318Y044951D01*
X009260Y044893D02*
X006684Y044893D01*
X006684Y044834D02*
X009207Y044834D01*
X009207Y044776D02*
X006684Y044776D01*
X006669Y044717D02*
X009207Y044717D01*
X009174Y044659D02*
X009109Y044659D01*
X009338Y044483D02*
X009382Y044483D01*
X009323Y044425D02*
X009280Y044425D01*
X009077Y044274D02*
X008959Y044156D01*
X008880Y044156D01*
X009077Y044274D02*
X009491Y044274D01*
X009658Y044425D02*
X010880Y044425D01*
X010880Y044483D02*
X009599Y044483D01*
X009545Y044542D02*
X010936Y044542D01*
X011065Y044431D02*
X011065Y045002D01*
X011290Y045010D02*
X012905Y045010D01*
X012848Y045066D02*
X012980Y044935D01*
X013166Y044935D01*
X013246Y045014D01*
X013380Y044880D01*
X013380Y044732D01*
X013512Y044600D01*
X013698Y044600D01*
X013830Y044732D01*
X013830Y044918D01*
X013775Y044973D01*
X013869Y045066D01*
X013869Y045253D01*
X013737Y045385D01*
X013551Y045385D01*
X013471Y045305D01*
X013318Y045459D01*
X013318Y045607D01*
X013186Y045739D01*
X013000Y045739D01*
X012868Y045607D01*
X012868Y045421D01*
X012942Y045347D01*
X012848Y045253D01*
X012848Y045066D01*
X012848Y045068D02*
X011290Y045068D01*
X011259Y045127D02*
X012848Y045127D01*
X012848Y045185D02*
X011201Y045185D01*
X011290Y044951D02*
X012964Y044951D01*
X013183Y044951D02*
X013309Y044951D01*
X013367Y044893D02*
X011274Y044893D01*
X010930Y045185D02*
X006840Y045185D01*
X006830Y045175D02*
X006936Y045281D01*
X006993Y045419D01*
X012870Y045419D01*
X012868Y045478D02*
X006993Y045478D01*
X006993Y045536D02*
X012868Y045536D01*
X012868Y045595D02*
X010647Y045595D01*
X010632Y045580D02*
X010912Y045860D01*
X010962Y045860D01*
X011094Y045992D01*
X011094Y046178D01*
X010962Y046310D01*
X010775Y046310D01*
X010644Y046178D01*
X010644Y046129D01*
X010475Y045960D01*
X010209Y045960D01*
X010174Y045995D01*
X009988Y045995D01*
X009856Y045863D01*
X009856Y045677D01*
X009988Y045545D01*
X010174Y045545D01*
X010209Y045580D01*
X010632Y045580D01*
X010706Y045653D02*
X012914Y045653D01*
X012972Y045712D02*
X010764Y045712D01*
X010823Y045770D02*
X014586Y045770D01*
X014586Y045712D02*
X013213Y045712D01*
X013272Y045653D02*
X014586Y045653D01*
X014586Y045595D02*
X013318Y045595D01*
X013318Y045536D02*
X014586Y045536D01*
X014586Y045478D02*
X013318Y045478D01*
X013357Y045419D02*
X014586Y045419D01*
X014586Y045361D02*
X013761Y045361D01*
X013820Y045302D02*
X014586Y045302D01*
X014586Y045244D02*
X013869Y045244D01*
X013869Y045185D02*
X014586Y045185D01*
X014586Y045127D02*
X013869Y045127D01*
X013869Y045068D02*
X014586Y045068D01*
X014586Y045010D02*
X013812Y045010D01*
X013797Y044951D02*
X014586Y044951D01*
X014586Y044893D02*
X013830Y044893D01*
X013830Y044834D02*
X014586Y044834D01*
X014586Y044776D02*
X013830Y044776D01*
X013815Y044717D02*
X014586Y044717D01*
X014586Y044659D02*
X013757Y044659D01*
X013698Y044600D02*
X014586Y044600D01*
X014586Y044542D02*
X012675Y044542D01*
X012688Y044600D02*
X013511Y044600D01*
X013453Y044659D02*
X012688Y044659D01*
X012688Y044717D02*
X013394Y044717D01*
X013380Y044776D02*
X012653Y044776D01*
X012595Y044834D02*
X013380Y044834D01*
X013250Y045010D02*
X013241Y045010D01*
X013270Y045160D02*
X013605Y044825D01*
X013644Y045160D02*
X013447Y045160D01*
X013093Y045514D01*
X012928Y045361D02*
X006969Y045361D01*
X006993Y045419D02*
X006993Y045569D01*
X006936Y045708D01*
X006830Y045814D01*
X006692Y045871D01*
X006542Y045871D01*
X006403Y045814D01*
X006297Y045708D01*
X006240Y045569D01*
X006240Y045419D01*
X005194Y045419D01*
X005136Y045361D02*
X006264Y045361D01*
X006240Y045419D02*
X006297Y045281D01*
X006403Y045175D01*
X006542Y045117D01*
X006692Y045117D01*
X006830Y045175D01*
X006899Y045244D02*
X012848Y045244D01*
X012898Y045302D02*
X006945Y045302D01*
X006714Y045127D02*
X010872Y045127D01*
X010840Y045068D02*
X005060Y045068D01*
X005060Y045127D02*
X006519Y045127D01*
X006393Y045185D02*
X005060Y045185D01*
X005060Y045244D02*
X006334Y045244D01*
X006288Y045302D02*
X005077Y045302D01*
X005253Y045478D02*
X006240Y045478D01*
X006240Y045536D02*
X005270Y045536D01*
X005270Y045595D02*
X006250Y045595D01*
X006274Y045653D02*
X005220Y045653D01*
X005155Y045770D02*
X006359Y045770D01*
X006301Y045712D02*
X004850Y045712D01*
X004874Y045770D02*
X004986Y045770D01*
X004940Y045829D02*
X004920Y045829D01*
X005213Y045829D02*
X006439Y045829D01*
X006794Y045829D02*
X009856Y045829D01*
X009856Y045770D02*
X006874Y045770D01*
X006932Y045712D02*
X009856Y045712D01*
X009880Y045653D02*
X006959Y045653D01*
X006983Y045595D02*
X009938Y045595D01*
X009880Y045887D02*
X005270Y045887D01*
X005270Y045946D02*
X009939Y045946D01*
X010519Y046004D02*
X005270Y046004D01*
X005270Y046063D02*
X010578Y046063D01*
X010636Y046121D02*
X005270Y046121D01*
X005224Y046180D02*
X010645Y046180D01*
X010704Y046238D02*
X005166Y046238D01*
X004710Y046297D02*
X010762Y046297D01*
X010975Y046297D02*
X013101Y046297D01*
X013159Y046238D02*
X011033Y046238D01*
X011092Y046180D02*
X013218Y046180D01*
X013276Y046121D02*
X011094Y046121D01*
X011094Y046063D02*
X013335Y046063D01*
X013326Y046072D02*
X013422Y045975D01*
X013995Y045975D01*
X014055Y045915D01*
X014241Y045915D01*
X014373Y046047D01*
X014373Y046233D01*
X014241Y046365D01*
X014055Y046365D01*
X013995Y046305D01*
X013559Y046305D01*
X013082Y046782D01*
X013082Y046867D01*
X012950Y046999D01*
X012764Y046999D01*
X012632Y046867D01*
X012632Y046681D01*
X012764Y046549D01*
X012848Y046549D01*
X013326Y046072D01*
X013393Y046004D02*
X011094Y046004D01*
X011048Y045946D02*
X014024Y045946D01*
X014272Y045946D02*
X014586Y045946D01*
X014586Y046004D02*
X014330Y046004D01*
X014373Y046063D02*
X014586Y046063D01*
X014586Y046121D02*
X014373Y046121D01*
X014373Y046180D02*
X014586Y046180D01*
X014586Y046238D02*
X014368Y046238D01*
X014310Y046297D02*
X014586Y046297D01*
X014586Y046355D02*
X014251Y046355D01*
X014045Y046355D02*
X013509Y046355D01*
X013450Y046414D02*
X014586Y046414D01*
X014586Y046472D02*
X013392Y046472D01*
X013333Y046531D02*
X014586Y046531D01*
X014586Y046589D02*
X013275Y046589D01*
X013216Y046648D02*
X014586Y046648D01*
X014586Y046706D02*
X013158Y046706D01*
X013099Y046765D02*
X014586Y046765D01*
X014586Y046823D02*
X013082Y046823D01*
X013067Y046882D02*
X014586Y046882D01*
X014586Y046940D02*
X013009Y046940D01*
X012950Y046999D02*
X014586Y046999D01*
X014586Y047057D02*
X004710Y047057D01*
X004710Y046999D02*
X012763Y046999D01*
X012705Y046940D02*
X004710Y046940D01*
X004710Y046882D02*
X012646Y046882D01*
X012632Y046823D02*
X004710Y046823D01*
X004710Y046765D02*
X012632Y046765D01*
X012632Y046706D02*
X004710Y046706D01*
X004710Y046648D02*
X012665Y046648D01*
X012723Y046589D02*
X004710Y046589D01*
X004710Y046531D02*
X012867Y046531D01*
X012925Y046472D02*
X004710Y046472D01*
X004710Y046414D02*
X012984Y046414D01*
X013042Y046355D02*
X004710Y046355D01*
X004710Y047116D02*
X014586Y047116D01*
X014586Y047174D02*
X004710Y047174D01*
X004710Y047233D02*
X014586Y047233D01*
X014586Y047291D02*
X004710Y047291D01*
X004710Y047350D02*
X008594Y047350D01*
X008634Y047333D02*
X008961Y047333D01*
X009264Y047458D01*
X009495Y047690D01*
X009620Y047992D01*
X009620Y048319D01*
X009495Y048622D01*
X009264Y048853D01*
X008961Y048978D01*
X008634Y048978D01*
X008332Y048853D01*
X008100Y048622D01*
X007975Y048319D01*
X007975Y047992D01*
X008100Y047690D01*
X008332Y047458D01*
X008634Y047333D01*
X008453Y047408D02*
X004710Y047408D01*
X004710Y047467D02*
X008324Y047467D01*
X008265Y047525D02*
X004710Y047525D01*
X004710Y047584D02*
X008207Y047584D01*
X008148Y047642D02*
X004710Y047642D01*
X004710Y047701D02*
X008096Y047701D01*
X008072Y047759D02*
X004710Y047759D01*
X004710Y047818D02*
X008047Y047818D01*
X008023Y047876D02*
X004710Y047876D01*
X004710Y047935D02*
X007999Y047935D01*
X007975Y047993D02*
X004710Y047993D01*
X004710Y048052D02*
X007975Y048052D01*
X007975Y048110D02*
X004711Y048110D01*
X004716Y048169D02*
X007975Y048169D01*
X007975Y048227D02*
X004730Y048227D01*
X004749Y048286D02*
X007975Y048286D01*
X007985Y048344D02*
X004768Y048344D01*
X004801Y048403D02*
X008010Y048403D01*
X008034Y048461D02*
X004844Y048461D01*
X004886Y048520D02*
X008058Y048520D01*
X008082Y048578D02*
X004965Y048578D01*
X005050Y048637D02*
X008115Y048637D01*
X008174Y048695D02*
X005254Y048695D01*
X006690Y048754D02*
X008232Y048754D01*
X008291Y048812D02*
X006908Y048812D01*
X007062Y048871D02*
X008374Y048871D01*
X008516Y048929D02*
X007164Y048929D01*
X007265Y048988D02*
X014586Y048988D01*
X014586Y049046D02*
X007366Y049046D01*
X007468Y049105D02*
X014586Y049105D01*
X014586Y049163D02*
X007527Y049163D01*
X007585Y049222D02*
X014586Y049222D01*
X014586Y049280D02*
X007644Y049280D01*
X007702Y049339D02*
X014586Y049339D01*
X014586Y049397D02*
X007761Y049397D01*
X007819Y049456D02*
X014586Y049456D01*
X014586Y049514D02*
X007865Y049514D01*
X007899Y049573D02*
X014586Y049573D01*
X014586Y049631D02*
X007933Y049631D01*
X007966Y049690D02*
X014586Y049690D01*
X014586Y049748D02*
X008000Y049748D01*
X008034Y049807D02*
X014586Y049807D01*
X014586Y049865D02*
X008068Y049865D01*
X008102Y049924D02*
X014586Y049924D01*
X014586Y049982D02*
X008124Y049982D01*
X008140Y050041D02*
X014586Y050041D01*
X014586Y050099D02*
X008156Y050099D01*
X008171Y050158D02*
X008637Y050158D01*
X008546Y050195D02*
X008738Y050116D01*
X008944Y050116D01*
X009136Y050195D01*
X009282Y050342D01*
X009361Y050533D01*
X009361Y050739D01*
X009282Y050931D01*
X009136Y051077D01*
X008944Y051156D01*
X008738Y051156D01*
X008546Y051077D01*
X008400Y050931D01*
X008321Y050739D01*
X008321Y050533D01*
X008400Y050342D01*
X008546Y050195D01*
X008525Y050216D02*
X008187Y050216D01*
X008203Y050275D02*
X008467Y050275D01*
X008408Y050333D02*
X008218Y050333D01*
X008234Y050392D02*
X008379Y050392D01*
X008355Y050450D02*
X008250Y050450D01*
X008253Y050509D02*
X008331Y050509D01*
X008321Y050567D02*
X008253Y050567D01*
X008253Y050626D02*
X008321Y050626D01*
X008321Y050684D02*
X008253Y050684D01*
X008253Y050743D02*
X008322Y050743D01*
X008347Y050801D02*
X008253Y050801D01*
X008253Y050860D02*
X008371Y050860D01*
X008395Y050918D02*
X008253Y050918D01*
X008253Y050977D02*
X008446Y050977D01*
X008505Y051035D02*
X008253Y051035D01*
X008253Y051094D02*
X008587Y051094D01*
X008728Y051152D02*
X008253Y051152D01*
X008253Y051211D02*
X009215Y051211D01*
X009250Y051196D02*
X009417Y051196D01*
X009571Y051260D01*
X009689Y051378D01*
X009753Y051533D01*
X009753Y051700D01*
X009689Y051854D01*
X010749Y051854D01*
X010685Y051700D01*
X010685Y051533D01*
X010749Y051378D01*
X010867Y051260D01*
X011021Y051196D01*
X011188Y051196D01*
X011343Y051260D01*
X011461Y051378D01*
X011525Y051533D01*
X011525Y051700D01*
X011461Y051854D01*
X014539Y051854D01*
X014558Y051796D02*
X011485Y051796D01*
X011461Y051854D02*
X011343Y051972D01*
X011188Y052036D01*
X011021Y052036D01*
X010867Y051972D01*
X010749Y051854D01*
X010724Y051796D02*
X009713Y051796D01*
X009689Y051854D02*
X009571Y051972D01*
X009417Y052036D01*
X009250Y052036D01*
X009095Y051972D01*
X008977Y051854D01*
X008301Y051854D01*
X008282Y051796D02*
X008953Y051796D01*
X008977Y051854D02*
X008913Y051700D01*
X008913Y051533D01*
X008977Y051378D01*
X009095Y051260D01*
X009250Y051196D01*
X009177Y051035D02*
X011261Y051035D01*
X011302Y051077D02*
X011156Y050931D01*
X011077Y050739D01*
X011077Y050533D01*
X011156Y050342D01*
X011302Y050195D01*
X011493Y050116D01*
X011700Y050116D01*
X011891Y050195D01*
X012038Y050342D01*
X012117Y050533D01*
X012117Y050739D01*
X012038Y050931D01*
X011891Y051077D01*
X011700Y051156D01*
X011493Y051156D01*
X011302Y051077D01*
X011343Y051094D02*
X009095Y051094D01*
X008954Y051152D02*
X011484Y051152D01*
X011352Y051269D02*
X012442Y051269D01*
X012442Y051250D02*
X012496Y051120D01*
X012596Y051020D01*
X012727Y050965D01*
X012868Y050965D01*
X012999Y051020D01*
X013099Y051120D01*
X013153Y051250D01*
X013153Y051392D01*
X013099Y051523D01*
X012999Y051623D01*
X012868Y051677D01*
X012727Y051677D01*
X012596Y051623D01*
X012496Y051523D01*
X012442Y051392D01*
X012442Y051250D01*
X012458Y051211D02*
X011223Y051211D01*
X011410Y051328D02*
X012442Y051328D01*
X012442Y051386D02*
X011464Y051386D01*
X011488Y051445D02*
X012464Y051445D01*
X012488Y051503D02*
X011513Y051503D01*
X011525Y051562D02*
X012535Y051562D01*
X012594Y051620D02*
X011525Y051620D01*
X011525Y051679D02*
X014583Y051679D01*
X014577Y051737D02*
X011509Y051737D01*
X011402Y051913D02*
X014519Y051913D01*
X014477Y051971D02*
X011344Y051971D01*
X011204Y052030D02*
X014434Y052030D01*
X014377Y052088D02*
X008462Y052088D01*
X008405Y052030D02*
X009233Y052030D01*
X009094Y051971D02*
X008363Y051971D01*
X008320Y051913D02*
X009035Y051913D01*
X008929Y051737D02*
X008263Y051737D01*
X008257Y051679D02*
X008913Y051679D01*
X008913Y051620D02*
X008253Y051620D01*
X008253Y051562D02*
X008913Y051562D01*
X008925Y051503D02*
X008253Y051503D01*
X008253Y051445D02*
X008950Y051445D01*
X008974Y051386D02*
X008253Y051386D01*
X008253Y051328D02*
X009028Y051328D01*
X009086Y051269D02*
X008253Y051269D01*
X008543Y052147D02*
X014297Y052147D01*
X014168Y052205D02*
X008671Y052205D01*
X009433Y052030D02*
X011005Y052030D01*
X010866Y051971D02*
X009572Y051971D01*
X009631Y051913D02*
X010807Y051913D01*
X010700Y051737D02*
X009738Y051737D01*
X009753Y051679D02*
X010685Y051679D01*
X010685Y051620D02*
X009753Y051620D01*
X009753Y051562D02*
X010685Y051562D01*
X010697Y051503D02*
X009741Y051503D01*
X009717Y051445D02*
X010721Y051445D01*
X010746Y051386D02*
X009692Y051386D01*
X009638Y051328D02*
X010799Y051328D01*
X010858Y051269D02*
X009580Y051269D01*
X009451Y051211D02*
X010987Y051211D01*
X011202Y050977D02*
X009236Y050977D01*
X009287Y050918D02*
X011151Y050918D01*
X011127Y050860D02*
X009311Y050860D01*
X009335Y050801D02*
X011102Y050801D01*
X011078Y050743D02*
X009360Y050743D01*
X009361Y050684D02*
X011077Y050684D01*
X011077Y050626D02*
X009361Y050626D01*
X009361Y050567D02*
X011077Y050567D01*
X011087Y050509D02*
X009351Y050509D01*
X009327Y050450D02*
X011111Y050450D01*
X011135Y050392D02*
X009303Y050392D01*
X009274Y050333D02*
X011164Y050333D01*
X011223Y050275D02*
X009215Y050275D01*
X009157Y050216D02*
X011281Y050216D01*
X011393Y050158D02*
X009045Y050158D01*
X009080Y048929D02*
X014586Y048929D01*
X014586Y048871D02*
X009221Y048871D01*
X009304Y048812D02*
X014586Y048812D01*
X014586Y048754D02*
X009363Y048754D01*
X009421Y048695D02*
X014586Y048695D01*
X014586Y048637D02*
X009480Y048637D01*
X009513Y048578D02*
X014586Y048578D01*
X014586Y048520D02*
X009537Y048520D01*
X009561Y048461D02*
X014586Y048461D01*
X014586Y048403D02*
X009586Y048403D01*
X009610Y048344D02*
X014586Y048344D01*
X014586Y048286D02*
X009620Y048286D01*
X009620Y048227D02*
X014586Y048227D01*
X014586Y048169D02*
X009620Y048169D01*
X009620Y048110D02*
X014586Y048110D01*
X014586Y048052D02*
X009620Y048052D01*
X009620Y047993D02*
X014586Y047993D01*
X014586Y047935D02*
X009596Y047935D01*
X009572Y047876D02*
X014586Y047876D01*
X014586Y047818D02*
X009548Y047818D01*
X009524Y047759D02*
X014586Y047759D01*
X014586Y047701D02*
X009499Y047701D01*
X009447Y047642D02*
X014586Y047642D01*
X014586Y047584D02*
X009389Y047584D01*
X009330Y047525D02*
X014586Y047525D01*
X014586Y047467D02*
X009272Y047467D01*
X009142Y047408D02*
X014586Y047408D01*
X014586Y047350D02*
X009001Y047350D01*
X010881Y045829D02*
X014586Y045829D01*
X014586Y045887D02*
X010989Y045887D01*
X011065Y044431D02*
X011105Y044392D01*
X010929Y044249D02*
X009716Y044249D01*
X009716Y044191D02*
X010988Y044191D01*
X010880Y044308D02*
X009716Y044308D01*
X009716Y044366D02*
X010880Y044366D01*
X012241Y044834D02*
X012331Y044834D01*
X012463Y044648D02*
X012463Y043900D01*
X012688Y043898D02*
X014586Y043898D01*
X014586Y043840D02*
X012688Y043840D01*
X012663Y043781D02*
X014586Y043781D01*
X014586Y043723D02*
X012604Y043723D01*
X012688Y043957D02*
X014586Y043957D01*
X014586Y044015D02*
X012666Y044015D01*
X012607Y044074D02*
X014586Y044074D01*
X014586Y044132D02*
X012583Y044132D01*
X012583Y044191D02*
X014586Y044191D01*
X014586Y044249D02*
X012583Y044249D01*
X012583Y044308D02*
X014586Y044308D01*
X014586Y044366D02*
X012583Y044366D01*
X012583Y044425D02*
X014586Y044425D01*
X014586Y044483D02*
X012617Y044483D01*
X013073Y045160D02*
X013270Y045160D01*
X013416Y045361D02*
X013527Y045361D01*
X014586Y042026D02*
X006682Y042026D01*
X006739Y041968D02*
X014586Y041968D01*
X014586Y041909D02*
X006764Y041909D01*
X006788Y041851D02*
X014586Y041851D01*
X014586Y041792D02*
X006812Y041792D01*
X006818Y041734D02*
X014586Y041734D01*
X014586Y041675D02*
X006818Y041675D01*
X006818Y041617D02*
X014586Y041617D01*
X014586Y041558D02*
X006812Y041558D01*
X006788Y041500D02*
X014586Y041500D01*
X014586Y041441D02*
X006763Y041441D01*
X006739Y041383D02*
X014586Y041383D01*
X014586Y041324D02*
X006682Y041324D01*
X006623Y041266D02*
X007621Y041266D01*
X007562Y041207D02*
X006526Y041207D01*
X007638Y040622D02*
X004710Y040622D01*
X005470Y039803D02*
X014586Y039803D01*
X014586Y039745D02*
X005578Y039745D01*
X005637Y039686D02*
X014586Y039686D01*
X014586Y039628D02*
X005682Y039628D01*
X005707Y039569D02*
X014586Y039569D01*
X014586Y039511D02*
X005731Y039511D01*
X005737Y039452D02*
X014586Y039452D01*
X014586Y039394D02*
X006512Y039394D01*
X006617Y039335D02*
X014586Y039335D01*
X014586Y039277D02*
X006676Y039277D01*
X006734Y039218D02*
X014586Y039218D01*
X014586Y039160D02*
X006761Y039160D01*
X006785Y039101D02*
X014586Y039101D01*
X014586Y039043D02*
X006810Y039043D01*
X006818Y038984D02*
X014586Y038984D01*
X014586Y038926D02*
X006818Y038926D01*
X006818Y038867D02*
X014586Y038867D01*
X014586Y038809D02*
X006815Y038809D01*
X006790Y038750D02*
X014586Y038750D01*
X014586Y038692D02*
X006766Y038692D01*
X006742Y038633D02*
X014586Y038633D01*
X014586Y038575D02*
X006688Y038575D01*
X006630Y038516D02*
X014586Y038516D01*
X014586Y038458D02*
X006541Y038458D01*
X005786Y039043D02*
X005524Y039043D01*
X005601Y039101D02*
X005810Y039101D01*
X005834Y039160D02*
X005659Y039160D01*
X005692Y039218D02*
X005861Y039218D01*
X005919Y039277D02*
X005716Y039277D01*
X005737Y039335D02*
X005978Y039335D01*
X006084Y039394D02*
X005737Y039394D01*
X007581Y040396D02*
X007719Y040534D01*
X008802Y040534D01*
X008973Y040681D02*
X014586Y040681D01*
X014586Y040739D02*
X008914Y040739D01*
X009027Y040622D02*
X014586Y040622D01*
X014586Y040564D02*
X009027Y040564D01*
X009483Y040505D02*
X014586Y040505D01*
X014586Y040447D02*
X009541Y040447D01*
X009597Y040388D02*
X014586Y040388D01*
X014586Y040330D02*
X009597Y040330D01*
X009597Y040271D02*
X014586Y040271D01*
X014586Y040213D02*
X009597Y040213D01*
X009547Y040154D02*
X014586Y040154D01*
X014586Y040096D02*
X009489Y040096D01*
X009195Y040120D02*
X008369Y040120D01*
X007906Y040915D02*
X014586Y040915D01*
X014586Y040973D02*
X007965Y040973D01*
X007983Y041032D02*
X014586Y041032D01*
X014586Y041090D02*
X007983Y041090D01*
X007983Y041149D02*
X014586Y041149D01*
X014586Y041207D02*
X007954Y041207D01*
X007896Y041266D02*
X014586Y041266D01*
X014586Y035825D02*
X005561Y035825D01*
X005619Y035767D02*
X014586Y035767D01*
X014586Y035708D02*
X005675Y035708D01*
X005699Y035650D02*
X014586Y035650D01*
X014586Y035591D02*
X005724Y035591D01*
X005737Y035533D02*
X014586Y035533D01*
X014586Y033368D02*
X012368Y033368D01*
X012227Y033191D02*
X014038Y033191D01*
X013998Y032679D02*
X012187Y032679D01*
X010765Y028630D02*
X010262Y028630D01*
X010320Y028571D02*
X010707Y028571D01*
X010648Y028513D02*
X010379Y028513D01*
X010437Y028454D02*
X010590Y028454D01*
X010542Y028396D02*
X010496Y028396D01*
X010502Y028337D02*
X010542Y028337D01*
X010542Y028279D02*
X010502Y028279D01*
X012470Y023306D02*
X006164Y023306D01*
X006223Y023248D02*
X012442Y023248D01*
X013578Y021317D02*
X004710Y021317D01*
X004710Y021259D02*
X013519Y021259D01*
X013478Y021200D02*
X004710Y021200D01*
X004710Y021142D02*
X013478Y021142D01*
X013344Y021083D02*
X004710Y021083D01*
X004710Y021025D02*
X013285Y021025D01*
X013242Y020966D02*
X012841Y020966D01*
X012899Y020908D02*
X013242Y020908D01*
X013242Y020849D02*
X012944Y020849D01*
X012944Y020791D02*
X013246Y020791D01*
X013305Y020732D02*
X012944Y020732D01*
X012941Y020674D02*
X013363Y020674D01*
X013467Y020888D02*
X013506Y020888D01*
X013880Y020514D01*
X013655Y020498D02*
X012839Y020498D01*
X012839Y020440D02*
X013655Y020440D01*
X013695Y020381D02*
X012839Y020381D01*
X012839Y020323D02*
X013754Y020323D01*
X013655Y020557D02*
X012839Y020557D01*
X012882Y020615D02*
X013610Y020615D01*
X014077Y020750D02*
X013703Y021124D01*
X014077Y020750D02*
X014117Y020750D01*
X012719Y020770D02*
X012719Y019943D01*
X012739Y019923D01*
X012606Y019738D02*
X012536Y019738D01*
X012404Y019923D02*
X012404Y020750D01*
X012384Y020770D01*
X012221Y020615D02*
X004710Y020615D01*
X004710Y020557D02*
X012279Y020557D01*
X012284Y020498D02*
X004710Y020498D01*
X004710Y020440D02*
X012284Y020440D01*
X012284Y020381D02*
X004710Y020381D01*
X004710Y020323D02*
X012284Y020323D01*
X012284Y020264D02*
X004710Y020264D01*
X004710Y020206D02*
X012284Y020206D01*
X012284Y020147D02*
X004710Y020147D01*
X004710Y020089D02*
X012251Y020089D01*
X012192Y020030D02*
X004710Y020030D01*
X004710Y019972D02*
X012179Y019972D01*
X012179Y019913D02*
X004710Y019913D01*
X004710Y019855D02*
X012179Y019855D01*
X012213Y019796D02*
X004710Y019796D01*
X004710Y019738D02*
X012272Y019738D01*
X012162Y020674D02*
X004710Y020674D01*
X004710Y020732D02*
X012159Y020732D01*
X012159Y020791D02*
X004710Y020791D01*
X004710Y020849D02*
X012159Y020849D01*
X012204Y020908D02*
X004710Y020908D01*
X004710Y020966D02*
X012262Y020966D01*
X012506Y020966D02*
X012597Y020966D01*
X011722Y015818D02*
X013512Y015818D01*
X013453Y015760D02*
X011722Y015760D01*
X011722Y015701D02*
X013399Y015701D01*
X013399Y015643D02*
X011722Y015643D01*
X011722Y015584D02*
X013399Y015584D01*
X013399Y015526D02*
X011722Y015526D01*
X011722Y015467D02*
X013452Y015467D01*
X013510Y015409D02*
X011722Y015409D01*
X013739Y015409D02*
X014298Y015409D01*
X014239Y015467D02*
X013797Y015467D01*
X013796Y015760D02*
X014241Y015760D01*
X014299Y015818D02*
X013737Y015818D01*
X006139Y022780D02*
X004710Y022780D01*
X004710Y022838D02*
X006081Y022838D01*
X006057Y022897D02*
X004710Y022897D01*
X004710Y022955D02*
X006048Y022955D01*
X005990Y023014D02*
X004710Y023014D01*
X004710Y023072D02*
X005931Y023072D01*
X005873Y023131D02*
X004710Y023131D01*
X004710Y023189D02*
X005749Y023189D01*
X005691Y023248D02*
X004710Y023248D01*
X004710Y023306D02*
X005644Y023306D01*
X005644Y023365D02*
X004710Y023365D01*
X004710Y023423D02*
X005644Y023423D01*
X005644Y023482D02*
X004710Y023482D01*
X004710Y023540D02*
X005702Y023540D01*
X005125Y027226D02*
X004710Y027226D01*
X004710Y027284D02*
X005040Y027284D01*
X004981Y027343D02*
X004710Y027343D01*
X004710Y027401D02*
X004945Y027401D01*
X004921Y027460D02*
X004710Y027460D01*
X004710Y027518D02*
X004897Y027518D01*
X004897Y027577D02*
X004710Y027577D01*
X004710Y027635D02*
X004897Y027635D01*
X004901Y027694D02*
X004710Y027694D01*
X004710Y027752D02*
X004926Y027752D01*
X004950Y027811D02*
X004710Y027811D01*
X004710Y027869D02*
X004992Y027869D01*
X005050Y027928D02*
X004710Y027928D01*
X004710Y027986D02*
X005151Y027986D01*
X004864Y029449D02*
X004710Y029449D01*
X004710Y029507D02*
X004878Y029507D01*
X004900Y029566D02*
X004710Y029566D01*
X004710Y029624D02*
X004932Y029624D01*
X004977Y029683D02*
X004710Y029683D01*
X004710Y029741D02*
X005042Y029741D01*
X009100Y043723D02*
X009389Y043723D01*
X009330Y043781D02*
X009105Y043781D01*
X008998Y043939D02*
X008880Y043821D01*
X008998Y043939D02*
X009491Y043939D01*
X011801Y050158D02*
X012463Y050158D01*
X012452Y050164D02*
X012482Y050147D01*
X012515Y050138D01*
X012768Y050138D01*
X012768Y050504D01*
X012828Y050504D01*
X012828Y050564D01*
X012768Y050564D01*
X012768Y050929D01*
X012515Y050929D01*
X012482Y050921D01*
X012452Y050903D01*
X012428Y050879D01*
X012411Y050850D01*
X012402Y050817D01*
X012402Y050564D01*
X012768Y050564D01*
X012768Y050504D01*
X012402Y050504D01*
X012402Y050251D01*
X012411Y050218D01*
X012428Y050188D01*
X012452Y050164D01*
X012412Y050216D02*
X011912Y050216D01*
X011971Y050275D02*
X012402Y050275D01*
X012402Y050333D02*
X012029Y050333D01*
X012059Y050392D02*
X012402Y050392D01*
X012402Y050450D02*
X012083Y050450D01*
X012107Y050509D02*
X012768Y050509D01*
X012768Y050567D02*
X012828Y050567D01*
X012828Y050564D02*
X012828Y050929D01*
X013081Y050929D01*
X013114Y050921D01*
X013143Y050903D01*
X013167Y050879D01*
X013185Y050850D01*
X013193Y050817D01*
X013193Y050564D01*
X012828Y050564D01*
X012828Y050509D02*
X014586Y050509D01*
X014586Y050567D02*
X013193Y050567D01*
X013193Y050626D02*
X014586Y050626D01*
X014586Y050684D02*
X013193Y050684D01*
X013193Y050743D02*
X014586Y050743D01*
X014586Y050801D02*
X013193Y050801D01*
X013179Y050860D02*
X014586Y050860D01*
X014586Y050918D02*
X013118Y050918D01*
X013015Y051035D02*
X014586Y051035D01*
X014586Y050977D02*
X012896Y050977D01*
X012828Y050918D02*
X012768Y050918D01*
X012768Y050860D02*
X012828Y050860D01*
X012828Y050801D02*
X012768Y050801D01*
X012768Y050743D02*
X012828Y050743D01*
X012828Y050684D02*
X012768Y050684D01*
X012768Y050626D02*
X012828Y050626D01*
X012828Y050504D02*
X013193Y050504D01*
X013193Y050251D01*
X013185Y050218D01*
X013167Y050188D01*
X013143Y050164D01*
X013114Y050147D01*
X013081Y050138D01*
X012828Y050138D01*
X012828Y050504D01*
X012828Y050450D02*
X012768Y050450D01*
X012768Y050392D02*
X012828Y050392D01*
X012828Y050333D02*
X012768Y050333D01*
X012768Y050275D02*
X012828Y050275D01*
X012828Y050216D02*
X012768Y050216D01*
X012768Y050158D02*
X012828Y050158D01*
X013132Y050158D02*
X014586Y050158D01*
X014586Y050216D02*
X013184Y050216D01*
X013193Y050275D02*
X014586Y050275D01*
X014586Y050333D02*
X013193Y050333D01*
X013193Y050392D02*
X014586Y050392D01*
X014586Y050450D02*
X013193Y050450D01*
X012699Y050977D02*
X011992Y050977D01*
X012043Y050918D02*
X012478Y050918D01*
X012417Y050860D02*
X012067Y050860D01*
X012091Y050801D02*
X012402Y050801D01*
X012402Y050743D02*
X012116Y050743D01*
X012117Y050684D02*
X012402Y050684D01*
X012402Y050626D02*
X012117Y050626D01*
X012117Y050567D02*
X012402Y050567D01*
X012580Y051035D02*
X011933Y051035D01*
X011851Y051094D02*
X012522Y051094D01*
X012483Y051152D02*
X011710Y051152D01*
X013002Y051620D02*
X014586Y051620D01*
X014586Y051562D02*
X013060Y051562D01*
X013107Y051503D02*
X014586Y051503D01*
X014586Y051445D02*
X013132Y051445D01*
X013153Y051386D02*
X014586Y051386D01*
X014586Y051328D02*
X013153Y051328D01*
X013153Y051269D02*
X014586Y051269D01*
X014586Y051211D02*
X013137Y051211D01*
X013113Y051152D02*
X014586Y051152D01*
X014586Y051094D02*
X013073Y051094D01*
D18*
X012837Y048772D03*
X012437Y046972D03*
X012857Y046774D03*
X012286Y046085D03*
X012286Y045534D03*
X011735Y045534D03*
X011735Y046085D03*
X011065Y045002D03*
X011105Y044392D03*
X010613Y043211D03*
X010278Y043171D03*
X010121Y042699D03*
X010809Y042463D03*
X011046Y042069D03*
X010219Y041479D03*
X010180Y041046D03*
X009372Y040297D03*
X008802Y040534D03*
X008369Y040120D03*
X007758Y041085D03*
X007581Y040396D03*
X007325Y040849D03*
X007955Y042266D03*
X008841Y042581D03*
X009176Y041734D03*
X008880Y043821D03*
X008880Y044156D03*
X008959Y044490D03*
X009432Y044746D03*
X009550Y045101D03*
X009491Y044274D03*
X009491Y043939D03*
X008309Y044195D03*
X006459Y044825D03*
X005849Y044727D03*
X005317Y045022D03*
X008329Y038053D03*
X008644Y037935D03*
X008900Y038231D03*
X009117Y037935D03*
X008605Y037325D03*
X008290Y037187D03*
X007817Y037345D03*
X007384Y037601D03*
X008703Y036380D03*
X009235Y034983D03*
X009786Y034549D03*
X010278Y036085D03*
X010140Y036912D03*
X011321Y034668D03*
X012227Y033191D03*
X012187Y032679D03*
X011203Y032719D03*
X011203Y032325D03*
X010514Y032227D03*
X009865Y032227D03*
X009924Y031892D03*
X009668Y031656D03*
X009333Y031557D03*
X008998Y031754D03*
X008861Y031439D03*
X008349Y031105D03*
X007857Y031872D03*
X008861Y030160D03*
X009195Y030219D03*
X009353Y029923D03*
X009687Y030022D03*
X009786Y029687D03*
X010121Y029805D03*
X010455Y029727D03*
X010239Y029471D03*
X010632Y031242D03*
X009432Y031990D03*
X009569Y032640D03*
X012128Y031301D03*
X012325Y030494D03*
X012561Y029274D03*
X012306Y028782D03*
X012069Y028546D03*
X011833Y028309D03*
X012424Y027679D03*
X012660Y027916D03*
X012916Y028171D03*
X013073Y027463D03*
X013546Y029471D03*
X013546Y029805D03*
X013880Y029471D03*
X013073Y029963D03*
X013211Y030475D03*
X014392Y030416D03*
X013644Y035219D03*
X011243Y039313D03*
X013684Y043014D03*
X012463Y043900D03*
X012109Y043762D03*
X012109Y044648D03*
X012463Y044648D03*
X013073Y045160D03*
X013093Y045514D03*
X013644Y045160D03*
X013789Y045459D03*
X013605Y044825D03*
X014148Y046140D03*
X014372Y047679D03*
X010869Y046085D03*
X010081Y045770D03*
X010239Y047109D03*
X010239Y049077D03*
X013979Y039904D03*
X007975Y028388D03*
X007561Y026794D03*
X006971Y026538D03*
X007030Y025691D03*
X007817Y025671D03*
X007817Y025337D03*
X007817Y025002D03*
X007817Y024668D03*
X008703Y024707D03*
X008703Y025061D03*
X008703Y025416D03*
X008703Y025750D03*
X009589Y024786D03*
X010632Y024136D03*
X010239Y023014D03*
X009628Y022423D03*
X008054Y022246D03*
X009766Y020357D03*
X008467Y019038D03*
X008369Y017069D03*
X007739Y016203D03*
X008073Y014707D03*
X007286Y013920D03*
X006321Y016282D03*
X006400Y017483D03*
X005298Y020278D03*
X005534Y022443D03*
X006282Y022955D03*
X005869Y023388D03*
X005239Y025022D03*
X006498Y028486D03*
X011420Y024215D03*
X012384Y020770D03*
X012719Y020770D03*
X013467Y020888D03*
X013703Y021124D03*
X014117Y020750D03*
X013880Y020514D03*
X012739Y019923D03*
X012404Y019923D03*
X012404Y017857D03*
X013585Y016675D03*
X013624Y015612D03*
X012935Y015494D03*
X012798Y013920D03*
X014412Y015612D03*
X016735Y012345D03*
X016735Y009983D03*
X016735Y007620D03*
X018014Y005986D03*
X016538Y004156D03*
X016538Y003762D03*
X017601Y002187D03*
X016577Y001794D03*
X016577Y001400D03*
X016577Y001006D03*
X016577Y000553D03*
X014766Y000534D03*
X015002Y002128D03*
X015002Y002896D03*
X014766Y004077D03*
X012798Y000534D03*
X010829Y000534D03*
X008861Y000534D03*
X008467Y002502D03*
X010042Y004077D03*
X012404Y004077D03*
X013585Y008408D03*
X012798Y011557D03*
X010042Y013920D03*
X009274Y016223D03*
X011223Y016675D03*
X008861Y011557D03*
X010042Y008408D03*
X006892Y008408D03*
X004924Y008408D03*
X004924Y006439D03*
X004924Y004471D03*
X006498Y004077D03*
X004924Y010376D03*
X004924Y012345D03*
X004924Y013920D03*
X018802Y002187D03*
X020002Y002187D03*
X020022Y003349D03*
X021026Y003762D03*
X021026Y002581D03*
X021026Y001006D03*
X021026Y000534D03*
X023034Y000534D03*
X025002Y000534D03*
X026971Y000534D03*
X028939Y000534D03*
X028939Y002502D03*
X027758Y004077D03*
X025396Y004077D03*
X023034Y004077D03*
X024215Y008408D03*
X022640Y011557D03*
X022640Y013920D03*
X020278Y013920D03*
X019491Y012345D03*
X019491Y009983D03*
X019491Y007620D03*
X019589Y005986D03*
X025396Y013920D03*
X026577Y011557D03*
X027758Y008408D03*
X029333Y011557D03*
X028939Y013920D03*
X032483Y013920D03*
X032483Y012345D03*
X032483Y010376D03*
X032483Y008408D03*
X032483Y006439D03*
X032483Y004471D03*
X030908Y004077D03*
X030514Y008408D03*
D19*
X013211Y030475D02*
X013191Y030494D01*
X012325Y030494D01*
X008605Y037325D02*
X009117Y037837D01*
X009117Y037935D01*
X013491Y046140D02*
X014148Y046140D01*
X013491Y046140D02*
X012857Y046774D01*
X005869Y023388D02*
X005869Y023368D01*
X006282Y022955D01*
X009628Y022423D02*
X009648Y022423D01*
X010239Y023014D01*
D20*
X013624Y015612D02*
X014412Y015612D01*
D21*
X010554Y045770D02*
X010081Y045770D01*
X010554Y045770D02*
X010869Y046085D01*
M02*
